M48
;GenerationSoftware,Autodesk,EAGLE,9.6.2*%
;CreationDate,2021-03-23T20:18:35Z*%
FMAT,2
ICI,OFF
METRIC,TZ,000.000
T9C0.350
T8C0.920
T7C1.000
T6C1.300
T5C1.700
T4C2.000
T3C2.300
T2C3.050
T1C4.000
%
G90
M71
T1
X80963Y38100
X254794Y19050
X128587Y57150
X228600Y95250
X247650Y95250
X273844Y57150
X261944Y48910
X285744Y48910
X19050Y95250
X138113Y38100
X161925Y76200
X38100Y95250
X23812Y76200
X257175Y76200
X57150Y95250
X71438Y57150
X47625Y76200
X76200Y95250
X180975Y76200
X109537Y57150
X95250Y95250
X66675Y76200
X26194Y57150
X114300Y95250
X200025Y76200
X85725Y76200
X133350Y95250
X147638Y57150
X90487Y57150
X152400Y95250
X104775Y76200
X219075Y76200
X171450Y95250
X52387Y57150
X123825Y76200
X190500Y95250
X166688Y57150
X238125Y76200
X209550Y95250
X142875Y76200
X185737Y57150
X204787Y57150
X223837Y57150
X242887Y57150
X61912Y38100
X100012Y38100
X119062Y38100
X157163Y38100
X176212Y38100
X195262Y38100
X214312Y38100
X233362Y38100
X280988Y76200
X21431Y19050
X45244Y19050
X69056Y19050
X176212Y19050
X195262Y19050
X214312Y19050
X233362Y19050
X30956Y38100
X254794Y38100
X19056Y46340
X42856Y46340
X121444Y19050
X109544Y27290
X133344Y27290
X157163Y19050
X276225Y95250
X264325Y87010
X288125Y87010
T2
X109544Y12050
X42856Y31100
X133344Y12050
X261944Y64150
X285744Y64150
X19056Y31100
X288125Y102250
X264325Y102250
T3
X145830Y108639
X158970Y108639
T4
X176252Y72913
X155712Y72415
X155712Y81051
T5
X194945Y76200
X205105Y76200
X213995Y76200
X224155Y76200
X233045Y76200
X252095Y76200
X262255Y76200
X21114Y57150
X31274Y57150
X47307Y57150
X57467Y57150
X66358Y57150
X76518Y57150
X85408Y57150
X95567Y57150
X104457Y57150
X114617Y57150
X123507Y57150
X133668Y57150
X142558Y57150
X152718Y57150
X243205Y76200
X171768Y57150
X249714Y19050
X180657Y57150
X190817Y57150
X259874Y19050
X199707Y57150
X209867Y57150
X13970Y95250
X218757Y57150
X228917Y57150
X24130Y95250
X237807Y57150
X247967Y57150
X33020Y95250
X56832Y38100
X66993Y38100
X43180Y95250
X75883Y38100
X86043Y38100
X52070Y95250
X94932Y38100
X105092Y38100
X62230Y95250
X113982Y38100
X124142Y38100
X161608Y57150
X133033Y38100
X143193Y38100
X71120Y95250
X152083Y38100
X162243Y38100
X81280Y95250
X171133Y38100
X181292Y38100
X90170Y95250
X190182Y38100
X200342Y38100
X100330Y95250
X209232Y38100
X219392Y38100
X109220Y95250
X228282Y38100
X238442Y38100
X119380Y95250
X275908Y76200
X286068Y76200
X128270Y95250
X16351Y19050
X26511Y19050
X138430Y95250
X40164Y19050
X147320Y95250
X157480Y95250
X63976Y19050
X74136Y19050
X166370Y95250
X171133Y19050
X181292Y19050
X176530Y95250
X190182Y19050
X200342Y19050
X185420Y95250
X209232Y19050
X219392Y19050
X195580Y95250
X228282Y19050
X238442Y19050
X204470Y95250
X25876Y38100
X36036Y38100
X214630Y95250
X223520Y95250
X233680Y95250
X18733Y76200
X28892Y76200
X116364Y19050
X126524Y19050
X50324Y19050
X42545Y76200
X52705Y76200
X61595Y76200
X71755Y76200
X152083Y19050
X162243Y19050
X80645Y76200
X271145Y95250
X281305Y95250
X90805Y76200
X99695Y76200
X109855Y76200
X118745Y76200
X128905Y76200
X242570Y95250
X252730Y95250
X137795Y76200
X268764Y57150
X278924Y57150
X147955Y76200
X156845Y76200
X167005Y76200
X175895Y76200
X186055Y76200
X249714Y38100
X259874Y38100
T6
X47784Y24130
X65246Y21590
X71596Y24130
X172403Y21590
X178752Y24130
X191452Y21590
X197802Y24130
X210502Y21590
X216852Y24130
X229552Y21590
X235902Y24130
X27146Y40640
X33496Y43180
X117634Y21590
X123984Y24130
X153353Y21590
X159703Y24130
X272415Y97790
X278765Y100330
X243840Y97790
X250190Y100330
X270034Y59690
X276384Y62230
X250984Y40640
X257334Y43180
X250984Y21590
X257334Y24130
X15240Y97790
X21590Y100330
X34290Y97790
X40640Y100330
X53340Y97790
X59690Y100330
X72390Y97790
X78740Y100330
X91440Y97790
X97790Y100330
X110490Y97790
X116840Y100330
X129540Y97790
X135890Y100330
X148590Y97790
X154940Y100330
X167640Y97790
X173990Y100330
X186690Y97790
X193040Y100330
X205740Y97790
X212090Y100330
X224790Y97790
X231140Y100330
X20003Y78740
X26352Y81280
X43815Y78740
X50165Y81280
X62865Y78740
X69215Y81280
X81915Y78740
X88265Y81280
X100965Y78740
X107315Y81280
X120015Y78740
X126365Y81280
X139065Y78740
X145415Y81280
X158115Y78740
X164465Y81280
X177165Y78740
X183515Y81280
X196215Y78740
X202565Y81280
X215265Y78740
X221615Y81280
X234315Y78740
X240665Y81280
X253365Y78740
X259715Y81280
X22384Y59690
X28734Y62230
X48577Y59690
X54927Y62230
X67628Y59690
X73978Y62230
X86678Y59690
X93027Y62230
X105727Y59690
X112077Y62230
X124777Y59690
X131128Y62230
X143828Y59690
X150178Y62230
X162878Y59690
X169228Y62230
X181927Y59690
X188277Y62230
X200977Y59690
X207327Y62230
X220027Y59690
X226377Y62230
X239077Y59690
X245427Y62230
X58102Y40640
X64452Y43180
X77153Y40640
X83503Y43180
X96202Y40640
X102552Y43180
X115252Y40640
X121602Y43180
X134303Y40640
X140653Y43180
X153353Y40640
X159703Y43180
X172403Y40640
X178752Y43180
X191452Y40640
X197802Y43180
X210502Y40640
X216852Y43180
X229552Y40640
X235902Y43180
X277178Y78740
X283528Y81280
X17621Y21590
X23971Y24130
X41434Y21590
T7
X157492Y84233
X104775Y90430
X245269Y42920
X245269Y33280
X245269Y23870
X152412Y69113
X154952Y69113
X157492Y69113
X160032Y69113
X162572Y69113
X165112Y69113
X167652Y69113
X170192Y69113
X172732Y69113
X175272Y69113
X177812Y69113
X180352Y69113
X152412Y84233
X154952Y84233
X219075Y90430
X160032Y84233
X162572Y84233
X165112Y84233
X167652Y84233
X170192Y84233
X172732Y84233
X175272Y84233
X123825Y100070
X123825Y90430
X142875Y100070
X142875Y90430
X161925Y100070
X161925Y90430
X180975Y100070
X180975Y90430
X200025Y100070
X200025Y90430
X219075Y100070
X245269Y14230
X238125Y100070
X238125Y90430
X257175Y100070
X257175Y90430
X33338Y81020
X33338Y71380
X57150Y81020
X57150Y71380
X76200Y81020
X76200Y71380
X95250Y81020
X95250Y71380
X114300Y81020
X114300Y71380
X133350Y81020
X133350Y71380
X152400Y81020
X152400Y71380
X171450Y81020
X171450Y71380
X190500Y81020
X190500Y71380
X209550Y81020
X209550Y71380
X228600Y81020
X228600Y71380
X247650Y81020
X247650Y71380
X266700Y81020
X266700Y71380
X38100Y61970
X38100Y52330
X61912Y61970
X61912Y52330
X80963Y61970
X80963Y52330
X100012Y61970
X100012Y52330
X119062Y61970
X119062Y52330
X138113Y61970
X138113Y52330
X157163Y61970
X157163Y52330
X176212Y61970
X176212Y52330
X195262Y61970
X195262Y52330
X214312Y61970
X214312Y52330
X233362Y61970
X233362Y52330
X252412Y61970
X252412Y52330
X254794Y61970
X254794Y52330
X50006Y42920
X50006Y33280
X71438Y42920
X71438Y33280
X90487Y42920
X90487Y33280
X109537Y42920
X109537Y33280
X128587Y42920
X128587Y33280
X147638Y42920
X147638Y33280
X166688Y42920
X166688Y33280
X185737Y42920
X185737Y33280
X204787Y42920
X204787Y33280
X223837Y42920
X223837Y33280
X242887Y42920
X242887Y33280
X271463Y81020
X271463Y71380
X30956Y23870
X30956Y14230
X54769Y23870
X54769Y14230
X78581Y23870
X78581Y14230
X102394Y23870
X102394Y14230
X166688Y23870
X166688Y14230
X185737Y23870
X185737Y14230
X204787Y23870
X204787Y14230
X223837Y23870
X223837Y14230
X242887Y23870
X242887Y14230
X28575Y100070
X28575Y90430
X259556Y100070
X259556Y90430
X47625Y100070
X47625Y90430
X66675Y100070
X66675Y90430
X180352Y84233
X177812Y84233
X85725Y100070
X85725Y90430
X104775Y100070
T8
X151400Y105929
X153400Y105929
X148900Y105929
X155900Y105929
T9
X148800Y67000
X154200Y64800
X162400Y29400
X179400Y86400
X155000Y49200
M30