G04 EAGLE Gerber RS-274X export*
G75*
%MOMM*%
%FSLAX34Y34*%
%LPD*%
%INTop Copper*%
%IPPOS*%
%AMOC8*
5,1,8,0,0,1.08239X$1,22.5*%
G01*
%ADD10C,2.000000*%
%ADD11C,2.540000*%
%ADD12R,2.000000X2.000000*%
%ADD13C,3.316000*%
%ADD14C,1.428000*%
%ADD15C,0.152400*%
%ADD16C,0.756400*%


D10*
X1524116Y691132D03*
X1549516Y691132D03*
X1574916Y691132D03*
X1600316Y691132D03*
X1625716Y691132D03*
X1651116Y691132D03*
X1676516Y691132D03*
X1701916Y691132D03*
X1727316Y691132D03*
X1752716Y691132D03*
X1778116Y691132D03*
X1803516Y691132D03*
X1524116Y842332D03*
X1549516Y842332D03*
X1574916Y842332D03*
X1600316Y842332D03*
X1625716Y842332D03*
X1651116Y842332D03*
X1676516Y842332D03*
X1701916Y842332D03*
X1727316Y842332D03*
X1752716Y842332D03*
X1778116Y842332D03*
X1803516Y842332D03*
D11*
X152400Y977900D03*
X215900Y1003300D03*
X342900Y977900D03*
X406400Y1003300D03*
X533400Y977900D03*
X596900Y1003300D03*
X723900Y977900D03*
X787400Y1003300D03*
X914400Y977900D03*
X977900Y1003300D03*
X1104900Y977900D03*
X1168400Y1003300D03*
X1295400Y977900D03*
X1358900Y1003300D03*
X1485900Y977900D03*
X1549400Y1003300D03*
X1676400Y977900D03*
X1739900Y1003300D03*
X1866900Y977900D03*
X1930400Y1003300D03*
X2057400Y977900D03*
X2120900Y1003300D03*
X2247900Y977900D03*
X2311400Y1003300D03*
X200025Y787400D03*
X263525Y812800D03*
X438150Y787400D03*
X501650Y812800D03*
X628650Y787400D03*
X692150Y812800D03*
X819150Y787400D03*
X882650Y812800D03*
X1009650Y787400D03*
X1073150Y812800D03*
X1200150Y787400D03*
X1263650Y812800D03*
X1390650Y787400D03*
X1454150Y812800D03*
X1581150Y787400D03*
X1644650Y812800D03*
X1771650Y787400D03*
X1835150Y812800D03*
X1962150Y787400D03*
X2025650Y812800D03*
X2152650Y787400D03*
X2216150Y812800D03*
X2343150Y787400D03*
X2406650Y812800D03*
X2533650Y787400D03*
X2597150Y812800D03*
X223838Y596900D03*
X287338Y622300D03*
X485775Y596900D03*
X549275Y622300D03*
X676275Y596900D03*
X739775Y622300D03*
X866775Y596900D03*
X930275Y622300D03*
X1057275Y596900D03*
X1120775Y622300D03*
X1247775Y596900D03*
X1311275Y622300D03*
X1438275Y596900D03*
X1501775Y622300D03*
X1628775Y596900D03*
X1692275Y622300D03*
X1819275Y596900D03*
X1882775Y622300D03*
X2009775Y596900D03*
X2073275Y622300D03*
X2200275Y596900D03*
X2263775Y622300D03*
X2390775Y596900D03*
X2454275Y622300D03*
X581025Y406400D03*
X644525Y431800D03*
X771525Y406400D03*
X835025Y431800D03*
X962025Y406400D03*
X1025525Y431800D03*
X1152525Y406400D03*
X1216025Y431800D03*
X1343025Y406400D03*
X1406525Y431800D03*
X1533525Y406400D03*
X1597025Y431800D03*
X1724025Y406400D03*
X1787525Y431800D03*
X1914525Y406400D03*
X1978025Y431800D03*
X2105025Y406400D03*
X2168525Y431800D03*
X2295525Y406400D03*
X2359025Y431800D03*
X2771775Y787400D03*
X2835275Y812800D03*
X176213Y215900D03*
X239713Y241300D03*
X414338Y215900D03*
X477838Y241300D03*
X652463Y215900D03*
X715963Y241300D03*
X1724025Y215900D03*
X1787525Y241300D03*
X1914525Y215900D03*
X1978025Y241300D03*
X2105025Y215900D03*
X2168525Y241300D03*
X2295525Y215900D03*
X2359025Y241300D03*
X271463Y406400D03*
X334963Y431800D03*
X1176338Y215900D03*
X1239838Y241300D03*
X1533525Y215900D03*
X1597025Y241300D03*
D12*
X285750Y1000700D03*
D10*
X285750Y904300D03*
D12*
X476250Y1000700D03*
D10*
X476250Y904300D03*
D12*
X666750Y1000700D03*
D10*
X666750Y904300D03*
D12*
X857250Y1000700D03*
D10*
X857250Y904300D03*
D12*
X1047750Y1000700D03*
D10*
X1047750Y904300D03*
D12*
X1238250Y1000700D03*
D10*
X1238250Y904300D03*
D12*
X1428750Y1000700D03*
D10*
X1428750Y904300D03*
D12*
X1619250Y1000700D03*
D10*
X1619250Y904300D03*
D12*
X1809750Y1000700D03*
D10*
X1809750Y904300D03*
D12*
X2000250Y1000700D03*
D10*
X2000250Y904300D03*
D12*
X2190750Y1000700D03*
D10*
X2190750Y904300D03*
D12*
X2381250Y1000700D03*
D10*
X2381250Y904300D03*
D12*
X2571750Y1000700D03*
D10*
X2571750Y904300D03*
D12*
X333375Y810200D03*
D10*
X333375Y713800D03*
D12*
X571500Y810200D03*
D10*
X571500Y713800D03*
D12*
X762000Y810200D03*
D10*
X762000Y713800D03*
D12*
X952500Y810200D03*
D10*
X952500Y713800D03*
D12*
X1143000Y810200D03*
D10*
X1143000Y713800D03*
D12*
X1333500Y810200D03*
D10*
X1333500Y713800D03*
D12*
X1524000Y810200D03*
D10*
X1524000Y713800D03*
D12*
X1714500Y810200D03*
D10*
X1714500Y713800D03*
D12*
X1905000Y810200D03*
D10*
X1905000Y713800D03*
D12*
X2095500Y810200D03*
D10*
X2095500Y713800D03*
D12*
X2286000Y810200D03*
D10*
X2286000Y713800D03*
D12*
X2476500Y810200D03*
D10*
X2476500Y713800D03*
D12*
X2667000Y810200D03*
D10*
X2667000Y713800D03*
D12*
X381000Y619700D03*
D10*
X381000Y523300D03*
D12*
X619125Y619700D03*
D10*
X619125Y523300D03*
D12*
X809625Y619700D03*
D10*
X809625Y523300D03*
D12*
X1000125Y619700D03*
D10*
X1000125Y523300D03*
D12*
X1190625Y619700D03*
D10*
X1190625Y523300D03*
D12*
X1381125Y619700D03*
D10*
X1381125Y523300D03*
D12*
X1571625Y619700D03*
D10*
X1571625Y523300D03*
D12*
X1762125Y619700D03*
D10*
X1762125Y523300D03*
D12*
X1952625Y619700D03*
D10*
X1952625Y523300D03*
D12*
X2143125Y619700D03*
D10*
X2143125Y523300D03*
D12*
X2333625Y619700D03*
D10*
X2333625Y523300D03*
D12*
X2524125Y619700D03*
D10*
X2524125Y523300D03*
D12*
X2547938Y619700D03*
D10*
X2547938Y523300D03*
D12*
X500063Y429200D03*
D10*
X500063Y332800D03*
D12*
X714375Y429200D03*
D10*
X714375Y332800D03*
D12*
X904875Y429200D03*
D10*
X904875Y332800D03*
D12*
X1095375Y429200D03*
D10*
X1095375Y332800D03*
D12*
X1285875Y429200D03*
D10*
X1285875Y332800D03*
D12*
X1476375Y429200D03*
D10*
X1476375Y332800D03*
D12*
X1666875Y429200D03*
D10*
X1666875Y332800D03*
D12*
X1857375Y429200D03*
D10*
X1857375Y332800D03*
D12*
X2047875Y429200D03*
D10*
X2047875Y332800D03*
D12*
X2238375Y429200D03*
D10*
X2238375Y332800D03*
D12*
X2428875Y429200D03*
D10*
X2428875Y332800D03*
D12*
X2714625Y810200D03*
D10*
X2714625Y713800D03*
D12*
X309563Y238700D03*
D10*
X309563Y142300D03*
D12*
X547688Y238700D03*
D10*
X547688Y142300D03*
D12*
X785813Y238700D03*
D10*
X785813Y142300D03*
D12*
X1023938Y238700D03*
D10*
X1023938Y142300D03*
D12*
X1666875Y238700D03*
D10*
X1666875Y142300D03*
D12*
X1857375Y238700D03*
D10*
X1857375Y142300D03*
D12*
X2047875Y238700D03*
D10*
X2047875Y142300D03*
D12*
X2238375Y238700D03*
D10*
X2238375Y142300D03*
D12*
X2428875Y238700D03*
D10*
X2428875Y142300D03*
D11*
X2724150Y977900D03*
X2787650Y1003300D03*
D12*
X2595563Y1000700D03*
D10*
X2595563Y904300D03*
D11*
X2438400Y977900D03*
X2501900Y1003300D03*
X2700338Y596900D03*
X2763838Y622300D03*
D13*
X1589700Y1086388D03*
X1458300Y1086388D03*
D14*
X1514000Y1059288D03*
X1534000Y1059288D03*
X1489000Y1059288D03*
X1559000Y1059288D03*
D11*
X2509838Y406400D03*
X2573338Y431800D03*
X2509838Y215900D03*
X2573338Y241300D03*
D12*
X2452688Y429200D03*
D10*
X2452688Y332800D03*
D12*
X2452688Y238700D03*
D10*
X2452688Y142300D03*
D15*
X1809750Y853474D02*
X1809750Y904300D01*
X1809750Y853474D02*
X1815802Y847421D01*
X1765443Y802386D02*
X1739528Y776471D01*
X1739528Y722532D01*
X1753850Y708210D01*
X1815802Y837243D02*
X1815802Y847421D01*
X1815802Y837243D02*
X1780945Y802386D01*
X1765443Y802386D01*
X1786438Y708210D02*
X1803516Y691132D01*
X1786438Y708210D02*
X1753850Y708210D01*
X1722227Y678846D02*
X1715030Y686043D01*
X1770091Y691132D02*
X1778116Y691132D01*
X1715030Y713270D02*
X1714500Y713800D01*
X1757805Y678846D02*
X1770091Y691132D01*
X1715030Y686043D02*
X1715030Y713270D01*
X1722227Y678846D02*
X1757805Y678846D01*
X1701916Y691132D02*
X1701916Y633852D01*
X1737097Y548328D02*
X1762125Y523300D01*
X1737097Y598671D02*
X1701916Y633852D01*
X1737097Y598671D02*
X1737097Y548328D01*
X1666875Y405967D02*
X1666875Y332800D01*
X1666875Y405967D02*
X1679161Y418253D01*
X1596653Y611269D02*
X1676516Y691132D01*
X1596653Y611269D02*
X1596653Y563455D01*
X1679161Y480947D02*
X1679161Y418253D01*
X1679161Y480947D02*
X1596653Y563455D01*
X2501900Y970830D02*
X2501900Y1003300D01*
X2501900Y970830D02*
X2507422Y965308D01*
X2507422Y902528D02*
X2597150Y812800D01*
X2507422Y902528D02*
X2507422Y965308D01*
X2679286Y706852D02*
X2763838Y622300D01*
X2679286Y732731D02*
X2599217Y812800D01*
X2597150Y812800D01*
X2679286Y732731D02*
X2679286Y706852D01*
X2835275Y812800D02*
X2840797Y807278D01*
X2840797Y699260D01*
X2763838Y622300D01*
X2793172Y965308D02*
X2787650Y970830D01*
X2787650Y1003300D01*
X2793172Y854903D02*
X2835275Y812800D01*
X2793172Y854903D02*
X2793172Y965308D01*
X1723584Y864000D02*
X1701916Y842332D01*
X1723584Y864000D02*
X1794000Y864000D01*
D16*
X1794000Y864000D03*
D15*
X2311400Y970830D02*
X2311400Y1003300D01*
X2311400Y970830D02*
X2316922Y965308D01*
X2316922Y902528D02*
X2406650Y812800D01*
X2316922Y902528D02*
X2316922Y965308D01*
X2406650Y812800D02*
X2406650Y780330D01*
X2412172Y774808D01*
X2412172Y664403D02*
X2454275Y622300D01*
X2412172Y664403D02*
X2412172Y774808D01*
X2454275Y622300D02*
X2454275Y589830D01*
X2459797Y584308D01*
X2459797Y545341D02*
X2573338Y431800D01*
X2459797Y545341D02*
X2459797Y584308D01*
X2573338Y431800D02*
X2573338Y399330D01*
X2578860Y393808D01*
X2578860Y245235D01*
X2571750Y238125D01*
X2571750Y239713D01*
X2573338Y241300D01*
X2120900Y970830D02*
X2120900Y1003300D01*
X2120900Y970830D02*
X2126422Y965308D01*
X2126422Y902528D02*
X2216150Y812800D01*
X2126422Y902528D02*
X2126422Y965308D01*
X2216150Y812800D02*
X2216150Y780330D01*
X2221672Y774808D01*
X2221672Y664403D02*
X2263775Y622300D01*
X2221672Y664403D02*
X2221672Y774808D01*
X2263775Y622300D02*
X2263775Y589830D01*
X2269297Y584308D01*
X2269297Y521528D02*
X2359025Y431800D01*
X2269297Y521528D02*
X2269297Y584308D01*
X2359025Y431800D02*
X2359025Y399330D01*
X2364547Y393808D01*
X2364547Y245235D01*
X2357438Y238125D01*
X2357438Y239713D01*
X2359025Y241300D01*
X2417655Y933078D02*
X2406278Y944455D01*
X2567130Y226314D02*
X2579545Y226314D01*
X2477716Y167328D02*
X2452688Y142300D01*
X2406278Y944455D02*
X2406278Y966971D01*
X2602672Y661747D02*
X2588516Y647591D01*
X2588516Y418689D01*
X2618160Y389045D01*
X2477716Y204971D02*
X2477716Y167328D01*
X2618160Y264929D02*
X2618160Y389045D01*
X2618160Y264929D02*
X2579545Y226314D01*
X2567130Y226314D02*
X2562558Y230886D01*
X2503630Y230886D01*
X2477716Y204971D01*
X2583277Y892014D02*
X2595563Y904300D01*
X2583277Y892014D02*
X2566661Y892014D01*
X2546722Y911953D01*
X2444402Y933078D02*
X2417655Y933078D01*
X2444402Y933078D02*
X2602672Y774808D01*
X2602672Y661747D01*
X2546722Y911953D02*
X2546722Y979671D01*
X2508107Y1018286D01*
X2457593Y1018286D01*
X2406278Y966971D01*
X1651116Y158059D02*
X1666875Y142300D01*
X1651116Y691132D02*
X1650142Y691132D01*
X1587494Y628484D01*
X1587494Y531268D01*
X1651116Y467646D02*
X1651116Y158059D01*
X1651116Y467646D02*
X1587494Y531268D01*
X1930400Y970830D02*
X1930400Y1003300D01*
X1930400Y970830D02*
X1935922Y965308D01*
X1935922Y902528D02*
X2025650Y812800D01*
X1935922Y902528D02*
X1935922Y965308D01*
X2025650Y812800D02*
X2025650Y780330D01*
X2031172Y774808D01*
X2031172Y664403D02*
X2073275Y622300D01*
X2031172Y664403D02*
X2031172Y774808D01*
X2168525Y431800D02*
X2168525Y399330D01*
X2174047Y393808D01*
X2174047Y245235D01*
X2166938Y238125D01*
X2073275Y589830D02*
X2073275Y622300D01*
X2073275Y589830D02*
X2078797Y584308D01*
X2078797Y521528D02*
X2168525Y431800D01*
X2078797Y521528D02*
X2078797Y584308D01*
X2168525Y241300D02*
X2168525Y239713D01*
X2166938Y238125D01*
X1835150Y780330D02*
X1835150Y812800D01*
X1835150Y780330D02*
X1840672Y774808D01*
X1840672Y664403D02*
X1882775Y622300D01*
X1840672Y664403D02*
X1840672Y774808D01*
X1978025Y431800D02*
X1978025Y399330D01*
X1983547Y393808D01*
X1983547Y245235D01*
X1976438Y238125D01*
X1976438Y239713D01*
X1978025Y241300D01*
X1882775Y589830D02*
X1882775Y622300D01*
X1882775Y589830D02*
X1888297Y584308D01*
X1888297Y521528D02*
X1978025Y431800D01*
X1888297Y521528D02*
X1888297Y584308D01*
X1771278Y971922D02*
X1739900Y1003300D01*
X1771278Y971922D02*
X1773345Y971922D01*
X1835150Y910117D01*
X1835150Y812800D01*
X1727308Y921578D02*
X1745422Y939692D01*
X1679562Y921578D02*
X1600316Y842332D01*
X1745422Y939692D02*
X1745422Y965308D01*
X1727308Y921578D02*
X1679562Y921578D01*
X1739900Y970830D02*
X1745422Y965308D01*
X1739900Y970830D02*
X1739900Y1003300D01*
X1549400Y1003300D02*
X1549400Y970830D01*
X1554922Y965308D01*
X1692275Y622300D02*
X1692275Y618000D01*
X1692275Y589830D01*
X1697797Y584308D01*
X1697797Y521528D02*
X1787525Y431800D01*
X1697797Y521528D02*
X1697797Y584308D01*
X1787525Y431800D02*
X1787525Y399330D01*
X1793047Y393808D01*
X1793047Y245235D01*
X1785938Y238125D01*
X1785938Y239713D01*
X1787525Y241300D01*
X1574916Y842332D02*
X1554922Y862326D01*
X1554922Y965308D01*
X1627404Y830046D02*
X1644650Y812800D01*
X1582941Y842332D02*
X1574916Y842332D01*
X1582941Y842332D02*
X1595227Y830046D01*
X1627404Y830046D01*
X1644650Y812800D02*
X1646650Y812800D01*
X1678028Y781422D01*
X1678095Y781422D01*
X1689630Y686043D02*
X1692275Y683398D01*
X1692275Y618000D01*
X1689630Y769887D02*
X1678095Y781422D01*
X1689630Y769887D02*
X1689630Y686043D01*
X1358900Y970830D02*
X1358900Y1003300D01*
X1358900Y970830D02*
X1364422Y965308D01*
X1364422Y902528D02*
X1454150Y812800D01*
X1364422Y902528D02*
X1364422Y965308D01*
X1454150Y812800D02*
X1454150Y780330D01*
X1459672Y774808D01*
X1459672Y664403D02*
X1501775Y622300D01*
X1459672Y664403D02*
X1459672Y774808D01*
X1501775Y622300D02*
X1501775Y589830D01*
X1507297Y584308D01*
X1507297Y521528D02*
X1597025Y431800D01*
X1507297Y521528D02*
X1507297Y584308D01*
X1597025Y431800D02*
X1597025Y399330D01*
X1602547Y393808D01*
X1602547Y245235D01*
X1595438Y238125D01*
X1595438Y239713D01*
X1597025Y241300D01*
X1390278Y971922D02*
X1358900Y1003300D01*
X1541491Y842332D02*
X1549516Y842332D01*
X1411902Y971922D02*
X1390278Y971922D01*
X1411902Y971922D02*
X1541491Y842332D01*
X1199778Y971922D02*
X1168400Y1003300D01*
X1199778Y971922D02*
X1201845Y971922D01*
X1263650Y910117D01*
X1263650Y812800D01*
X1263650Y780330D01*
X1269172Y774808D01*
X1269172Y664403D02*
X1311275Y622300D01*
X1269172Y664403D02*
X1269172Y774808D01*
X1311275Y622300D02*
X1311275Y589830D01*
X1316797Y584308D01*
X1316797Y521528D02*
X1406525Y431800D01*
X1316797Y521528D02*
X1316797Y584308D01*
X1009278Y971922D02*
X977900Y1003300D01*
X1009278Y971922D02*
X1011345Y971922D01*
X1073150Y910117D01*
X1073150Y812800D01*
X1073150Y780330D01*
X1078672Y774808D01*
X1078672Y664403D02*
X1120775Y622300D01*
X1078672Y664403D02*
X1078672Y774808D01*
X1120775Y622300D02*
X1120775Y589830D01*
X1126297Y584308D01*
X1126297Y521528D02*
X1216025Y431800D01*
X1126297Y521528D02*
X1126297Y584308D01*
X787400Y970830D02*
X787400Y1003300D01*
X787400Y970830D02*
X792922Y965308D01*
X792922Y902528D02*
X882650Y812800D01*
X792922Y902528D02*
X792922Y965308D01*
X882650Y812800D02*
X882650Y780330D01*
X888172Y774808D01*
X888172Y664403D02*
X930275Y622300D01*
X888172Y664403D02*
X888172Y774808D01*
X930275Y622300D02*
X930275Y589830D01*
X935797Y584308D01*
X935797Y521528D02*
X1025525Y431800D01*
X935797Y521528D02*
X935797Y584308D01*
X1025525Y431800D02*
X1056903Y400422D01*
X1058970Y400422D01*
X1218092Y241300D02*
X1239838Y241300D01*
X1218092Y241300D02*
X1058970Y400422D01*
X1549516Y492484D02*
X1549516Y691132D01*
X1549516Y492484D02*
X1550000Y492000D01*
D16*
X1550000Y492000D03*
D15*
X596900Y970830D02*
X596900Y1003300D01*
X596900Y970830D02*
X602422Y965308D01*
X602422Y902528D02*
X692150Y812800D01*
X602422Y902528D02*
X602422Y965308D01*
X692150Y812800D02*
X692150Y780330D01*
X697672Y774808D01*
X697672Y664403D02*
X739775Y622300D01*
X697672Y664403D02*
X697672Y774808D01*
X739775Y622300D02*
X739775Y589830D01*
X745297Y584308D01*
X745297Y521528D02*
X835025Y431800D01*
X745297Y521528D02*
X745297Y584308D01*
X835025Y431800D02*
X835025Y399330D01*
X840547Y393808D01*
X840547Y365885D01*
X715963Y241300D01*
X406400Y970830D02*
X406400Y1003300D01*
X406400Y970830D02*
X411922Y965308D01*
X411922Y902528D02*
X501650Y812800D01*
X411922Y902528D02*
X411922Y965308D01*
X501650Y812800D02*
X501650Y780330D01*
X507172Y774808D01*
X507172Y664403D02*
X549275Y622300D01*
X507172Y664403D02*
X507172Y774808D01*
X550808Y622300D02*
X552967Y620141D01*
X550808Y622300D02*
X549275Y622300D01*
X552967Y620141D02*
X553501Y620141D01*
X644525Y529117D01*
X644525Y431800D01*
X650047Y393808D02*
X650047Y368192D01*
X631933Y350078D01*
X644525Y399330D02*
X644525Y431800D01*
X644525Y399330D02*
X650047Y393808D01*
X586616Y350078D02*
X477838Y241300D01*
X586616Y350078D02*
X631933Y350078D01*
D16*
X1488000Y670000D03*
D15*
X1520000Y670000D01*
X1542000Y648000D01*
D16*
X1542000Y648000D03*
D15*
X215900Y970830D02*
X215900Y1003300D01*
X215900Y970830D02*
X221422Y965308D01*
X221422Y854903D02*
X263525Y812800D01*
X221422Y854903D02*
X221422Y965308D01*
X263525Y812800D02*
X263525Y780330D01*
X269047Y774808D01*
X269047Y640591D02*
X287338Y622300D01*
X269047Y640591D02*
X269047Y774808D01*
X287338Y622300D02*
X287338Y589830D01*
X292860Y584308D01*
X292860Y473903D02*
X334963Y431800D01*
X292860Y473903D02*
X292860Y584308D01*
X334963Y431800D02*
X334963Y399330D01*
X340485Y393808D01*
X340485Y342072D01*
X239713Y241300D01*
D16*
X1624000Y294000D03*
D15*
X1624000Y355108D01*
X1641847Y372955D01*
X1641847Y472181D01*
X1584141Y529887D01*
X1584141Y649557D01*
X1625716Y691132D01*
X1771305Y842332D02*
X1778116Y842332D01*
X1771305Y842332D02*
X1727438Y798465D01*
X1727438Y717398D01*
X1752716Y692119D01*
X1752716Y691132D01*
X1727316Y691132D01*
M02*
