G04 EAGLE Gerber RS-274X export*
G75*
%MOMM*%
%FSLAX34Y34*%
%LPD*%
%INSilkscreen Bottom*%
%IPPOS*%
%AMOC8*
5,1,8,0,0,1.08239X$1,22.5*%
G01*
%ADD10C,0.127000*%
%ADD11C,0.250000*%
%ADD12C,0.177800*%


D10*
X1511416Y678432D02*
X1816216Y678432D01*
X1816216Y679632D02*
X1816216Y855032D01*
X1511416Y855032D01*
D11*
X1511416Y679632D01*
X1816316Y797332D02*
X1821316Y797332D01*
X1821316Y737332D02*
X1816316Y737332D01*
D12*
X1745427Y715721D02*
X1734505Y715721D01*
X1745427Y715721D02*
X1745427Y718755D01*
X1745425Y718863D01*
X1745419Y718971D01*
X1745410Y719079D01*
X1745396Y719187D01*
X1745379Y719294D01*
X1745358Y719400D01*
X1745333Y719505D01*
X1745304Y719610D01*
X1745272Y719713D01*
X1745236Y719815D01*
X1745196Y719916D01*
X1745153Y720015D01*
X1745106Y720113D01*
X1745056Y720209D01*
X1745002Y720303D01*
X1744945Y720395D01*
X1744885Y720485D01*
X1744822Y720573D01*
X1744755Y720659D01*
X1744686Y720742D01*
X1744614Y720822D01*
X1744538Y720900D01*
X1744460Y720976D01*
X1744380Y721048D01*
X1744297Y721117D01*
X1744211Y721184D01*
X1744123Y721247D01*
X1744033Y721307D01*
X1743941Y721364D01*
X1743847Y721418D01*
X1743751Y721468D01*
X1743653Y721515D01*
X1743554Y721558D01*
X1743453Y721598D01*
X1743351Y721634D01*
X1743248Y721666D01*
X1743143Y721695D01*
X1743038Y721720D01*
X1742932Y721741D01*
X1742825Y721758D01*
X1742717Y721772D01*
X1742609Y721781D01*
X1742501Y721787D01*
X1742393Y721789D01*
X1742285Y721787D01*
X1742177Y721781D01*
X1742069Y721772D01*
X1741961Y721758D01*
X1741854Y721741D01*
X1741748Y721720D01*
X1741643Y721695D01*
X1741538Y721666D01*
X1741435Y721634D01*
X1741333Y721598D01*
X1741232Y721558D01*
X1741133Y721515D01*
X1741035Y721468D01*
X1740939Y721418D01*
X1740845Y721364D01*
X1740753Y721307D01*
X1740663Y721247D01*
X1740575Y721184D01*
X1740489Y721117D01*
X1740406Y721048D01*
X1740326Y720976D01*
X1740248Y720900D01*
X1740172Y720822D01*
X1740100Y720742D01*
X1740031Y720659D01*
X1739964Y720573D01*
X1739901Y720485D01*
X1739841Y720395D01*
X1739784Y720303D01*
X1739730Y720209D01*
X1739680Y720113D01*
X1739633Y720015D01*
X1739590Y719916D01*
X1739550Y719815D01*
X1739514Y719713D01*
X1739482Y719610D01*
X1739453Y719505D01*
X1739428Y719400D01*
X1739407Y719294D01*
X1739390Y719187D01*
X1739376Y719079D01*
X1739367Y718971D01*
X1739361Y718863D01*
X1739359Y718755D01*
X1739359Y715721D01*
X1745427Y726241D02*
X1734505Y728668D01*
X1741787Y731095D01*
X1734505Y733522D01*
X1745427Y735949D01*
X1745427Y741498D02*
X1734505Y741498D01*
X1745427Y741498D02*
X1745427Y744531D01*
X1745425Y744639D01*
X1745419Y744747D01*
X1745410Y744855D01*
X1745396Y744963D01*
X1745379Y745070D01*
X1745358Y745176D01*
X1745333Y745281D01*
X1745304Y745386D01*
X1745272Y745489D01*
X1745236Y745591D01*
X1745196Y745692D01*
X1745153Y745791D01*
X1745106Y745889D01*
X1745056Y745985D01*
X1745002Y746079D01*
X1744945Y746171D01*
X1744885Y746261D01*
X1744822Y746349D01*
X1744755Y746435D01*
X1744686Y746518D01*
X1744614Y746598D01*
X1744538Y746676D01*
X1744460Y746752D01*
X1744380Y746824D01*
X1744297Y746893D01*
X1744211Y746960D01*
X1744123Y747023D01*
X1744033Y747083D01*
X1743941Y747140D01*
X1743847Y747194D01*
X1743751Y747244D01*
X1743653Y747291D01*
X1743554Y747334D01*
X1743453Y747374D01*
X1743351Y747410D01*
X1743248Y747442D01*
X1743143Y747471D01*
X1743038Y747496D01*
X1742932Y747517D01*
X1742825Y747534D01*
X1742717Y747548D01*
X1742609Y747557D01*
X1742501Y747563D01*
X1742393Y747565D01*
X1742285Y747563D01*
X1742177Y747557D01*
X1742069Y747548D01*
X1741961Y747534D01*
X1741854Y747517D01*
X1741748Y747496D01*
X1741643Y747471D01*
X1741538Y747442D01*
X1741435Y747410D01*
X1741333Y747374D01*
X1741232Y747334D01*
X1741133Y747291D01*
X1741035Y747244D01*
X1740939Y747194D01*
X1740845Y747140D01*
X1740753Y747083D01*
X1740663Y747023D01*
X1740575Y746960D01*
X1740489Y746893D01*
X1740406Y746824D01*
X1740326Y746752D01*
X1740248Y746676D01*
X1740172Y746598D01*
X1740100Y746518D01*
X1740031Y746435D01*
X1739964Y746349D01*
X1739901Y746261D01*
X1739841Y746171D01*
X1739784Y746079D01*
X1739730Y745985D01*
X1739680Y745889D01*
X1739633Y745791D01*
X1739590Y745692D01*
X1739550Y745591D01*
X1739514Y745489D01*
X1739482Y745386D01*
X1739453Y745281D01*
X1739428Y745176D01*
X1739407Y745070D01*
X1739390Y744963D01*
X1739376Y744855D01*
X1739367Y744747D01*
X1739361Y744639D01*
X1739359Y744531D01*
X1739359Y741498D01*
X1739359Y745138D02*
X1734505Y747565D01*
X1540427Y715721D02*
X1529505Y715721D01*
X1540427Y715721D02*
X1540427Y718755D01*
X1540425Y718863D01*
X1540419Y718971D01*
X1540410Y719079D01*
X1540396Y719187D01*
X1540379Y719294D01*
X1540358Y719400D01*
X1540333Y719505D01*
X1540304Y719610D01*
X1540272Y719713D01*
X1540236Y719815D01*
X1540196Y719916D01*
X1540153Y720015D01*
X1540106Y720113D01*
X1540056Y720209D01*
X1540002Y720303D01*
X1539945Y720395D01*
X1539885Y720485D01*
X1539822Y720573D01*
X1539755Y720659D01*
X1539686Y720742D01*
X1539614Y720822D01*
X1539538Y720900D01*
X1539460Y720976D01*
X1539380Y721048D01*
X1539297Y721117D01*
X1539211Y721184D01*
X1539123Y721247D01*
X1539033Y721307D01*
X1538941Y721364D01*
X1538847Y721418D01*
X1538751Y721468D01*
X1538653Y721515D01*
X1538554Y721558D01*
X1538453Y721598D01*
X1538351Y721634D01*
X1538248Y721666D01*
X1538143Y721695D01*
X1538038Y721720D01*
X1537932Y721741D01*
X1537825Y721758D01*
X1537717Y721772D01*
X1537609Y721781D01*
X1537501Y721787D01*
X1537393Y721789D01*
X1537285Y721787D01*
X1537177Y721781D01*
X1537069Y721772D01*
X1536961Y721758D01*
X1536854Y721741D01*
X1536748Y721720D01*
X1536643Y721695D01*
X1536538Y721666D01*
X1536435Y721634D01*
X1536333Y721598D01*
X1536232Y721558D01*
X1536133Y721515D01*
X1536035Y721468D01*
X1535939Y721418D01*
X1535845Y721364D01*
X1535753Y721307D01*
X1535663Y721247D01*
X1535575Y721184D01*
X1535489Y721117D01*
X1535406Y721048D01*
X1535326Y720976D01*
X1535248Y720900D01*
X1535172Y720822D01*
X1535100Y720742D01*
X1535031Y720659D01*
X1534964Y720573D01*
X1534901Y720485D01*
X1534841Y720395D01*
X1534784Y720303D01*
X1534730Y720209D01*
X1534680Y720113D01*
X1534633Y720015D01*
X1534590Y719916D01*
X1534550Y719815D01*
X1534514Y719713D01*
X1534482Y719610D01*
X1534453Y719505D01*
X1534428Y719400D01*
X1534407Y719294D01*
X1534390Y719187D01*
X1534376Y719079D01*
X1534367Y718971D01*
X1534361Y718863D01*
X1534359Y718755D01*
X1534359Y715721D01*
X1534359Y719362D02*
X1529505Y721789D01*
X1529505Y726443D02*
X1540427Y733725D01*
X1540427Y726443D02*
X1529505Y733725D01*
X1529505Y806255D02*
X1540427Y806255D01*
X1540427Y803221D02*
X1540427Y809289D01*
X1540427Y820564D02*
X1529505Y813282D01*
X1529505Y820564D02*
X1540427Y813282D01*
X1530084Y671443D02*
X1530084Y663555D01*
X1530082Y663447D01*
X1530076Y663339D01*
X1530067Y663231D01*
X1530053Y663123D01*
X1530036Y663016D01*
X1530015Y662910D01*
X1529990Y662805D01*
X1529961Y662700D01*
X1529929Y662597D01*
X1529893Y662495D01*
X1529853Y662394D01*
X1529810Y662295D01*
X1529763Y662197D01*
X1529713Y662101D01*
X1529659Y662007D01*
X1529602Y661915D01*
X1529542Y661825D01*
X1529479Y661737D01*
X1529412Y661651D01*
X1529343Y661568D01*
X1529271Y661488D01*
X1529195Y661410D01*
X1529117Y661334D01*
X1529037Y661262D01*
X1528954Y661193D01*
X1528868Y661126D01*
X1528780Y661063D01*
X1528690Y661003D01*
X1528598Y660946D01*
X1528504Y660892D01*
X1528408Y660842D01*
X1528310Y660795D01*
X1528211Y660752D01*
X1528110Y660712D01*
X1528008Y660676D01*
X1527905Y660644D01*
X1527800Y660615D01*
X1527695Y660590D01*
X1527589Y660569D01*
X1527482Y660552D01*
X1527374Y660538D01*
X1527266Y660529D01*
X1527158Y660523D01*
X1527050Y660521D01*
X1526942Y660523D01*
X1526834Y660529D01*
X1526726Y660538D01*
X1526618Y660552D01*
X1526511Y660569D01*
X1526405Y660590D01*
X1526300Y660615D01*
X1526195Y660644D01*
X1526092Y660676D01*
X1525990Y660712D01*
X1525889Y660752D01*
X1525790Y660795D01*
X1525692Y660842D01*
X1525596Y660892D01*
X1525502Y660946D01*
X1525410Y661003D01*
X1525320Y661063D01*
X1525232Y661126D01*
X1525146Y661193D01*
X1525063Y661262D01*
X1524983Y661334D01*
X1524905Y661410D01*
X1524829Y661488D01*
X1524757Y661568D01*
X1524688Y661651D01*
X1524621Y661737D01*
X1524558Y661825D01*
X1524498Y661915D01*
X1524441Y662007D01*
X1524387Y662101D01*
X1524337Y662197D01*
X1524290Y662295D01*
X1524247Y662394D01*
X1524207Y662495D01*
X1524171Y662597D01*
X1524139Y662700D01*
X1524110Y662805D01*
X1524085Y662910D01*
X1524064Y663016D01*
X1524047Y663123D01*
X1524033Y663231D01*
X1524024Y663339D01*
X1524018Y663447D01*
X1524016Y663555D01*
X1524016Y671443D01*
X1518273Y669016D02*
X1515239Y671443D01*
X1515239Y660521D01*
X1518273Y660521D02*
X1512205Y660521D01*
D10*
X200362Y920135D02*
X196482Y920135D01*
X200362Y920135D02*
X200362Y928865D01*
X196482Y928865D01*
X197452Y924985D02*
X200362Y924985D01*
X190275Y920135D02*
X190188Y920137D01*
X190101Y920143D01*
X190015Y920153D01*
X189929Y920166D01*
X189843Y920184D01*
X189759Y920205D01*
X189676Y920230D01*
X189593Y920259D01*
X189513Y920291D01*
X189433Y920327D01*
X189356Y920367D01*
X189280Y920410D01*
X189206Y920456D01*
X189135Y920506D01*
X189065Y920558D01*
X188999Y920614D01*
X188934Y920673D01*
X188873Y920734D01*
X188814Y920799D01*
X188758Y920865D01*
X188706Y920935D01*
X188656Y921006D01*
X188610Y921080D01*
X188567Y921156D01*
X188527Y921233D01*
X188491Y921313D01*
X188459Y921393D01*
X188430Y921476D01*
X188405Y921559D01*
X188384Y921643D01*
X188366Y921729D01*
X188353Y921815D01*
X188343Y921901D01*
X188337Y921988D01*
X188335Y922075D01*
X190275Y920135D02*
X190399Y920137D01*
X190524Y920143D01*
X190648Y920152D01*
X190772Y920165D01*
X190895Y920182D01*
X191018Y920203D01*
X191140Y920227D01*
X191261Y920255D01*
X191381Y920287D01*
X191500Y920323D01*
X191619Y920362D01*
X191736Y920404D01*
X191851Y920450D01*
X191965Y920500D01*
X192078Y920553D01*
X192189Y920609D01*
X192298Y920669D01*
X192405Y920732D01*
X192511Y920798D01*
X192614Y920868D01*
X192715Y920940D01*
X192814Y921016D01*
X192910Y921095D01*
X193004Y921176D01*
X193096Y921260D01*
X193185Y921347D01*
X192942Y926925D02*
X192940Y927012D01*
X192934Y927099D01*
X192924Y927185D01*
X192911Y927271D01*
X192893Y927357D01*
X192872Y927441D01*
X192847Y927524D01*
X192818Y927607D01*
X192786Y927687D01*
X192750Y927767D01*
X192710Y927844D01*
X192667Y927920D01*
X192621Y927994D01*
X192571Y928065D01*
X192519Y928135D01*
X192463Y928201D01*
X192404Y928266D01*
X192343Y928327D01*
X192278Y928386D01*
X192212Y928442D01*
X192142Y928494D01*
X192071Y928544D01*
X191997Y928590D01*
X191921Y928633D01*
X191844Y928673D01*
X191764Y928709D01*
X191684Y928741D01*
X191601Y928770D01*
X191518Y928795D01*
X191434Y928816D01*
X191348Y928834D01*
X191262Y928847D01*
X191176Y928857D01*
X191089Y928863D01*
X191002Y928865D01*
X191002Y928866D02*
X190885Y928864D01*
X190768Y928858D01*
X190651Y928849D01*
X190535Y928836D01*
X190419Y928819D01*
X190304Y928798D01*
X190190Y928774D01*
X190076Y928746D01*
X189963Y928715D01*
X189852Y928679D01*
X189741Y928641D01*
X189632Y928598D01*
X189524Y928552D01*
X189418Y928503D01*
X189314Y928450D01*
X189211Y928394D01*
X189110Y928335D01*
X189011Y928273D01*
X188914Y928207D01*
X188819Y928138D01*
X191972Y925228D02*
X192045Y925273D01*
X192115Y925321D01*
X192183Y925371D01*
X192249Y925425D01*
X192313Y925482D01*
X192374Y925541D01*
X192433Y925603D01*
X192489Y925668D01*
X192542Y925734D01*
X192592Y925803D01*
X192639Y925875D01*
X192682Y925948D01*
X192723Y926022D01*
X192761Y926099D01*
X192795Y926177D01*
X192825Y926257D01*
X192852Y926337D01*
X192876Y926419D01*
X192896Y926502D01*
X192913Y926586D01*
X192925Y926670D01*
X192935Y926755D01*
X192940Y926840D01*
X192942Y926925D01*
X189305Y923772D02*
X189232Y923727D01*
X189162Y923679D01*
X189094Y923629D01*
X189028Y923575D01*
X188964Y923518D01*
X188903Y923459D01*
X188844Y923397D01*
X188788Y923332D01*
X188735Y923266D01*
X188685Y923197D01*
X188638Y923125D01*
X188595Y923052D01*
X188554Y922978D01*
X188516Y922901D01*
X188482Y922823D01*
X188452Y922743D01*
X188425Y922663D01*
X188401Y922581D01*
X188381Y922498D01*
X188364Y922414D01*
X188352Y922330D01*
X188342Y922245D01*
X188337Y922160D01*
X188335Y922075D01*
X189305Y923773D02*
X191972Y925228D01*
X182578Y920135D02*
X180638Y920135D01*
X182578Y920135D02*
X182665Y920137D01*
X182752Y920143D01*
X182838Y920153D01*
X182924Y920166D01*
X183010Y920184D01*
X183094Y920205D01*
X183177Y920230D01*
X183260Y920259D01*
X183340Y920291D01*
X183420Y920327D01*
X183497Y920367D01*
X183573Y920410D01*
X183647Y920456D01*
X183718Y920506D01*
X183788Y920558D01*
X183854Y920614D01*
X183919Y920673D01*
X183980Y920734D01*
X184039Y920799D01*
X184095Y920865D01*
X184147Y920935D01*
X184197Y921006D01*
X184243Y921080D01*
X184286Y921156D01*
X184326Y921233D01*
X184362Y921313D01*
X184394Y921393D01*
X184423Y921476D01*
X184448Y921559D01*
X184469Y921643D01*
X184487Y921729D01*
X184500Y921815D01*
X184510Y921901D01*
X184516Y921988D01*
X184518Y922075D01*
X184518Y926925D01*
X184516Y927012D01*
X184510Y927099D01*
X184500Y927185D01*
X184487Y927271D01*
X184469Y927357D01*
X184448Y927441D01*
X184423Y927524D01*
X184394Y927607D01*
X184362Y927687D01*
X184326Y927767D01*
X184286Y927844D01*
X184243Y927920D01*
X184197Y927994D01*
X184147Y928065D01*
X184095Y928135D01*
X184039Y928201D01*
X183980Y928266D01*
X183919Y928327D01*
X183854Y928386D01*
X183788Y928442D01*
X183718Y928494D01*
X183647Y928544D01*
X183573Y928590D01*
X183497Y928633D01*
X183420Y928673D01*
X183340Y928709D01*
X183260Y928741D01*
X183177Y928770D01*
X183094Y928795D01*
X183010Y928816D01*
X182924Y928834D01*
X182838Y928847D01*
X182752Y928857D01*
X182665Y928863D01*
X182578Y928865D01*
X180638Y928865D01*
X381000Y928865D02*
X383425Y926925D01*
X381000Y928865D02*
X381000Y920135D01*
X383425Y920135D02*
X378575Y920135D01*
X569075Y926683D02*
X569077Y926776D01*
X569083Y926868D01*
X569093Y926960D01*
X569106Y927052D01*
X569124Y927143D01*
X569145Y927233D01*
X569171Y927322D01*
X569200Y927410D01*
X569232Y927497D01*
X569269Y927582D01*
X569309Y927666D01*
X569352Y927748D01*
X569399Y927828D01*
X569449Y927905D01*
X569503Y927981D01*
X569560Y928054D01*
X569619Y928125D01*
X569682Y928194D01*
X569747Y928259D01*
X569816Y928322D01*
X569887Y928381D01*
X569960Y928438D01*
X570036Y928492D01*
X570113Y928542D01*
X570193Y928589D01*
X570275Y928632D01*
X570359Y928672D01*
X570444Y928709D01*
X570531Y928741D01*
X570619Y928770D01*
X570708Y928796D01*
X570798Y928817D01*
X570889Y928835D01*
X570981Y928848D01*
X571073Y928858D01*
X571165Y928864D01*
X571258Y928866D01*
X571258Y928865D02*
X571362Y928863D01*
X571465Y928857D01*
X571569Y928848D01*
X571671Y928834D01*
X571774Y928817D01*
X571875Y928796D01*
X571976Y928772D01*
X572076Y928743D01*
X572174Y928711D01*
X572272Y928675D01*
X572368Y928636D01*
X572462Y928593D01*
X572555Y928547D01*
X572646Y928497D01*
X572735Y928444D01*
X572822Y928388D01*
X572907Y928329D01*
X572990Y928266D01*
X573070Y928201D01*
X573148Y928132D01*
X573224Y928061D01*
X573296Y927987D01*
X573366Y927910D01*
X573433Y927831D01*
X573497Y927749D01*
X573558Y927665D01*
X573615Y927579D01*
X573670Y927491D01*
X573721Y927401D01*
X573769Y927309D01*
X573814Y927215D01*
X573854Y927120D01*
X573892Y927023D01*
X573926Y926925D01*
X569802Y924986D02*
X569735Y925052D01*
X569670Y925122D01*
X569609Y925194D01*
X569550Y925268D01*
X569494Y925345D01*
X569442Y925424D01*
X569392Y925505D01*
X569346Y925588D01*
X569304Y925673D01*
X569265Y925760D01*
X569229Y925848D01*
X569197Y925937D01*
X569169Y926028D01*
X569144Y926119D01*
X569123Y926212D01*
X569106Y926305D01*
X569092Y926399D01*
X569083Y926493D01*
X569077Y926588D01*
X569075Y926683D01*
X569803Y924985D02*
X573925Y920135D01*
X569075Y920135D01*
X762000Y920135D02*
X764425Y920135D01*
X762000Y920135D02*
X761902Y920137D01*
X761805Y920143D01*
X761708Y920153D01*
X761611Y920166D01*
X761515Y920184D01*
X761420Y920205D01*
X761325Y920231D01*
X761232Y920260D01*
X761140Y920293D01*
X761049Y920329D01*
X760960Y920369D01*
X760873Y920413D01*
X760788Y920460D01*
X760704Y920510D01*
X760622Y920564D01*
X760543Y920621D01*
X760466Y920682D01*
X760392Y920745D01*
X760320Y920811D01*
X760251Y920880D01*
X760185Y920952D01*
X760122Y921026D01*
X760061Y921103D01*
X760004Y921182D01*
X759950Y921264D01*
X759900Y921348D01*
X759853Y921433D01*
X759809Y921520D01*
X759769Y921609D01*
X759733Y921700D01*
X759700Y921792D01*
X759671Y921885D01*
X759645Y921980D01*
X759624Y922075D01*
X759606Y922171D01*
X759593Y922268D01*
X759583Y922365D01*
X759577Y922462D01*
X759575Y922560D01*
X759577Y922658D01*
X759583Y922755D01*
X759593Y922852D01*
X759606Y922949D01*
X759624Y923045D01*
X759645Y923140D01*
X759671Y923235D01*
X759700Y923328D01*
X759733Y923420D01*
X759769Y923511D01*
X759809Y923600D01*
X759853Y923687D01*
X759900Y923773D01*
X759950Y923856D01*
X760004Y923938D01*
X760061Y924017D01*
X760122Y924094D01*
X760185Y924168D01*
X760251Y924240D01*
X760320Y924309D01*
X760392Y924375D01*
X760466Y924438D01*
X760543Y924499D01*
X760622Y924556D01*
X760704Y924610D01*
X760788Y924660D01*
X760873Y924707D01*
X760960Y924751D01*
X761049Y924791D01*
X761140Y924827D01*
X761232Y924860D01*
X761325Y924889D01*
X761420Y924915D01*
X761515Y924936D01*
X761611Y924954D01*
X761708Y924967D01*
X761805Y924977D01*
X761902Y924983D01*
X762000Y924985D01*
X761515Y928865D02*
X764425Y928865D01*
X761515Y928865D02*
X761428Y928863D01*
X761341Y928857D01*
X761255Y928847D01*
X761169Y928834D01*
X761083Y928816D01*
X760999Y928795D01*
X760916Y928770D01*
X760833Y928741D01*
X760753Y928709D01*
X760673Y928673D01*
X760596Y928633D01*
X760520Y928590D01*
X760446Y928544D01*
X760375Y928494D01*
X760305Y928442D01*
X760239Y928386D01*
X760174Y928327D01*
X760113Y928266D01*
X760054Y928201D01*
X759998Y928135D01*
X759946Y928065D01*
X759896Y927994D01*
X759850Y927920D01*
X759807Y927844D01*
X759767Y927767D01*
X759731Y927687D01*
X759699Y927607D01*
X759670Y927524D01*
X759645Y927441D01*
X759624Y927357D01*
X759606Y927271D01*
X759593Y927185D01*
X759583Y927099D01*
X759577Y927012D01*
X759575Y926925D01*
X759577Y926838D01*
X759583Y926751D01*
X759593Y926665D01*
X759606Y926579D01*
X759624Y926493D01*
X759645Y926409D01*
X759670Y926326D01*
X759699Y926243D01*
X759731Y926163D01*
X759767Y926083D01*
X759807Y926006D01*
X759850Y925930D01*
X759896Y925856D01*
X759946Y925785D01*
X759998Y925715D01*
X760054Y925649D01*
X760113Y925584D01*
X760174Y925523D01*
X760239Y925464D01*
X760305Y925408D01*
X760375Y925356D01*
X760446Y925306D01*
X760520Y925260D01*
X760596Y925217D01*
X760673Y925177D01*
X760753Y925141D01*
X760833Y925109D01*
X760916Y925080D01*
X760999Y925055D01*
X761083Y925034D01*
X761169Y925016D01*
X761255Y925003D01*
X761341Y924993D01*
X761428Y924987D01*
X761515Y924985D01*
X763455Y924985D01*
X952985Y928865D02*
X954925Y922075D01*
X950075Y922075D01*
X951530Y924015D02*
X951530Y920135D01*
X1142515Y920135D02*
X1145425Y920135D01*
X1142515Y920135D02*
X1142428Y920137D01*
X1142341Y920143D01*
X1142255Y920153D01*
X1142169Y920166D01*
X1142083Y920184D01*
X1141999Y920205D01*
X1141916Y920230D01*
X1141833Y920259D01*
X1141753Y920291D01*
X1141673Y920327D01*
X1141596Y920367D01*
X1141520Y920410D01*
X1141446Y920456D01*
X1141375Y920506D01*
X1141305Y920558D01*
X1141239Y920614D01*
X1141174Y920673D01*
X1141113Y920734D01*
X1141054Y920799D01*
X1140998Y920865D01*
X1140946Y920935D01*
X1140896Y921006D01*
X1140850Y921080D01*
X1140807Y921156D01*
X1140767Y921233D01*
X1140731Y921313D01*
X1140699Y921393D01*
X1140670Y921476D01*
X1140645Y921559D01*
X1140624Y921643D01*
X1140606Y921729D01*
X1140593Y921815D01*
X1140583Y921901D01*
X1140577Y921988D01*
X1140575Y922075D01*
X1140575Y923045D01*
X1140577Y923132D01*
X1140583Y923219D01*
X1140593Y923305D01*
X1140606Y923391D01*
X1140624Y923477D01*
X1140645Y923561D01*
X1140670Y923644D01*
X1140699Y923727D01*
X1140731Y923807D01*
X1140767Y923887D01*
X1140807Y923964D01*
X1140850Y924040D01*
X1140896Y924114D01*
X1140946Y924185D01*
X1140998Y924255D01*
X1141054Y924321D01*
X1141113Y924386D01*
X1141174Y924447D01*
X1141239Y924506D01*
X1141305Y924562D01*
X1141375Y924614D01*
X1141446Y924664D01*
X1141520Y924710D01*
X1141596Y924753D01*
X1141673Y924793D01*
X1141753Y924829D01*
X1141833Y924861D01*
X1141916Y924890D01*
X1141999Y924915D01*
X1142083Y924936D01*
X1142169Y924954D01*
X1142255Y924967D01*
X1142341Y924977D01*
X1142428Y924983D01*
X1142515Y924985D01*
X1145425Y924985D01*
X1145425Y928865D01*
X1140575Y928865D01*
X1333015Y924985D02*
X1335925Y924985D01*
X1333015Y924985D02*
X1332928Y924983D01*
X1332841Y924977D01*
X1332755Y924967D01*
X1332669Y924954D01*
X1332583Y924936D01*
X1332499Y924915D01*
X1332416Y924890D01*
X1332333Y924861D01*
X1332253Y924829D01*
X1332173Y924793D01*
X1332096Y924753D01*
X1332020Y924710D01*
X1331946Y924664D01*
X1331875Y924614D01*
X1331805Y924562D01*
X1331739Y924506D01*
X1331674Y924447D01*
X1331613Y924386D01*
X1331554Y924321D01*
X1331498Y924255D01*
X1331446Y924185D01*
X1331396Y924114D01*
X1331350Y924040D01*
X1331307Y923964D01*
X1331267Y923887D01*
X1331231Y923807D01*
X1331199Y923727D01*
X1331170Y923644D01*
X1331145Y923561D01*
X1331124Y923477D01*
X1331106Y923391D01*
X1331093Y923305D01*
X1331083Y923219D01*
X1331077Y923132D01*
X1331075Y923045D01*
X1331075Y922560D01*
X1331077Y922462D01*
X1331083Y922365D01*
X1331093Y922268D01*
X1331106Y922171D01*
X1331124Y922075D01*
X1331145Y921980D01*
X1331171Y921885D01*
X1331200Y921792D01*
X1331233Y921700D01*
X1331269Y921609D01*
X1331309Y921520D01*
X1331353Y921433D01*
X1331400Y921348D01*
X1331450Y921264D01*
X1331504Y921182D01*
X1331561Y921103D01*
X1331622Y921026D01*
X1331685Y920952D01*
X1331751Y920880D01*
X1331820Y920811D01*
X1331892Y920745D01*
X1331966Y920682D01*
X1332043Y920621D01*
X1332122Y920564D01*
X1332204Y920510D01*
X1332288Y920460D01*
X1332373Y920413D01*
X1332460Y920369D01*
X1332549Y920329D01*
X1332640Y920293D01*
X1332732Y920260D01*
X1332825Y920231D01*
X1332920Y920205D01*
X1333015Y920184D01*
X1333111Y920166D01*
X1333208Y920153D01*
X1333305Y920143D01*
X1333402Y920137D01*
X1333500Y920135D01*
X1333598Y920137D01*
X1333695Y920143D01*
X1333792Y920153D01*
X1333889Y920166D01*
X1333985Y920184D01*
X1334080Y920205D01*
X1334175Y920231D01*
X1334268Y920260D01*
X1334360Y920293D01*
X1334451Y920329D01*
X1334540Y920369D01*
X1334627Y920413D01*
X1334713Y920460D01*
X1334796Y920510D01*
X1334878Y920564D01*
X1334957Y920621D01*
X1335034Y920682D01*
X1335108Y920745D01*
X1335180Y920811D01*
X1335249Y920880D01*
X1335315Y920952D01*
X1335378Y921026D01*
X1335439Y921103D01*
X1335496Y921182D01*
X1335550Y921264D01*
X1335600Y921348D01*
X1335647Y921433D01*
X1335691Y921520D01*
X1335731Y921609D01*
X1335767Y921700D01*
X1335800Y921792D01*
X1335829Y921885D01*
X1335855Y921980D01*
X1335876Y922075D01*
X1335894Y922171D01*
X1335907Y922268D01*
X1335917Y922365D01*
X1335923Y922462D01*
X1335925Y922560D01*
X1335925Y924985D01*
X1335923Y925107D01*
X1335917Y925229D01*
X1335908Y925350D01*
X1335894Y925471D01*
X1335877Y925592D01*
X1335856Y925712D01*
X1335832Y925831D01*
X1335803Y925950D01*
X1335771Y926067D01*
X1335735Y926184D01*
X1335696Y926299D01*
X1335653Y926413D01*
X1335606Y926526D01*
X1335556Y926637D01*
X1335502Y926746D01*
X1335445Y926854D01*
X1335385Y926960D01*
X1335321Y927064D01*
X1335254Y927166D01*
X1335184Y927266D01*
X1335111Y927363D01*
X1335035Y927458D01*
X1334955Y927551D01*
X1334873Y927641D01*
X1334789Y927729D01*
X1334701Y927813D01*
X1334611Y927895D01*
X1334518Y927975D01*
X1334423Y928051D01*
X1334326Y928124D01*
X1334226Y928194D01*
X1334124Y928261D01*
X1334020Y928325D01*
X1333914Y928385D01*
X1333806Y928442D01*
X1333697Y928496D01*
X1333586Y928546D01*
X1333473Y928593D01*
X1333359Y928636D01*
X1333244Y928675D01*
X1333127Y928711D01*
X1333010Y928743D01*
X1332891Y928772D01*
X1332772Y928796D01*
X1332652Y928817D01*
X1332531Y928834D01*
X1332410Y928848D01*
X1332289Y928857D01*
X1332167Y928863D01*
X1332045Y928865D01*
X1526425Y928865D02*
X1526425Y927895D01*
X1526425Y928865D02*
X1521575Y928865D01*
X1524000Y920135D01*
X1712075Y922560D02*
X1712077Y922658D01*
X1712083Y922755D01*
X1712093Y922852D01*
X1712106Y922949D01*
X1712124Y923045D01*
X1712145Y923140D01*
X1712171Y923235D01*
X1712200Y923328D01*
X1712233Y923420D01*
X1712269Y923511D01*
X1712309Y923600D01*
X1712353Y923687D01*
X1712400Y923773D01*
X1712450Y923856D01*
X1712504Y923938D01*
X1712561Y924017D01*
X1712622Y924094D01*
X1712685Y924168D01*
X1712751Y924240D01*
X1712820Y924309D01*
X1712892Y924375D01*
X1712966Y924438D01*
X1713043Y924499D01*
X1713122Y924556D01*
X1713204Y924610D01*
X1713288Y924660D01*
X1713373Y924707D01*
X1713460Y924751D01*
X1713549Y924791D01*
X1713640Y924827D01*
X1713732Y924860D01*
X1713825Y924889D01*
X1713920Y924915D01*
X1714015Y924936D01*
X1714111Y924954D01*
X1714208Y924967D01*
X1714305Y924977D01*
X1714402Y924983D01*
X1714500Y924985D01*
X1714598Y924983D01*
X1714695Y924977D01*
X1714792Y924967D01*
X1714889Y924954D01*
X1714985Y924936D01*
X1715080Y924915D01*
X1715175Y924889D01*
X1715268Y924860D01*
X1715360Y924827D01*
X1715451Y924791D01*
X1715540Y924751D01*
X1715627Y924707D01*
X1715713Y924660D01*
X1715796Y924610D01*
X1715878Y924556D01*
X1715957Y924499D01*
X1716034Y924438D01*
X1716108Y924375D01*
X1716180Y924309D01*
X1716249Y924240D01*
X1716315Y924168D01*
X1716378Y924094D01*
X1716439Y924017D01*
X1716496Y923938D01*
X1716550Y923856D01*
X1716600Y923773D01*
X1716647Y923687D01*
X1716691Y923600D01*
X1716731Y923511D01*
X1716767Y923420D01*
X1716800Y923328D01*
X1716829Y923235D01*
X1716855Y923140D01*
X1716876Y923045D01*
X1716894Y922949D01*
X1716907Y922852D01*
X1716917Y922755D01*
X1716923Y922658D01*
X1716925Y922560D01*
X1716923Y922462D01*
X1716917Y922365D01*
X1716907Y922268D01*
X1716894Y922171D01*
X1716876Y922075D01*
X1716855Y921980D01*
X1716829Y921885D01*
X1716800Y921792D01*
X1716767Y921700D01*
X1716731Y921609D01*
X1716691Y921520D01*
X1716647Y921433D01*
X1716600Y921348D01*
X1716550Y921264D01*
X1716496Y921182D01*
X1716439Y921103D01*
X1716378Y921026D01*
X1716315Y920952D01*
X1716249Y920880D01*
X1716180Y920811D01*
X1716108Y920745D01*
X1716034Y920682D01*
X1715957Y920621D01*
X1715878Y920564D01*
X1715796Y920510D01*
X1715713Y920460D01*
X1715627Y920413D01*
X1715540Y920369D01*
X1715451Y920329D01*
X1715360Y920293D01*
X1715268Y920260D01*
X1715175Y920231D01*
X1715080Y920205D01*
X1714985Y920184D01*
X1714889Y920166D01*
X1714792Y920153D01*
X1714695Y920143D01*
X1714598Y920137D01*
X1714500Y920135D01*
X1714402Y920137D01*
X1714305Y920143D01*
X1714208Y920153D01*
X1714111Y920166D01*
X1714015Y920184D01*
X1713920Y920205D01*
X1713825Y920231D01*
X1713732Y920260D01*
X1713640Y920293D01*
X1713549Y920329D01*
X1713460Y920369D01*
X1713373Y920413D01*
X1713288Y920460D01*
X1713204Y920510D01*
X1713122Y920564D01*
X1713043Y920621D01*
X1712966Y920682D01*
X1712892Y920745D01*
X1712820Y920811D01*
X1712751Y920880D01*
X1712685Y920952D01*
X1712622Y921026D01*
X1712561Y921103D01*
X1712504Y921182D01*
X1712450Y921264D01*
X1712400Y921348D01*
X1712353Y921433D01*
X1712309Y921520D01*
X1712269Y921609D01*
X1712233Y921700D01*
X1712200Y921792D01*
X1712171Y921885D01*
X1712145Y921980D01*
X1712124Y922075D01*
X1712106Y922171D01*
X1712093Y922268D01*
X1712083Y922365D01*
X1712077Y922462D01*
X1712075Y922560D01*
X1712560Y926925D02*
X1712562Y927012D01*
X1712568Y927099D01*
X1712578Y927185D01*
X1712591Y927271D01*
X1712609Y927357D01*
X1712630Y927441D01*
X1712655Y927524D01*
X1712684Y927607D01*
X1712716Y927687D01*
X1712752Y927767D01*
X1712792Y927844D01*
X1712835Y927920D01*
X1712881Y927994D01*
X1712931Y928065D01*
X1712983Y928135D01*
X1713039Y928201D01*
X1713098Y928266D01*
X1713159Y928327D01*
X1713224Y928386D01*
X1713290Y928442D01*
X1713360Y928494D01*
X1713431Y928544D01*
X1713505Y928590D01*
X1713581Y928633D01*
X1713658Y928673D01*
X1713738Y928709D01*
X1713818Y928741D01*
X1713901Y928770D01*
X1713984Y928795D01*
X1714068Y928816D01*
X1714154Y928834D01*
X1714240Y928847D01*
X1714326Y928857D01*
X1714413Y928863D01*
X1714500Y928865D01*
X1714587Y928863D01*
X1714674Y928857D01*
X1714760Y928847D01*
X1714846Y928834D01*
X1714932Y928816D01*
X1715016Y928795D01*
X1715099Y928770D01*
X1715182Y928741D01*
X1715262Y928709D01*
X1715342Y928673D01*
X1715419Y928633D01*
X1715495Y928590D01*
X1715569Y928544D01*
X1715640Y928494D01*
X1715710Y928442D01*
X1715776Y928386D01*
X1715841Y928327D01*
X1715902Y928266D01*
X1715961Y928201D01*
X1716017Y928135D01*
X1716069Y928065D01*
X1716119Y927994D01*
X1716165Y927920D01*
X1716208Y927844D01*
X1716248Y927767D01*
X1716284Y927687D01*
X1716316Y927607D01*
X1716345Y927524D01*
X1716370Y927441D01*
X1716391Y927357D01*
X1716409Y927271D01*
X1716422Y927185D01*
X1716432Y927099D01*
X1716438Y927012D01*
X1716440Y926925D01*
X1716438Y926838D01*
X1716432Y926751D01*
X1716422Y926665D01*
X1716409Y926579D01*
X1716391Y926493D01*
X1716370Y926409D01*
X1716345Y926326D01*
X1716316Y926243D01*
X1716284Y926163D01*
X1716248Y926083D01*
X1716208Y926006D01*
X1716165Y925930D01*
X1716119Y925856D01*
X1716069Y925785D01*
X1716017Y925715D01*
X1715961Y925649D01*
X1715902Y925584D01*
X1715841Y925523D01*
X1715776Y925464D01*
X1715710Y925408D01*
X1715640Y925356D01*
X1715569Y925306D01*
X1715495Y925260D01*
X1715419Y925217D01*
X1715342Y925177D01*
X1715262Y925141D01*
X1715182Y925109D01*
X1715099Y925080D01*
X1715016Y925055D01*
X1714932Y925034D01*
X1714846Y925016D01*
X1714760Y925003D01*
X1714674Y924993D01*
X1714587Y924987D01*
X1714500Y924985D01*
X1714413Y924987D01*
X1714326Y924993D01*
X1714240Y925003D01*
X1714154Y925016D01*
X1714068Y925034D01*
X1713984Y925055D01*
X1713901Y925080D01*
X1713818Y925109D01*
X1713738Y925141D01*
X1713658Y925177D01*
X1713581Y925217D01*
X1713505Y925260D01*
X1713431Y925306D01*
X1713360Y925356D01*
X1713290Y925408D01*
X1713224Y925464D01*
X1713159Y925523D01*
X1713098Y925584D01*
X1713039Y925649D01*
X1712983Y925715D01*
X1712931Y925785D01*
X1712881Y925856D01*
X1712835Y925930D01*
X1712792Y926006D01*
X1712752Y926083D01*
X1712716Y926163D01*
X1712684Y926243D01*
X1712655Y926326D01*
X1712630Y926409D01*
X1712609Y926493D01*
X1712591Y926579D01*
X1712578Y926665D01*
X1712568Y926751D01*
X1712562Y926838D01*
X1712560Y926925D01*
X1902575Y924015D02*
X1905485Y924015D01*
X1905572Y924017D01*
X1905659Y924023D01*
X1905745Y924033D01*
X1905831Y924046D01*
X1905917Y924064D01*
X1906001Y924085D01*
X1906084Y924110D01*
X1906167Y924139D01*
X1906247Y924171D01*
X1906327Y924207D01*
X1906404Y924247D01*
X1906480Y924290D01*
X1906554Y924336D01*
X1906625Y924386D01*
X1906695Y924438D01*
X1906761Y924494D01*
X1906826Y924553D01*
X1906887Y924614D01*
X1906946Y924679D01*
X1907002Y924745D01*
X1907054Y924815D01*
X1907104Y924886D01*
X1907150Y924960D01*
X1907193Y925036D01*
X1907233Y925113D01*
X1907269Y925193D01*
X1907301Y925273D01*
X1907330Y925356D01*
X1907355Y925439D01*
X1907376Y925523D01*
X1907394Y925609D01*
X1907407Y925695D01*
X1907417Y925781D01*
X1907423Y925868D01*
X1907425Y925955D01*
X1907425Y926440D01*
X1907423Y926538D01*
X1907417Y926635D01*
X1907407Y926732D01*
X1907394Y926829D01*
X1907376Y926925D01*
X1907355Y927020D01*
X1907329Y927115D01*
X1907300Y927208D01*
X1907267Y927300D01*
X1907231Y927391D01*
X1907191Y927480D01*
X1907147Y927567D01*
X1907100Y927653D01*
X1907050Y927736D01*
X1906996Y927818D01*
X1906939Y927897D01*
X1906878Y927974D01*
X1906815Y928048D01*
X1906749Y928120D01*
X1906680Y928189D01*
X1906608Y928255D01*
X1906534Y928318D01*
X1906457Y928379D01*
X1906378Y928436D01*
X1906296Y928490D01*
X1906213Y928540D01*
X1906127Y928587D01*
X1906040Y928631D01*
X1905951Y928671D01*
X1905860Y928707D01*
X1905768Y928740D01*
X1905675Y928769D01*
X1905580Y928795D01*
X1905485Y928816D01*
X1905389Y928834D01*
X1905292Y928847D01*
X1905195Y928857D01*
X1905098Y928863D01*
X1905000Y928865D01*
X1904902Y928863D01*
X1904805Y928857D01*
X1904708Y928847D01*
X1904611Y928834D01*
X1904515Y928816D01*
X1904420Y928795D01*
X1904325Y928769D01*
X1904232Y928740D01*
X1904140Y928707D01*
X1904049Y928671D01*
X1903960Y928631D01*
X1903873Y928587D01*
X1903788Y928540D01*
X1903704Y928490D01*
X1903622Y928436D01*
X1903543Y928379D01*
X1903466Y928318D01*
X1903392Y928255D01*
X1903320Y928189D01*
X1903251Y928120D01*
X1903185Y928048D01*
X1903122Y927974D01*
X1903061Y927897D01*
X1903004Y927818D01*
X1902950Y927736D01*
X1902900Y927653D01*
X1902853Y927567D01*
X1902809Y927480D01*
X1902769Y927391D01*
X1902733Y927300D01*
X1902700Y927208D01*
X1902671Y927115D01*
X1902645Y927020D01*
X1902624Y926925D01*
X1902606Y926829D01*
X1902593Y926732D01*
X1902583Y926635D01*
X1902577Y926538D01*
X1902575Y926440D01*
X1902575Y924015D01*
X1902577Y923893D01*
X1902583Y923771D01*
X1902592Y923650D01*
X1902606Y923529D01*
X1902623Y923408D01*
X1902644Y923288D01*
X1902668Y923169D01*
X1902697Y923050D01*
X1902729Y922933D01*
X1902765Y922816D01*
X1902804Y922701D01*
X1902847Y922587D01*
X1902894Y922474D01*
X1902944Y922363D01*
X1902998Y922254D01*
X1903055Y922146D01*
X1903115Y922040D01*
X1903179Y921936D01*
X1903246Y921834D01*
X1903316Y921734D01*
X1903389Y921637D01*
X1903465Y921542D01*
X1903545Y921449D01*
X1903627Y921359D01*
X1903711Y921271D01*
X1903799Y921187D01*
X1903889Y921105D01*
X1903982Y921025D01*
X1904077Y920949D01*
X1904174Y920876D01*
X1904274Y920806D01*
X1904376Y920739D01*
X1904480Y920675D01*
X1904586Y920615D01*
X1904694Y920558D01*
X1904803Y920504D01*
X1904914Y920454D01*
X1905027Y920407D01*
X1905141Y920364D01*
X1905256Y920325D01*
X1905373Y920289D01*
X1905490Y920257D01*
X1905609Y920228D01*
X1905728Y920204D01*
X1905848Y920183D01*
X1905969Y920166D01*
X1906090Y920152D01*
X1906211Y920143D01*
X1906333Y920137D01*
X1906455Y920135D01*
X2097198Y927652D02*
X2097271Y927497D01*
X2097341Y927340D01*
X2097407Y927182D01*
X2097469Y927021D01*
X2097527Y926860D01*
X2097581Y926697D01*
X2097632Y926533D01*
X2097678Y926368D01*
X2097721Y926201D01*
X2097760Y926034D01*
X2097794Y925866D01*
X2097825Y925697D01*
X2097851Y925527D01*
X2097874Y925357D01*
X2097892Y925186D01*
X2097907Y925015D01*
X2097917Y924843D01*
X2097923Y924672D01*
X2097925Y924500D01*
X2097198Y927653D02*
X2097169Y927731D01*
X2097137Y927807D01*
X2097102Y927881D01*
X2097063Y927954D01*
X2097021Y928025D01*
X2096975Y928093D01*
X2096927Y928160D01*
X2096875Y928224D01*
X2096821Y928286D01*
X2096764Y928346D01*
X2096704Y928402D01*
X2096641Y928456D01*
X2096577Y928507D01*
X2096509Y928555D01*
X2096440Y928600D01*
X2096369Y928642D01*
X2096296Y928680D01*
X2096221Y928715D01*
X2096145Y928746D01*
X2096067Y928774D01*
X2095989Y928798D01*
X2095909Y928819D01*
X2095828Y928836D01*
X2095747Y928849D01*
X2095665Y928858D01*
X2095582Y928864D01*
X2095500Y928866D01*
X2095418Y928864D01*
X2095335Y928858D01*
X2095253Y928849D01*
X2095172Y928836D01*
X2095091Y928819D01*
X2095011Y928798D01*
X2094933Y928774D01*
X2094855Y928746D01*
X2094779Y928715D01*
X2094704Y928680D01*
X2094631Y928642D01*
X2094560Y928600D01*
X2094491Y928555D01*
X2094423Y928507D01*
X2094359Y928456D01*
X2094296Y928402D01*
X2094236Y928346D01*
X2094179Y928286D01*
X2094125Y928224D01*
X2094073Y928160D01*
X2094025Y928093D01*
X2093979Y928025D01*
X2093937Y927954D01*
X2093898Y927881D01*
X2093863Y927807D01*
X2093831Y927731D01*
X2093802Y927653D01*
X2093802Y927652D02*
X2093729Y927497D01*
X2093659Y927340D01*
X2093593Y927182D01*
X2093531Y927021D01*
X2093473Y926860D01*
X2093419Y926697D01*
X2093368Y926533D01*
X2093322Y926368D01*
X2093279Y926201D01*
X2093240Y926034D01*
X2093206Y925866D01*
X2093175Y925697D01*
X2093149Y925527D01*
X2093126Y925357D01*
X2093108Y925186D01*
X2093093Y925015D01*
X2093083Y924843D01*
X2093077Y924672D01*
X2093075Y924500D01*
X2097925Y924500D02*
X2097923Y924328D01*
X2097917Y924157D01*
X2097907Y923985D01*
X2097892Y923814D01*
X2097874Y923643D01*
X2097851Y923473D01*
X2097825Y923303D01*
X2097794Y923134D01*
X2097760Y922966D01*
X2097721Y922799D01*
X2097678Y922632D01*
X2097632Y922467D01*
X2097581Y922303D01*
X2097527Y922140D01*
X2097469Y921979D01*
X2097407Y921818D01*
X2097341Y921660D01*
X2097271Y921503D01*
X2097198Y921348D01*
X2097169Y921270D01*
X2097137Y921194D01*
X2097102Y921120D01*
X2097063Y921047D01*
X2097021Y920976D01*
X2096975Y920908D01*
X2096927Y920841D01*
X2096875Y920777D01*
X2096821Y920715D01*
X2096764Y920655D01*
X2096704Y920599D01*
X2096641Y920545D01*
X2096577Y920494D01*
X2096509Y920446D01*
X2096440Y920401D01*
X2096369Y920359D01*
X2096296Y920321D01*
X2096221Y920286D01*
X2096145Y920255D01*
X2096067Y920227D01*
X2095989Y920203D01*
X2095909Y920182D01*
X2095828Y920165D01*
X2095747Y920152D01*
X2095665Y920143D01*
X2095582Y920137D01*
X2095500Y920135D01*
X2093802Y921348D02*
X2093729Y921503D01*
X2093659Y921660D01*
X2093593Y921818D01*
X2093531Y921979D01*
X2093473Y922140D01*
X2093419Y922303D01*
X2093368Y922467D01*
X2093322Y922632D01*
X2093279Y922799D01*
X2093240Y922966D01*
X2093206Y923134D01*
X2093175Y923303D01*
X2093149Y923473D01*
X2093126Y923643D01*
X2093108Y923814D01*
X2093093Y923985D01*
X2093083Y924157D01*
X2093077Y924328D01*
X2093075Y924500D01*
X2093802Y921348D02*
X2093831Y921270D01*
X2093863Y921194D01*
X2093898Y921120D01*
X2093937Y921047D01*
X2093979Y920976D01*
X2094025Y920908D01*
X2094073Y920841D01*
X2094125Y920777D01*
X2094179Y920715D01*
X2094236Y920655D01*
X2094296Y920599D01*
X2094359Y920545D01*
X2094423Y920494D01*
X2094491Y920446D01*
X2094560Y920401D01*
X2094631Y920359D01*
X2094704Y920321D01*
X2094779Y920286D01*
X2094855Y920255D01*
X2094933Y920227D01*
X2095011Y920203D01*
X2095091Y920182D01*
X2095172Y920165D01*
X2095253Y920152D01*
X2095335Y920143D01*
X2095418Y920137D01*
X2095500Y920135D01*
X2097440Y922075D02*
X2093560Y926925D01*
X2283090Y923530D02*
X2288910Y923530D01*
X247061Y738365D02*
X247061Y729635D01*
X249486Y738365D02*
X244636Y738365D01*
X238661Y738365D02*
X241571Y729635D01*
X235751Y729635D02*
X238661Y738365D01*
X236479Y731818D02*
X240844Y731818D01*
X231614Y734485D02*
X229189Y734485D01*
X229091Y734483D01*
X228994Y734477D01*
X228897Y734467D01*
X228800Y734454D01*
X228704Y734436D01*
X228609Y734415D01*
X228514Y734389D01*
X228421Y734360D01*
X228329Y734327D01*
X228238Y734291D01*
X228149Y734251D01*
X228062Y734207D01*
X227977Y734160D01*
X227893Y734110D01*
X227811Y734056D01*
X227732Y733999D01*
X227655Y733938D01*
X227581Y733875D01*
X227509Y733809D01*
X227440Y733740D01*
X227374Y733668D01*
X227311Y733594D01*
X227250Y733517D01*
X227193Y733438D01*
X227139Y733356D01*
X227089Y733273D01*
X227042Y733187D01*
X226998Y733100D01*
X226958Y733011D01*
X226922Y732920D01*
X226889Y732828D01*
X226860Y732735D01*
X226834Y732640D01*
X226813Y732545D01*
X226795Y732449D01*
X226782Y732352D01*
X226772Y732255D01*
X226766Y732158D01*
X226764Y732060D01*
X226766Y731962D01*
X226772Y731865D01*
X226782Y731768D01*
X226795Y731671D01*
X226813Y731575D01*
X226834Y731480D01*
X226860Y731385D01*
X226889Y731292D01*
X226922Y731200D01*
X226958Y731109D01*
X226998Y731020D01*
X227042Y730933D01*
X227089Y730848D01*
X227139Y730764D01*
X227193Y730682D01*
X227250Y730603D01*
X227311Y730526D01*
X227374Y730452D01*
X227440Y730380D01*
X227509Y730311D01*
X227581Y730245D01*
X227655Y730182D01*
X227732Y730121D01*
X227811Y730064D01*
X227893Y730010D01*
X227976Y729960D01*
X228062Y729913D01*
X228149Y729869D01*
X228238Y729829D01*
X228329Y729793D01*
X228421Y729760D01*
X228514Y729731D01*
X228609Y729705D01*
X228704Y729684D01*
X228800Y729666D01*
X228897Y729653D01*
X228994Y729643D01*
X229091Y729637D01*
X229189Y729635D01*
X231614Y729635D01*
X231614Y738365D01*
X229189Y738365D01*
X229102Y738363D01*
X229015Y738357D01*
X228929Y738347D01*
X228843Y738334D01*
X228757Y738316D01*
X228673Y738295D01*
X228590Y738270D01*
X228507Y738241D01*
X228427Y738209D01*
X228347Y738173D01*
X228270Y738133D01*
X228194Y738090D01*
X228120Y738044D01*
X228049Y737994D01*
X227979Y737942D01*
X227913Y737886D01*
X227848Y737827D01*
X227787Y737766D01*
X227728Y737701D01*
X227672Y737635D01*
X227620Y737565D01*
X227570Y737494D01*
X227524Y737420D01*
X227481Y737344D01*
X227441Y737267D01*
X227405Y737187D01*
X227373Y737107D01*
X227344Y737024D01*
X227319Y736941D01*
X227298Y736857D01*
X227280Y736771D01*
X227267Y736685D01*
X227257Y736599D01*
X227251Y736512D01*
X227249Y736425D01*
X227251Y736338D01*
X227257Y736251D01*
X227267Y736165D01*
X227280Y736079D01*
X227298Y735993D01*
X227319Y735909D01*
X227344Y735826D01*
X227373Y735743D01*
X227405Y735663D01*
X227441Y735583D01*
X227481Y735506D01*
X227524Y735430D01*
X227570Y735356D01*
X227620Y735285D01*
X227672Y735215D01*
X227728Y735149D01*
X227787Y735084D01*
X227848Y735023D01*
X227913Y734964D01*
X227979Y734908D01*
X228049Y734856D01*
X228120Y734806D01*
X228194Y734760D01*
X228270Y734717D01*
X228347Y734677D01*
X228427Y734641D01*
X228507Y734609D01*
X228590Y734580D01*
X228673Y734555D01*
X228757Y734534D01*
X228843Y734516D01*
X228929Y734503D01*
X229015Y734493D01*
X229102Y734487D01*
X229189Y734485D01*
X479160Y735940D02*
X479160Y732060D01*
X479160Y735940D02*
X479158Y736038D01*
X479152Y736135D01*
X479142Y736232D01*
X479129Y736329D01*
X479111Y736425D01*
X479090Y736520D01*
X479064Y736615D01*
X479035Y736708D01*
X479002Y736800D01*
X478966Y736891D01*
X478926Y736980D01*
X478882Y737067D01*
X478835Y737153D01*
X478785Y737236D01*
X478731Y737318D01*
X478674Y737397D01*
X478613Y737474D01*
X478550Y737548D01*
X478484Y737620D01*
X478415Y737689D01*
X478343Y737755D01*
X478269Y737818D01*
X478192Y737879D01*
X478113Y737936D01*
X478031Y737990D01*
X477948Y738040D01*
X477862Y738087D01*
X477775Y738131D01*
X477686Y738171D01*
X477595Y738207D01*
X477503Y738240D01*
X477410Y738269D01*
X477315Y738295D01*
X477220Y738316D01*
X477124Y738334D01*
X477027Y738347D01*
X476930Y738357D01*
X476833Y738363D01*
X476735Y738365D01*
X476637Y738363D01*
X476540Y738357D01*
X476443Y738347D01*
X476346Y738334D01*
X476250Y738316D01*
X476155Y738295D01*
X476060Y738269D01*
X475967Y738240D01*
X475875Y738207D01*
X475784Y738171D01*
X475695Y738131D01*
X475608Y738087D01*
X475523Y738040D01*
X475439Y737990D01*
X475357Y737936D01*
X475278Y737879D01*
X475201Y737818D01*
X475127Y737755D01*
X475055Y737689D01*
X474986Y737620D01*
X474920Y737548D01*
X474857Y737474D01*
X474796Y737397D01*
X474739Y737318D01*
X474685Y737236D01*
X474635Y737153D01*
X474588Y737067D01*
X474544Y736980D01*
X474504Y736891D01*
X474468Y736800D01*
X474435Y736708D01*
X474406Y736615D01*
X474380Y736520D01*
X474359Y736425D01*
X474341Y736329D01*
X474328Y736232D01*
X474318Y736135D01*
X474312Y736038D01*
X474310Y735940D01*
X474310Y732060D01*
X474312Y731962D01*
X474318Y731865D01*
X474328Y731768D01*
X474341Y731671D01*
X474359Y731575D01*
X474380Y731480D01*
X474406Y731385D01*
X474435Y731292D01*
X474468Y731200D01*
X474504Y731109D01*
X474544Y731020D01*
X474588Y730933D01*
X474635Y730848D01*
X474685Y730764D01*
X474739Y730682D01*
X474796Y730603D01*
X474857Y730526D01*
X474920Y730452D01*
X474986Y730380D01*
X475055Y730311D01*
X475127Y730245D01*
X475201Y730182D01*
X475278Y730121D01*
X475357Y730064D01*
X475439Y730010D01*
X475523Y729960D01*
X475608Y729913D01*
X475695Y729869D01*
X475784Y729829D01*
X475875Y729793D01*
X475967Y729760D01*
X476060Y729731D01*
X476155Y729705D01*
X476250Y729684D01*
X476346Y729666D01*
X476443Y729653D01*
X476540Y729643D01*
X476637Y729637D01*
X476735Y729635D01*
X476833Y729637D01*
X476930Y729643D01*
X477027Y729653D01*
X477124Y729666D01*
X477220Y729684D01*
X477315Y729705D01*
X477410Y729731D01*
X477503Y729760D01*
X477595Y729793D01*
X477686Y729829D01*
X477775Y729869D01*
X477862Y729913D01*
X477948Y729960D01*
X478031Y730010D01*
X478113Y730064D01*
X478192Y730121D01*
X478269Y730182D01*
X478343Y730245D01*
X478415Y730311D01*
X478484Y730380D01*
X478550Y730452D01*
X478613Y730526D01*
X478674Y730603D01*
X478731Y730682D01*
X478785Y730764D01*
X478835Y730848D01*
X478882Y730933D01*
X478926Y731020D01*
X478966Y731109D01*
X479002Y731200D01*
X479035Y731292D01*
X479064Y731385D01*
X479090Y731480D01*
X479111Y731575D01*
X479129Y731671D01*
X479142Y731768D01*
X479152Y731865D01*
X479158Y731962D01*
X479160Y732060D01*
X475280Y731575D02*
X473340Y729635D01*
X668690Y729635D02*
X670630Y738365D01*
X666750Y735455D02*
X668690Y729635D01*
X664810Y729635D02*
X666750Y735455D01*
X662870Y738365D02*
X664810Y729635D01*
X855310Y729635D02*
X859190Y729635D01*
X859190Y738365D01*
X855310Y738365D01*
X856280Y734485D02*
X859190Y734485D01*
X1050175Y738365D02*
X1050175Y729635D01*
X1050175Y738365D02*
X1047750Y738365D01*
X1047652Y738363D01*
X1047555Y738357D01*
X1047458Y738347D01*
X1047361Y738334D01*
X1047265Y738316D01*
X1047170Y738295D01*
X1047075Y738269D01*
X1046982Y738240D01*
X1046890Y738207D01*
X1046799Y738171D01*
X1046710Y738131D01*
X1046623Y738087D01*
X1046538Y738040D01*
X1046454Y737990D01*
X1046372Y737936D01*
X1046293Y737879D01*
X1046216Y737818D01*
X1046142Y737755D01*
X1046070Y737689D01*
X1046001Y737620D01*
X1045935Y737548D01*
X1045872Y737474D01*
X1045811Y737397D01*
X1045754Y737318D01*
X1045700Y737236D01*
X1045650Y737153D01*
X1045603Y737067D01*
X1045559Y736980D01*
X1045519Y736891D01*
X1045483Y736800D01*
X1045450Y736708D01*
X1045421Y736615D01*
X1045395Y736520D01*
X1045374Y736425D01*
X1045356Y736329D01*
X1045343Y736232D01*
X1045333Y736135D01*
X1045327Y736038D01*
X1045325Y735940D01*
X1045327Y735842D01*
X1045333Y735745D01*
X1045343Y735648D01*
X1045356Y735551D01*
X1045374Y735455D01*
X1045395Y735360D01*
X1045421Y735265D01*
X1045450Y735172D01*
X1045483Y735080D01*
X1045519Y734989D01*
X1045559Y734900D01*
X1045603Y734813D01*
X1045650Y734728D01*
X1045700Y734644D01*
X1045754Y734562D01*
X1045811Y734483D01*
X1045872Y734406D01*
X1045935Y734332D01*
X1046001Y734260D01*
X1046070Y734191D01*
X1046142Y734125D01*
X1046216Y734062D01*
X1046293Y734001D01*
X1046372Y733944D01*
X1046454Y733890D01*
X1046538Y733840D01*
X1046623Y733793D01*
X1046710Y733749D01*
X1046799Y733709D01*
X1046890Y733673D01*
X1046982Y733640D01*
X1047075Y733611D01*
X1047170Y733585D01*
X1047265Y733564D01*
X1047361Y733546D01*
X1047458Y733533D01*
X1047555Y733523D01*
X1047652Y733517D01*
X1047750Y733515D01*
X1050175Y733515D01*
X1047265Y733515D02*
X1045325Y729635D01*
X1238250Y729635D02*
X1238250Y738365D01*
X1240675Y738365D02*
X1235825Y738365D01*
X1428750Y734243D02*
X1431660Y738365D01*
X1428750Y734243D02*
X1425840Y738365D01*
X1428750Y734243D02*
X1428750Y729635D01*
X1621675Y732060D02*
X1621675Y738365D01*
X1621675Y732060D02*
X1621673Y731962D01*
X1621667Y731865D01*
X1621657Y731768D01*
X1621644Y731671D01*
X1621626Y731575D01*
X1621605Y731480D01*
X1621579Y731385D01*
X1621550Y731292D01*
X1621517Y731200D01*
X1621481Y731109D01*
X1621441Y731020D01*
X1621397Y730933D01*
X1621350Y730848D01*
X1621300Y730764D01*
X1621246Y730682D01*
X1621189Y730603D01*
X1621128Y730526D01*
X1621065Y730452D01*
X1620999Y730380D01*
X1620930Y730311D01*
X1620858Y730245D01*
X1620784Y730182D01*
X1620707Y730121D01*
X1620628Y730064D01*
X1620546Y730010D01*
X1620463Y729960D01*
X1620377Y729913D01*
X1620290Y729869D01*
X1620201Y729829D01*
X1620110Y729793D01*
X1620018Y729760D01*
X1619925Y729731D01*
X1619830Y729705D01*
X1619735Y729684D01*
X1619639Y729666D01*
X1619542Y729653D01*
X1619445Y729643D01*
X1619348Y729637D01*
X1619250Y729635D01*
X1619152Y729637D01*
X1619055Y729643D01*
X1618958Y729653D01*
X1618861Y729666D01*
X1618765Y729684D01*
X1618670Y729705D01*
X1618575Y729731D01*
X1618482Y729760D01*
X1618390Y729793D01*
X1618299Y729829D01*
X1618210Y729869D01*
X1618123Y729913D01*
X1618038Y729960D01*
X1617954Y730010D01*
X1617872Y730064D01*
X1617793Y730121D01*
X1617716Y730182D01*
X1617642Y730245D01*
X1617570Y730311D01*
X1617501Y730380D01*
X1617435Y730452D01*
X1617372Y730526D01*
X1617311Y730603D01*
X1617254Y730682D01*
X1617200Y730764D01*
X1617150Y730848D01*
X1617103Y730933D01*
X1617059Y731020D01*
X1617019Y731109D01*
X1616983Y731200D01*
X1616950Y731292D01*
X1616921Y731385D01*
X1616895Y731480D01*
X1616874Y731575D01*
X1616856Y731671D01*
X1616843Y731768D01*
X1616833Y731865D01*
X1616827Y731962D01*
X1616825Y732060D01*
X1616825Y738365D01*
X1809750Y738365D02*
X1809750Y729635D01*
X1810720Y729635D02*
X1808780Y729635D01*
X1808780Y738365D02*
X1810720Y738365D01*
X2002675Y735940D02*
X2002675Y732060D01*
X2002675Y735940D02*
X2002673Y736038D01*
X2002667Y736135D01*
X2002657Y736232D01*
X2002644Y736329D01*
X2002626Y736425D01*
X2002605Y736520D01*
X2002579Y736615D01*
X2002550Y736708D01*
X2002517Y736800D01*
X2002481Y736891D01*
X2002441Y736980D01*
X2002397Y737067D01*
X2002350Y737153D01*
X2002300Y737236D01*
X2002246Y737318D01*
X2002189Y737397D01*
X2002128Y737474D01*
X2002065Y737548D01*
X2001999Y737620D01*
X2001930Y737689D01*
X2001858Y737755D01*
X2001784Y737818D01*
X2001707Y737879D01*
X2001628Y737936D01*
X2001546Y737990D01*
X2001463Y738040D01*
X2001377Y738087D01*
X2001290Y738131D01*
X2001201Y738171D01*
X2001110Y738207D01*
X2001018Y738240D01*
X2000925Y738269D01*
X2000830Y738295D01*
X2000735Y738316D01*
X2000639Y738334D01*
X2000542Y738347D01*
X2000445Y738357D01*
X2000348Y738363D01*
X2000250Y738365D01*
X2000152Y738363D01*
X2000055Y738357D01*
X1999958Y738347D01*
X1999861Y738334D01*
X1999765Y738316D01*
X1999670Y738295D01*
X1999575Y738269D01*
X1999482Y738240D01*
X1999390Y738207D01*
X1999299Y738171D01*
X1999210Y738131D01*
X1999123Y738087D01*
X1999038Y738040D01*
X1998954Y737990D01*
X1998872Y737936D01*
X1998793Y737879D01*
X1998716Y737818D01*
X1998642Y737755D01*
X1998570Y737689D01*
X1998501Y737620D01*
X1998435Y737548D01*
X1998372Y737474D01*
X1998311Y737397D01*
X1998254Y737318D01*
X1998200Y737236D01*
X1998150Y737153D01*
X1998103Y737067D01*
X1998059Y736980D01*
X1998019Y736891D01*
X1997983Y736800D01*
X1997950Y736708D01*
X1997921Y736615D01*
X1997895Y736520D01*
X1997874Y736425D01*
X1997856Y736329D01*
X1997843Y736232D01*
X1997833Y736135D01*
X1997827Y736038D01*
X1997825Y735940D01*
X1997825Y732060D01*
X1997827Y731962D01*
X1997833Y731865D01*
X1997843Y731768D01*
X1997856Y731671D01*
X1997874Y731575D01*
X1997895Y731480D01*
X1997921Y731385D01*
X1997950Y731292D01*
X1997983Y731200D01*
X1998019Y731109D01*
X1998059Y731020D01*
X1998103Y730933D01*
X1998150Y730848D01*
X1998200Y730764D01*
X1998254Y730682D01*
X1998311Y730603D01*
X1998372Y730526D01*
X1998435Y730452D01*
X1998501Y730380D01*
X1998570Y730311D01*
X1998642Y730245D01*
X1998716Y730182D01*
X1998793Y730121D01*
X1998872Y730064D01*
X1998954Y730010D01*
X1999038Y729960D01*
X1999123Y729913D01*
X1999210Y729869D01*
X1999299Y729829D01*
X1999390Y729793D01*
X1999482Y729760D01*
X1999575Y729731D01*
X1999670Y729705D01*
X1999765Y729684D01*
X1999861Y729666D01*
X1999958Y729653D01*
X2000055Y729643D01*
X2000152Y729637D01*
X2000250Y729635D01*
X2000348Y729637D01*
X2000445Y729643D01*
X2000542Y729653D01*
X2000639Y729666D01*
X2000735Y729684D01*
X2000830Y729705D01*
X2000925Y729731D01*
X2001018Y729760D01*
X2001110Y729793D01*
X2001201Y729829D01*
X2001290Y729869D01*
X2001377Y729913D01*
X2001463Y729960D01*
X2001546Y730010D01*
X2001628Y730064D01*
X2001707Y730121D01*
X2001784Y730182D01*
X2001858Y730245D01*
X2001930Y730311D01*
X2001999Y730380D01*
X2002065Y730452D01*
X2002128Y730526D01*
X2002189Y730603D01*
X2002246Y730682D01*
X2002300Y730764D01*
X2002350Y730848D01*
X2002397Y730933D01*
X2002441Y731020D01*
X2002481Y731109D01*
X2002517Y731200D01*
X2002550Y731292D01*
X2002579Y731385D01*
X2002605Y731480D01*
X2002626Y731575D01*
X2002644Y731671D01*
X2002657Y731768D01*
X2002667Y731865D01*
X2002673Y731962D01*
X2002675Y732060D01*
X2193175Y729635D02*
X2193175Y738365D01*
X2190750Y738365D01*
X2190652Y738363D01*
X2190555Y738357D01*
X2190458Y738347D01*
X2190361Y738334D01*
X2190265Y738316D01*
X2190170Y738295D01*
X2190075Y738269D01*
X2189982Y738240D01*
X2189890Y738207D01*
X2189799Y738171D01*
X2189710Y738131D01*
X2189623Y738087D01*
X2189538Y738040D01*
X2189454Y737990D01*
X2189372Y737936D01*
X2189293Y737879D01*
X2189216Y737818D01*
X2189142Y737755D01*
X2189070Y737689D01*
X2189001Y737620D01*
X2188935Y737548D01*
X2188872Y737474D01*
X2188811Y737397D01*
X2188754Y737318D01*
X2188700Y737236D01*
X2188650Y737153D01*
X2188603Y737067D01*
X2188559Y736980D01*
X2188519Y736891D01*
X2188483Y736800D01*
X2188450Y736708D01*
X2188421Y736615D01*
X2188395Y736520D01*
X2188374Y736425D01*
X2188356Y736329D01*
X2188343Y736232D01*
X2188333Y736135D01*
X2188327Y736038D01*
X2188325Y735940D01*
X2188327Y735842D01*
X2188333Y735745D01*
X2188343Y735648D01*
X2188356Y735551D01*
X2188374Y735455D01*
X2188395Y735360D01*
X2188421Y735265D01*
X2188450Y735172D01*
X2188483Y735080D01*
X2188519Y734989D01*
X2188559Y734900D01*
X2188603Y734813D01*
X2188650Y734728D01*
X2188700Y734644D01*
X2188754Y734562D01*
X2188811Y734483D01*
X2188872Y734406D01*
X2188935Y734332D01*
X2189001Y734260D01*
X2189070Y734191D01*
X2189142Y734125D01*
X2189216Y734062D01*
X2189293Y734001D01*
X2189372Y733944D01*
X2189454Y733890D01*
X2189538Y733840D01*
X2189623Y733793D01*
X2189710Y733749D01*
X2189799Y733709D01*
X2189890Y733673D01*
X2189982Y733640D01*
X2190075Y733611D01*
X2190170Y733585D01*
X2190265Y733564D01*
X2190361Y733546D01*
X2190458Y733533D01*
X2190555Y733523D01*
X2190652Y733517D01*
X2190750Y733515D01*
X2193175Y733515D01*
X2380523Y728665D02*
X2381978Y728665D01*
X2381978Y739335D01*
X2380523Y739335D01*
X2571023Y739335D02*
X2572478Y739335D01*
X2571023Y739335D02*
X2571023Y728665D01*
X2572478Y728665D01*
X282776Y539135D02*
X280836Y539135D01*
X282776Y539135D02*
X282863Y539137D01*
X282950Y539143D01*
X283036Y539153D01*
X283122Y539166D01*
X283208Y539184D01*
X283292Y539205D01*
X283375Y539230D01*
X283458Y539259D01*
X283538Y539291D01*
X283618Y539327D01*
X283695Y539367D01*
X283771Y539410D01*
X283845Y539456D01*
X283916Y539506D01*
X283986Y539558D01*
X284052Y539614D01*
X284117Y539673D01*
X284178Y539734D01*
X284237Y539799D01*
X284293Y539865D01*
X284345Y539935D01*
X284395Y540006D01*
X284441Y540080D01*
X284484Y540156D01*
X284524Y540233D01*
X284560Y540313D01*
X284592Y540393D01*
X284621Y540476D01*
X284646Y540559D01*
X284667Y540643D01*
X284685Y540729D01*
X284698Y540815D01*
X284708Y540901D01*
X284714Y540988D01*
X284716Y541075D01*
X284716Y545925D01*
X284714Y546012D01*
X284708Y546099D01*
X284698Y546185D01*
X284685Y546271D01*
X284667Y546357D01*
X284646Y546441D01*
X284621Y546524D01*
X284592Y546607D01*
X284560Y546687D01*
X284524Y546767D01*
X284484Y546844D01*
X284441Y546920D01*
X284395Y546994D01*
X284345Y547065D01*
X284293Y547135D01*
X284237Y547201D01*
X284178Y547266D01*
X284117Y547327D01*
X284052Y547386D01*
X283986Y547442D01*
X283916Y547494D01*
X283845Y547544D01*
X283771Y547590D01*
X283695Y547633D01*
X283618Y547673D01*
X283538Y547709D01*
X283458Y547741D01*
X283375Y547770D01*
X283292Y547795D01*
X283208Y547816D01*
X283122Y547834D01*
X283036Y547847D01*
X282950Y547857D01*
X282863Y547863D01*
X282776Y547865D01*
X280836Y547865D01*
X276709Y547865D02*
X276709Y539135D01*
X276709Y547865D02*
X274284Y547865D01*
X274186Y547863D01*
X274089Y547857D01*
X273992Y547847D01*
X273895Y547834D01*
X273799Y547816D01*
X273704Y547795D01*
X273609Y547769D01*
X273516Y547740D01*
X273424Y547707D01*
X273333Y547671D01*
X273244Y547631D01*
X273157Y547587D01*
X273072Y547540D01*
X272988Y547490D01*
X272906Y547436D01*
X272827Y547379D01*
X272750Y547318D01*
X272676Y547255D01*
X272604Y547189D01*
X272535Y547120D01*
X272469Y547048D01*
X272406Y546974D01*
X272345Y546897D01*
X272288Y546818D01*
X272234Y546736D01*
X272184Y546653D01*
X272137Y546567D01*
X272093Y546480D01*
X272053Y546391D01*
X272017Y546300D01*
X271984Y546208D01*
X271955Y546115D01*
X271929Y546020D01*
X271908Y545925D01*
X271890Y545829D01*
X271877Y545732D01*
X271867Y545635D01*
X271861Y545538D01*
X271859Y545440D01*
X271861Y545342D01*
X271867Y545245D01*
X271877Y545148D01*
X271890Y545051D01*
X271908Y544955D01*
X271929Y544860D01*
X271955Y544765D01*
X271984Y544672D01*
X272017Y544580D01*
X272053Y544489D01*
X272093Y544400D01*
X272137Y544313D01*
X272184Y544228D01*
X272234Y544144D01*
X272288Y544062D01*
X272345Y543983D01*
X272406Y543906D01*
X272469Y543832D01*
X272535Y543760D01*
X272604Y543691D01*
X272676Y543625D01*
X272750Y543562D01*
X272827Y543501D01*
X272906Y543444D01*
X272988Y543390D01*
X273072Y543340D01*
X273157Y543293D01*
X273244Y543249D01*
X273333Y543209D01*
X273424Y543173D01*
X273516Y543140D01*
X273609Y543111D01*
X273704Y543085D01*
X273799Y543064D01*
X273895Y543046D01*
X273992Y543033D01*
X274089Y543023D01*
X274186Y543017D01*
X274284Y543015D01*
X276709Y543015D01*
X265572Y539135D02*
X265485Y539137D01*
X265398Y539143D01*
X265312Y539153D01*
X265226Y539166D01*
X265140Y539184D01*
X265056Y539205D01*
X264973Y539230D01*
X264890Y539259D01*
X264810Y539291D01*
X264730Y539327D01*
X264653Y539367D01*
X264577Y539410D01*
X264503Y539456D01*
X264432Y539506D01*
X264362Y539558D01*
X264296Y539614D01*
X264231Y539673D01*
X264170Y539734D01*
X264111Y539799D01*
X264055Y539865D01*
X264003Y539935D01*
X263953Y540006D01*
X263907Y540080D01*
X263864Y540156D01*
X263824Y540233D01*
X263788Y540313D01*
X263756Y540393D01*
X263727Y540476D01*
X263702Y540559D01*
X263681Y540643D01*
X263663Y540729D01*
X263650Y540815D01*
X263640Y540901D01*
X263634Y540988D01*
X263632Y541075D01*
X265572Y539135D02*
X265696Y539137D01*
X265821Y539143D01*
X265945Y539152D01*
X266069Y539165D01*
X266192Y539182D01*
X266315Y539203D01*
X266437Y539227D01*
X266558Y539255D01*
X266678Y539287D01*
X266797Y539323D01*
X266916Y539362D01*
X267033Y539404D01*
X267148Y539450D01*
X267262Y539500D01*
X267375Y539553D01*
X267486Y539609D01*
X267595Y539669D01*
X267702Y539732D01*
X267808Y539798D01*
X267911Y539868D01*
X268012Y539940D01*
X268111Y540016D01*
X268207Y540095D01*
X268301Y540176D01*
X268393Y540260D01*
X268482Y540347D01*
X268239Y545925D02*
X268237Y546012D01*
X268231Y546099D01*
X268221Y546185D01*
X268208Y546271D01*
X268190Y546357D01*
X268169Y546441D01*
X268144Y546524D01*
X268115Y546607D01*
X268083Y546687D01*
X268047Y546767D01*
X268007Y546844D01*
X267964Y546920D01*
X267918Y546994D01*
X267868Y547065D01*
X267816Y547135D01*
X267760Y547201D01*
X267701Y547266D01*
X267640Y547327D01*
X267575Y547386D01*
X267509Y547442D01*
X267439Y547494D01*
X267368Y547544D01*
X267294Y547590D01*
X267218Y547633D01*
X267141Y547673D01*
X267061Y547709D01*
X266981Y547741D01*
X266898Y547770D01*
X266815Y547795D01*
X266731Y547816D01*
X266645Y547834D01*
X266559Y547847D01*
X266473Y547857D01*
X266386Y547863D01*
X266299Y547865D01*
X266299Y547866D02*
X266182Y547864D01*
X266065Y547858D01*
X265948Y547849D01*
X265832Y547836D01*
X265716Y547819D01*
X265601Y547798D01*
X265487Y547774D01*
X265373Y547746D01*
X265260Y547715D01*
X265149Y547679D01*
X265038Y547641D01*
X264929Y547598D01*
X264821Y547552D01*
X264715Y547503D01*
X264611Y547450D01*
X264508Y547394D01*
X264407Y547335D01*
X264308Y547273D01*
X264211Y547207D01*
X264116Y547138D01*
X267269Y544228D02*
X267342Y544273D01*
X267412Y544321D01*
X267480Y544371D01*
X267546Y544425D01*
X267610Y544482D01*
X267671Y544541D01*
X267730Y544603D01*
X267786Y544668D01*
X267839Y544734D01*
X267889Y544803D01*
X267936Y544875D01*
X267979Y544948D01*
X268020Y545022D01*
X268058Y545099D01*
X268092Y545177D01*
X268122Y545257D01*
X268149Y545337D01*
X268173Y545419D01*
X268193Y545502D01*
X268210Y545586D01*
X268222Y545670D01*
X268232Y545755D01*
X268237Y545840D01*
X268239Y545925D01*
X264602Y542772D02*
X264529Y542727D01*
X264459Y542679D01*
X264391Y542629D01*
X264325Y542575D01*
X264261Y542518D01*
X264200Y542459D01*
X264141Y542397D01*
X264085Y542332D01*
X264032Y542266D01*
X263982Y542197D01*
X263935Y542125D01*
X263892Y542052D01*
X263851Y541978D01*
X263813Y541901D01*
X263779Y541823D01*
X263749Y541743D01*
X263722Y541663D01*
X263698Y541581D01*
X263678Y541498D01*
X263661Y541414D01*
X263649Y541330D01*
X263639Y541245D01*
X263634Y541160D01*
X263632Y541075D01*
X264602Y542773D02*
X267269Y544228D01*
X259459Y547865D02*
X259459Y539135D01*
X255579Y539135D01*
X250076Y539135D02*
X248136Y539135D01*
X250076Y539135D02*
X250163Y539137D01*
X250250Y539143D01*
X250336Y539153D01*
X250422Y539166D01*
X250508Y539184D01*
X250592Y539205D01*
X250675Y539230D01*
X250758Y539259D01*
X250838Y539291D01*
X250918Y539327D01*
X250995Y539367D01*
X251071Y539410D01*
X251145Y539456D01*
X251216Y539506D01*
X251286Y539558D01*
X251352Y539614D01*
X251417Y539673D01*
X251478Y539734D01*
X251537Y539799D01*
X251593Y539865D01*
X251645Y539935D01*
X251695Y540006D01*
X251741Y540080D01*
X251784Y540156D01*
X251824Y540233D01*
X251860Y540313D01*
X251892Y540393D01*
X251921Y540476D01*
X251946Y540559D01*
X251967Y540643D01*
X251985Y540729D01*
X251998Y540815D01*
X252008Y540901D01*
X252014Y540988D01*
X252016Y541075D01*
X252016Y545925D01*
X252014Y546012D01*
X252008Y546099D01*
X251998Y546185D01*
X251985Y546271D01*
X251967Y546357D01*
X251946Y546441D01*
X251921Y546524D01*
X251892Y546607D01*
X251860Y546687D01*
X251824Y546767D01*
X251784Y546844D01*
X251741Y546920D01*
X251695Y546994D01*
X251645Y547065D01*
X251593Y547135D01*
X251537Y547201D01*
X251478Y547266D01*
X251417Y547327D01*
X251352Y547386D01*
X251286Y547442D01*
X251216Y547494D01*
X251145Y547544D01*
X251071Y547590D01*
X250995Y547633D01*
X250918Y547673D01*
X250838Y547709D01*
X250758Y547741D01*
X250675Y547770D01*
X250592Y547795D01*
X250508Y547816D01*
X250422Y547834D01*
X250336Y547847D01*
X250250Y547857D01*
X250163Y547863D01*
X250076Y547865D01*
X248136Y547865D01*
X244009Y547865D02*
X244009Y539135D01*
X244009Y542530D02*
X239159Y547865D01*
X242069Y544470D02*
X239159Y539135D01*
X523875Y547865D02*
X526785Y539135D01*
X520965Y539135D02*
X523875Y547865D01*
X521693Y541318D02*
X526058Y541318D01*
X711950Y541075D02*
X711952Y540988D01*
X711958Y540901D01*
X711968Y540815D01*
X711981Y540729D01*
X711999Y540643D01*
X712020Y540559D01*
X712045Y540476D01*
X712074Y540393D01*
X712106Y540313D01*
X712142Y540233D01*
X712182Y540156D01*
X712225Y540080D01*
X712271Y540006D01*
X712321Y539935D01*
X712373Y539865D01*
X712429Y539799D01*
X712488Y539734D01*
X712549Y539673D01*
X712614Y539614D01*
X712680Y539558D01*
X712750Y539506D01*
X712821Y539456D01*
X712895Y539410D01*
X712971Y539367D01*
X713048Y539327D01*
X713128Y539291D01*
X713208Y539259D01*
X713291Y539230D01*
X713374Y539205D01*
X713458Y539184D01*
X713544Y539166D01*
X713630Y539153D01*
X713716Y539143D01*
X713803Y539137D01*
X713890Y539135D01*
X714014Y539137D01*
X714139Y539143D01*
X714263Y539152D01*
X714387Y539165D01*
X714510Y539182D01*
X714633Y539203D01*
X714755Y539227D01*
X714876Y539255D01*
X714996Y539287D01*
X715115Y539323D01*
X715234Y539362D01*
X715351Y539404D01*
X715466Y539450D01*
X715580Y539500D01*
X715693Y539553D01*
X715804Y539609D01*
X715913Y539669D01*
X716020Y539732D01*
X716126Y539798D01*
X716229Y539868D01*
X716330Y539940D01*
X716429Y540016D01*
X716525Y540095D01*
X716619Y540176D01*
X716711Y540260D01*
X716800Y540347D01*
X716558Y545925D02*
X716556Y546012D01*
X716550Y546099D01*
X716540Y546185D01*
X716527Y546271D01*
X716509Y546357D01*
X716488Y546441D01*
X716463Y546524D01*
X716434Y546607D01*
X716402Y546687D01*
X716366Y546767D01*
X716326Y546844D01*
X716283Y546920D01*
X716237Y546994D01*
X716187Y547065D01*
X716135Y547135D01*
X716079Y547201D01*
X716020Y547266D01*
X715959Y547327D01*
X715894Y547386D01*
X715828Y547442D01*
X715758Y547494D01*
X715687Y547544D01*
X715613Y547590D01*
X715537Y547633D01*
X715460Y547673D01*
X715380Y547709D01*
X715300Y547741D01*
X715217Y547770D01*
X715134Y547795D01*
X715050Y547816D01*
X714964Y547834D01*
X714878Y547847D01*
X714792Y547857D01*
X714705Y547863D01*
X714618Y547865D01*
X714618Y547866D02*
X714501Y547864D01*
X714384Y547858D01*
X714267Y547849D01*
X714151Y547836D01*
X714035Y547819D01*
X713920Y547798D01*
X713806Y547774D01*
X713692Y547746D01*
X713579Y547715D01*
X713468Y547679D01*
X713357Y547641D01*
X713248Y547598D01*
X713140Y547552D01*
X713034Y547503D01*
X712930Y547450D01*
X712827Y547394D01*
X712726Y547335D01*
X712627Y547273D01*
X712530Y547207D01*
X712435Y547138D01*
X715587Y544228D02*
X715660Y544273D01*
X715730Y544321D01*
X715798Y544371D01*
X715864Y544425D01*
X715928Y544482D01*
X715989Y544541D01*
X716048Y544603D01*
X716104Y544668D01*
X716157Y544734D01*
X716207Y544803D01*
X716254Y544875D01*
X716297Y544948D01*
X716338Y545022D01*
X716376Y545099D01*
X716410Y545177D01*
X716440Y545257D01*
X716467Y545337D01*
X716491Y545419D01*
X716511Y545502D01*
X716528Y545586D01*
X716540Y545670D01*
X716550Y545755D01*
X716555Y545840D01*
X716557Y545925D01*
X712920Y542772D02*
X712847Y542727D01*
X712777Y542679D01*
X712709Y542629D01*
X712643Y542575D01*
X712579Y542518D01*
X712518Y542459D01*
X712459Y542397D01*
X712403Y542332D01*
X712350Y542266D01*
X712300Y542197D01*
X712253Y542125D01*
X712210Y542052D01*
X712169Y541978D01*
X712131Y541901D01*
X712097Y541823D01*
X712067Y541743D01*
X712040Y541663D01*
X712016Y541581D01*
X711996Y541498D01*
X711979Y541414D01*
X711967Y541330D01*
X711957Y541245D01*
X711952Y541160D01*
X711950Y541075D01*
X712920Y542773D02*
X715588Y544228D01*
X907300Y547865D02*
X907300Y539135D01*
X907300Y547865D02*
X904875Y547865D01*
X904777Y547863D01*
X904680Y547857D01*
X904583Y547847D01*
X904486Y547834D01*
X904390Y547816D01*
X904295Y547795D01*
X904200Y547769D01*
X904107Y547740D01*
X904015Y547707D01*
X903924Y547671D01*
X903835Y547631D01*
X903748Y547587D01*
X903663Y547540D01*
X903579Y547490D01*
X903497Y547436D01*
X903418Y547379D01*
X903341Y547318D01*
X903267Y547255D01*
X903195Y547189D01*
X903126Y547120D01*
X903060Y547048D01*
X902997Y546974D01*
X902936Y546897D01*
X902879Y546818D01*
X902825Y546736D01*
X902775Y546653D01*
X902728Y546567D01*
X902684Y546480D01*
X902644Y546391D01*
X902608Y546300D01*
X902575Y546208D01*
X902546Y546115D01*
X902520Y546020D01*
X902499Y545925D01*
X902481Y545829D01*
X902468Y545732D01*
X902458Y545635D01*
X902452Y545538D01*
X902450Y545440D01*
X902450Y541560D01*
X902452Y541462D01*
X902458Y541365D01*
X902468Y541268D01*
X902481Y541171D01*
X902499Y541075D01*
X902520Y540980D01*
X902546Y540885D01*
X902575Y540792D01*
X902608Y540700D01*
X902644Y540609D01*
X902684Y540520D01*
X902728Y540433D01*
X902775Y540348D01*
X902825Y540264D01*
X902879Y540182D01*
X902936Y540103D01*
X902997Y540026D01*
X903060Y539952D01*
X903126Y539880D01*
X903195Y539811D01*
X903267Y539745D01*
X903341Y539682D01*
X903418Y539621D01*
X903497Y539564D01*
X903579Y539510D01*
X903663Y539460D01*
X903748Y539413D01*
X903835Y539369D01*
X903924Y539329D01*
X904015Y539293D01*
X904107Y539260D01*
X904200Y539231D01*
X904295Y539205D01*
X904390Y539184D01*
X904486Y539166D01*
X904583Y539153D01*
X904680Y539143D01*
X904777Y539137D01*
X904875Y539135D01*
X907300Y539135D01*
X1097315Y539135D02*
X1097315Y547865D01*
X1093435Y547865D01*
X1093435Y543985D02*
X1097315Y543985D01*
X1283450Y543985D02*
X1284905Y543985D01*
X1283450Y543985D02*
X1283450Y539135D01*
X1286360Y539135D01*
X1286447Y539137D01*
X1286534Y539143D01*
X1286620Y539153D01*
X1286706Y539166D01*
X1286792Y539184D01*
X1286876Y539205D01*
X1286959Y539230D01*
X1287042Y539259D01*
X1287122Y539291D01*
X1287202Y539327D01*
X1287279Y539367D01*
X1287355Y539410D01*
X1287429Y539456D01*
X1287500Y539506D01*
X1287570Y539558D01*
X1287636Y539614D01*
X1287701Y539673D01*
X1287762Y539734D01*
X1287821Y539799D01*
X1287877Y539865D01*
X1287929Y539935D01*
X1287979Y540006D01*
X1288025Y540080D01*
X1288068Y540156D01*
X1288108Y540233D01*
X1288144Y540313D01*
X1288176Y540393D01*
X1288205Y540476D01*
X1288230Y540559D01*
X1288251Y540643D01*
X1288269Y540729D01*
X1288282Y540815D01*
X1288292Y540901D01*
X1288298Y540988D01*
X1288300Y541075D01*
X1288300Y545925D01*
X1288298Y546012D01*
X1288292Y546099D01*
X1288282Y546185D01*
X1288269Y546271D01*
X1288251Y546357D01*
X1288230Y546441D01*
X1288205Y546524D01*
X1288176Y546607D01*
X1288144Y546687D01*
X1288108Y546767D01*
X1288068Y546844D01*
X1288025Y546920D01*
X1287979Y546994D01*
X1287929Y547065D01*
X1287877Y547135D01*
X1287821Y547201D01*
X1287762Y547266D01*
X1287701Y547327D01*
X1287636Y547386D01*
X1287570Y547442D01*
X1287500Y547494D01*
X1287429Y547544D01*
X1287355Y547590D01*
X1287279Y547633D01*
X1287202Y547673D01*
X1287122Y547709D01*
X1287042Y547741D01*
X1286959Y547770D01*
X1286876Y547795D01*
X1286792Y547816D01*
X1286706Y547834D01*
X1286620Y547847D01*
X1286534Y547857D01*
X1286447Y547863D01*
X1286360Y547865D01*
X1283450Y547865D01*
X1478800Y547865D02*
X1478800Y539135D01*
X1478800Y543985D02*
X1473950Y543985D01*
X1473950Y547865D02*
X1473950Y539135D01*
X1665420Y541075D02*
X1665420Y547865D01*
X1665420Y541075D02*
X1665422Y540988D01*
X1665428Y540901D01*
X1665438Y540815D01*
X1665451Y540729D01*
X1665469Y540643D01*
X1665490Y540559D01*
X1665515Y540476D01*
X1665544Y540393D01*
X1665576Y540313D01*
X1665612Y540233D01*
X1665652Y540156D01*
X1665695Y540080D01*
X1665741Y540006D01*
X1665791Y539935D01*
X1665843Y539865D01*
X1665899Y539799D01*
X1665958Y539734D01*
X1666019Y539673D01*
X1666084Y539614D01*
X1666150Y539558D01*
X1666220Y539506D01*
X1666291Y539456D01*
X1666365Y539410D01*
X1666441Y539367D01*
X1666518Y539327D01*
X1666598Y539291D01*
X1666678Y539259D01*
X1666761Y539230D01*
X1666844Y539205D01*
X1666928Y539184D01*
X1667014Y539166D01*
X1667100Y539153D01*
X1667186Y539143D01*
X1667273Y539137D01*
X1667360Y539135D01*
X1668330Y539135D01*
X1859800Y539135D02*
X1859800Y547865D01*
X1854950Y547865D02*
X1859800Y542530D01*
X1857860Y544470D02*
X1854950Y539135D01*
X2049815Y539135D02*
X2049815Y547865D01*
X2049815Y539135D02*
X2045935Y539135D01*
X2253737Y539135D02*
X2255677Y539135D01*
X2255764Y539137D01*
X2255851Y539143D01*
X2255937Y539153D01*
X2256023Y539166D01*
X2256109Y539184D01*
X2256193Y539205D01*
X2256276Y539230D01*
X2256359Y539259D01*
X2256439Y539291D01*
X2256519Y539327D01*
X2256596Y539367D01*
X2256672Y539410D01*
X2256746Y539456D01*
X2256817Y539506D01*
X2256887Y539558D01*
X2256953Y539614D01*
X2257018Y539673D01*
X2257079Y539734D01*
X2257138Y539799D01*
X2257194Y539865D01*
X2257246Y539935D01*
X2257296Y540006D01*
X2257342Y540080D01*
X2257385Y540156D01*
X2257425Y540233D01*
X2257461Y540313D01*
X2257493Y540393D01*
X2257522Y540476D01*
X2257547Y540559D01*
X2257568Y540643D01*
X2257586Y540729D01*
X2257599Y540815D01*
X2257609Y540901D01*
X2257615Y540988D01*
X2257617Y541075D01*
X2257617Y545925D01*
X2257615Y546012D01*
X2257609Y546099D01*
X2257599Y546185D01*
X2257586Y546271D01*
X2257568Y546357D01*
X2257547Y546441D01*
X2257522Y546524D01*
X2257493Y546607D01*
X2257461Y546687D01*
X2257425Y546767D01*
X2257385Y546844D01*
X2257342Y546920D01*
X2257296Y546994D01*
X2257246Y547065D01*
X2257194Y547135D01*
X2257138Y547201D01*
X2257079Y547266D01*
X2257018Y547327D01*
X2256953Y547386D01*
X2256887Y547442D01*
X2256817Y547494D01*
X2256746Y547544D01*
X2256672Y547590D01*
X2256596Y547633D01*
X2256519Y547673D01*
X2256439Y547709D01*
X2256359Y547741D01*
X2256276Y547770D01*
X2256193Y547795D01*
X2256109Y547816D01*
X2256023Y547834D01*
X2255937Y547847D01*
X2255851Y547857D01*
X2255764Y547863D01*
X2255677Y547865D01*
X2253737Y547865D01*
X2250083Y545440D02*
X2250083Y541560D01*
X2250083Y545440D02*
X2250081Y545538D01*
X2250075Y545635D01*
X2250065Y545732D01*
X2250052Y545829D01*
X2250034Y545925D01*
X2250013Y546020D01*
X2249987Y546115D01*
X2249958Y546208D01*
X2249925Y546300D01*
X2249889Y546391D01*
X2249849Y546480D01*
X2249805Y546567D01*
X2249758Y546653D01*
X2249708Y546736D01*
X2249654Y546818D01*
X2249597Y546897D01*
X2249536Y546974D01*
X2249473Y547048D01*
X2249407Y547120D01*
X2249338Y547189D01*
X2249266Y547255D01*
X2249192Y547318D01*
X2249115Y547379D01*
X2249036Y547436D01*
X2248954Y547490D01*
X2248871Y547540D01*
X2248785Y547587D01*
X2248698Y547631D01*
X2248609Y547671D01*
X2248518Y547707D01*
X2248426Y547740D01*
X2248333Y547769D01*
X2248238Y547795D01*
X2248143Y547816D01*
X2248047Y547834D01*
X2247950Y547847D01*
X2247853Y547857D01*
X2247756Y547863D01*
X2247658Y547865D01*
X2247560Y547863D01*
X2247463Y547857D01*
X2247366Y547847D01*
X2247269Y547834D01*
X2247173Y547816D01*
X2247078Y547795D01*
X2246983Y547769D01*
X2246890Y547740D01*
X2246798Y547707D01*
X2246707Y547671D01*
X2246618Y547631D01*
X2246531Y547587D01*
X2246446Y547540D01*
X2246362Y547490D01*
X2246280Y547436D01*
X2246201Y547379D01*
X2246124Y547318D01*
X2246050Y547255D01*
X2245978Y547189D01*
X2245909Y547120D01*
X2245843Y547048D01*
X2245780Y546974D01*
X2245719Y546897D01*
X2245662Y546818D01*
X2245608Y546736D01*
X2245558Y546653D01*
X2245511Y546567D01*
X2245467Y546480D01*
X2245427Y546391D01*
X2245391Y546300D01*
X2245358Y546208D01*
X2245329Y546115D01*
X2245303Y546020D01*
X2245282Y545925D01*
X2245264Y545829D01*
X2245251Y545732D01*
X2245241Y545635D01*
X2245235Y545538D01*
X2245233Y545440D01*
X2245233Y541560D01*
X2245235Y541462D01*
X2245241Y541365D01*
X2245251Y541268D01*
X2245264Y541171D01*
X2245282Y541075D01*
X2245303Y540980D01*
X2245329Y540885D01*
X2245358Y540792D01*
X2245391Y540700D01*
X2245427Y540609D01*
X2245467Y540520D01*
X2245511Y540433D01*
X2245558Y540348D01*
X2245608Y540264D01*
X2245662Y540182D01*
X2245719Y540103D01*
X2245780Y540026D01*
X2245843Y539952D01*
X2245909Y539880D01*
X2245978Y539811D01*
X2246050Y539745D01*
X2246124Y539682D01*
X2246201Y539621D01*
X2246280Y539564D01*
X2246362Y539510D01*
X2246446Y539460D01*
X2246531Y539413D01*
X2246618Y539369D01*
X2246707Y539329D01*
X2246798Y539293D01*
X2246890Y539260D01*
X2246983Y539231D01*
X2247078Y539205D01*
X2247173Y539184D01*
X2247269Y539166D01*
X2247366Y539153D01*
X2247463Y539143D01*
X2247560Y539137D01*
X2247658Y539135D01*
X2247756Y539137D01*
X2247853Y539143D01*
X2247950Y539153D01*
X2248047Y539166D01*
X2248143Y539184D01*
X2248238Y539205D01*
X2248333Y539231D01*
X2248426Y539260D01*
X2248518Y539293D01*
X2248609Y539329D01*
X2248698Y539369D01*
X2248785Y539413D01*
X2248871Y539460D01*
X2248954Y539510D01*
X2249036Y539564D01*
X2249115Y539621D01*
X2249192Y539682D01*
X2249266Y539745D01*
X2249338Y539811D01*
X2249407Y539880D01*
X2249473Y539952D01*
X2249536Y540026D01*
X2249597Y540103D01*
X2249654Y540182D01*
X2249708Y540264D01*
X2249758Y540348D01*
X2249805Y540433D01*
X2249849Y540520D01*
X2249889Y540609D01*
X2249925Y540700D01*
X2249958Y540792D01*
X2249987Y540885D01*
X2250013Y540980D01*
X2250034Y541075D01*
X2250052Y541171D01*
X2250065Y541268D01*
X2250075Y541365D01*
X2250081Y541462D01*
X2250083Y541560D01*
X2240760Y539135D02*
X2240760Y547865D01*
X2240760Y539135D02*
X2236880Y539135D01*
X2233283Y541560D02*
X2233283Y545440D01*
X2233281Y545538D01*
X2233275Y545635D01*
X2233265Y545732D01*
X2233252Y545829D01*
X2233234Y545925D01*
X2233213Y546020D01*
X2233187Y546115D01*
X2233158Y546208D01*
X2233125Y546300D01*
X2233089Y546391D01*
X2233049Y546480D01*
X2233005Y546567D01*
X2232958Y546653D01*
X2232908Y546736D01*
X2232854Y546818D01*
X2232797Y546897D01*
X2232736Y546974D01*
X2232673Y547048D01*
X2232607Y547120D01*
X2232538Y547189D01*
X2232466Y547255D01*
X2232392Y547318D01*
X2232315Y547379D01*
X2232236Y547436D01*
X2232154Y547490D01*
X2232071Y547540D01*
X2231985Y547587D01*
X2231898Y547631D01*
X2231809Y547671D01*
X2231718Y547707D01*
X2231626Y547740D01*
X2231533Y547769D01*
X2231438Y547795D01*
X2231343Y547816D01*
X2231247Y547834D01*
X2231150Y547847D01*
X2231053Y547857D01*
X2230956Y547863D01*
X2230858Y547865D01*
X2230760Y547863D01*
X2230663Y547857D01*
X2230566Y547847D01*
X2230469Y547834D01*
X2230373Y547816D01*
X2230278Y547795D01*
X2230183Y547769D01*
X2230090Y547740D01*
X2229998Y547707D01*
X2229907Y547671D01*
X2229818Y547631D01*
X2229731Y547587D01*
X2229646Y547540D01*
X2229562Y547490D01*
X2229480Y547436D01*
X2229401Y547379D01*
X2229324Y547318D01*
X2229250Y547255D01*
X2229178Y547189D01*
X2229109Y547120D01*
X2229043Y547048D01*
X2228980Y546974D01*
X2228919Y546897D01*
X2228862Y546818D01*
X2228808Y546736D01*
X2228758Y546653D01*
X2228711Y546567D01*
X2228667Y546480D01*
X2228627Y546391D01*
X2228591Y546300D01*
X2228558Y546208D01*
X2228529Y546115D01*
X2228503Y546020D01*
X2228482Y545925D01*
X2228464Y545829D01*
X2228451Y545732D01*
X2228441Y545635D01*
X2228435Y545538D01*
X2228433Y545440D01*
X2228433Y541560D01*
X2228435Y541462D01*
X2228441Y541365D01*
X2228451Y541268D01*
X2228464Y541171D01*
X2228482Y541075D01*
X2228503Y540980D01*
X2228529Y540885D01*
X2228558Y540792D01*
X2228591Y540700D01*
X2228627Y540609D01*
X2228667Y540520D01*
X2228711Y540433D01*
X2228758Y540348D01*
X2228808Y540264D01*
X2228862Y540182D01*
X2228919Y540103D01*
X2228980Y540026D01*
X2229043Y539952D01*
X2229109Y539880D01*
X2229178Y539811D01*
X2229250Y539745D01*
X2229324Y539682D01*
X2229401Y539621D01*
X2229480Y539564D01*
X2229562Y539510D01*
X2229646Y539460D01*
X2229731Y539413D01*
X2229818Y539369D01*
X2229907Y539329D01*
X2229998Y539293D01*
X2230090Y539260D01*
X2230183Y539231D01*
X2230278Y539205D01*
X2230373Y539184D01*
X2230469Y539166D01*
X2230566Y539153D01*
X2230663Y539143D01*
X2230760Y539137D01*
X2230858Y539135D01*
X2230956Y539137D01*
X2231053Y539143D01*
X2231150Y539153D01*
X2231247Y539166D01*
X2231343Y539184D01*
X2231438Y539205D01*
X2231533Y539231D01*
X2231626Y539260D01*
X2231718Y539293D01*
X2231809Y539329D01*
X2231898Y539369D01*
X2231985Y539413D01*
X2232071Y539460D01*
X2232154Y539510D01*
X2232236Y539564D01*
X2232315Y539621D01*
X2232392Y539682D01*
X2232466Y539745D01*
X2232538Y539811D01*
X2232607Y539880D01*
X2232673Y539952D01*
X2232736Y540026D01*
X2232797Y540103D01*
X2232854Y540182D01*
X2232908Y540264D01*
X2232958Y540348D01*
X2233005Y540433D01*
X2233049Y540520D01*
X2233089Y540609D01*
X2233125Y540700D01*
X2233158Y540792D01*
X2233187Y540885D01*
X2233213Y540980D01*
X2233234Y541075D01*
X2233252Y541171D01*
X2233265Y541268D01*
X2233275Y541365D01*
X2233281Y541462D01*
X2233283Y541560D01*
X2223983Y539135D02*
X2223983Y547865D01*
X2219133Y539135D01*
X2219133Y547865D01*
X2428875Y547865D02*
X2428875Y549805D01*
X621550Y357365D02*
X616700Y357365D01*
X621550Y348635D01*
X616700Y348635D01*
X806715Y357365D02*
X812535Y348635D01*
X806715Y348635D02*
X812535Y357365D01*
X998185Y348635D02*
X1000125Y348635D01*
X1000212Y348637D01*
X1000299Y348643D01*
X1000385Y348653D01*
X1000471Y348666D01*
X1000557Y348684D01*
X1000641Y348705D01*
X1000724Y348730D01*
X1000807Y348759D01*
X1000887Y348791D01*
X1000967Y348827D01*
X1001044Y348867D01*
X1001120Y348910D01*
X1001194Y348956D01*
X1001265Y349006D01*
X1001335Y349058D01*
X1001401Y349114D01*
X1001466Y349173D01*
X1001527Y349234D01*
X1001586Y349299D01*
X1001642Y349365D01*
X1001694Y349435D01*
X1001744Y349506D01*
X1001790Y349580D01*
X1001833Y349656D01*
X1001873Y349733D01*
X1001909Y349813D01*
X1001941Y349893D01*
X1001970Y349976D01*
X1001995Y350059D01*
X1002016Y350143D01*
X1002034Y350229D01*
X1002047Y350315D01*
X1002057Y350401D01*
X1002063Y350488D01*
X1002065Y350575D01*
X1002065Y355425D01*
X1002063Y355512D01*
X1002057Y355599D01*
X1002047Y355685D01*
X1002034Y355771D01*
X1002016Y355857D01*
X1001995Y355941D01*
X1001970Y356024D01*
X1001941Y356107D01*
X1001909Y356187D01*
X1001873Y356267D01*
X1001833Y356344D01*
X1001790Y356420D01*
X1001744Y356494D01*
X1001694Y356565D01*
X1001642Y356635D01*
X1001586Y356701D01*
X1001527Y356766D01*
X1001466Y356827D01*
X1001401Y356886D01*
X1001335Y356942D01*
X1001265Y356994D01*
X1001194Y357044D01*
X1001120Y357090D01*
X1001044Y357133D01*
X1000967Y357173D01*
X1000887Y357209D01*
X1000807Y357241D01*
X1000724Y357270D01*
X1000641Y357295D01*
X1000557Y357316D01*
X1000471Y357334D01*
X1000385Y357347D01*
X1000299Y357357D01*
X1000212Y357363D01*
X1000125Y357365D01*
X998185Y357365D01*
X1190625Y348635D02*
X1193535Y357365D01*
X1187715Y357365D02*
X1190625Y348635D01*
X1381125Y353485D02*
X1383550Y353485D01*
X1381125Y353485D02*
X1381027Y353483D01*
X1380930Y353477D01*
X1380833Y353467D01*
X1380736Y353454D01*
X1380640Y353436D01*
X1380545Y353415D01*
X1380450Y353389D01*
X1380357Y353360D01*
X1380265Y353327D01*
X1380174Y353291D01*
X1380085Y353251D01*
X1379998Y353207D01*
X1379913Y353160D01*
X1379829Y353110D01*
X1379747Y353056D01*
X1379668Y352999D01*
X1379591Y352938D01*
X1379517Y352875D01*
X1379445Y352809D01*
X1379376Y352740D01*
X1379310Y352668D01*
X1379247Y352594D01*
X1379186Y352517D01*
X1379129Y352438D01*
X1379075Y352356D01*
X1379025Y352273D01*
X1378978Y352187D01*
X1378934Y352100D01*
X1378894Y352011D01*
X1378858Y351920D01*
X1378825Y351828D01*
X1378796Y351735D01*
X1378770Y351640D01*
X1378749Y351545D01*
X1378731Y351449D01*
X1378718Y351352D01*
X1378708Y351255D01*
X1378702Y351158D01*
X1378700Y351060D01*
X1378702Y350962D01*
X1378708Y350865D01*
X1378718Y350768D01*
X1378731Y350671D01*
X1378749Y350575D01*
X1378770Y350480D01*
X1378796Y350385D01*
X1378825Y350292D01*
X1378858Y350200D01*
X1378894Y350109D01*
X1378934Y350020D01*
X1378978Y349933D01*
X1379025Y349848D01*
X1379075Y349764D01*
X1379129Y349682D01*
X1379186Y349603D01*
X1379247Y349526D01*
X1379310Y349452D01*
X1379376Y349380D01*
X1379445Y349311D01*
X1379517Y349245D01*
X1379591Y349182D01*
X1379668Y349121D01*
X1379747Y349064D01*
X1379829Y349010D01*
X1379913Y348960D01*
X1379998Y348913D01*
X1380085Y348869D01*
X1380174Y348829D01*
X1380265Y348793D01*
X1380357Y348760D01*
X1380450Y348731D01*
X1380545Y348705D01*
X1380640Y348684D01*
X1380736Y348666D01*
X1380833Y348653D01*
X1380930Y348643D01*
X1381027Y348637D01*
X1381125Y348635D01*
X1383550Y348635D01*
X1383550Y357365D01*
X1381125Y357365D01*
X1381038Y357363D01*
X1380951Y357357D01*
X1380865Y357347D01*
X1380779Y357334D01*
X1380693Y357316D01*
X1380609Y357295D01*
X1380526Y357270D01*
X1380443Y357241D01*
X1380363Y357209D01*
X1380283Y357173D01*
X1380206Y357133D01*
X1380130Y357090D01*
X1380056Y357044D01*
X1379985Y356994D01*
X1379915Y356942D01*
X1379849Y356886D01*
X1379784Y356827D01*
X1379723Y356766D01*
X1379664Y356701D01*
X1379608Y356635D01*
X1379556Y356565D01*
X1379506Y356494D01*
X1379460Y356420D01*
X1379417Y356344D01*
X1379377Y356267D01*
X1379341Y356187D01*
X1379309Y356107D01*
X1379280Y356024D01*
X1379255Y355941D01*
X1379234Y355857D01*
X1379216Y355771D01*
X1379203Y355685D01*
X1379193Y355599D01*
X1379187Y355512D01*
X1379185Y355425D01*
X1379187Y355338D01*
X1379193Y355251D01*
X1379203Y355165D01*
X1379216Y355079D01*
X1379234Y354993D01*
X1379255Y354909D01*
X1379280Y354826D01*
X1379309Y354743D01*
X1379341Y354663D01*
X1379377Y354583D01*
X1379417Y354506D01*
X1379460Y354430D01*
X1379506Y354356D01*
X1379556Y354285D01*
X1379608Y354215D01*
X1379664Y354149D01*
X1379723Y354084D01*
X1379784Y354023D01*
X1379849Y353964D01*
X1379915Y353908D01*
X1379985Y353856D01*
X1380056Y353806D01*
X1380130Y353760D01*
X1380206Y353717D01*
X1380283Y353677D01*
X1380363Y353641D01*
X1380443Y353609D01*
X1380526Y353580D01*
X1380609Y353555D01*
X1380693Y353534D01*
X1380779Y353516D01*
X1380865Y353503D01*
X1380951Y353493D01*
X1381038Y353487D01*
X1381125Y353485D01*
X1574050Y357365D02*
X1574050Y348635D01*
X1569200Y348635D02*
X1574050Y357365D01*
X1569200Y357365D02*
X1569200Y348635D01*
X1765035Y348635D02*
X1765035Y357365D01*
X1762125Y352515D01*
X1759215Y357365D01*
X1759215Y348635D01*
X1970479Y348635D02*
X1972419Y348635D01*
X1972506Y348637D01*
X1972593Y348643D01*
X1972679Y348653D01*
X1972765Y348666D01*
X1972851Y348684D01*
X1972935Y348705D01*
X1973018Y348730D01*
X1973101Y348759D01*
X1973181Y348791D01*
X1973261Y348827D01*
X1973338Y348867D01*
X1973414Y348910D01*
X1973488Y348956D01*
X1973559Y349006D01*
X1973629Y349058D01*
X1973695Y349114D01*
X1973760Y349173D01*
X1973821Y349234D01*
X1973880Y349299D01*
X1973936Y349365D01*
X1973988Y349435D01*
X1974038Y349506D01*
X1974084Y349580D01*
X1974127Y349656D01*
X1974167Y349733D01*
X1974203Y349813D01*
X1974235Y349893D01*
X1974264Y349976D01*
X1974289Y350059D01*
X1974310Y350143D01*
X1974328Y350229D01*
X1974341Y350315D01*
X1974351Y350401D01*
X1974357Y350488D01*
X1974359Y350575D01*
X1974359Y355425D01*
X1974357Y355512D01*
X1974351Y355599D01*
X1974341Y355685D01*
X1974328Y355771D01*
X1974310Y355857D01*
X1974289Y355941D01*
X1974264Y356024D01*
X1974235Y356107D01*
X1974203Y356187D01*
X1974167Y356267D01*
X1974127Y356344D01*
X1974084Y356420D01*
X1974038Y356494D01*
X1973988Y356565D01*
X1973936Y356635D01*
X1973880Y356701D01*
X1973821Y356766D01*
X1973760Y356827D01*
X1973695Y356886D01*
X1973629Y356942D01*
X1973559Y356994D01*
X1973488Y357044D01*
X1973414Y357090D01*
X1973338Y357133D01*
X1973261Y357173D01*
X1973181Y357209D01*
X1973101Y357241D01*
X1973018Y357270D01*
X1972935Y357295D01*
X1972851Y357316D01*
X1972765Y357334D01*
X1972679Y357347D01*
X1972593Y357357D01*
X1972506Y357363D01*
X1972419Y357365D01*
X1970479Y357365D01*
X1966826Y354940D02*
X1966826Y351060D01*
X1966826Y354940D02*
X1966824Y355038D01*
X1966818Y355135D01*
X1966808Y355232D01*
X1966795Y355329D01*
X1966777Y355425D01*
X1966756Y355520D01*
X1966730Y355615D01*
X1966701Y355708D01*
X1966668Y355800D01*
X1966632Y355891D01*
X1966592Y355980D01*
X1966548Y356067D01*
X1966501Y356153D01*
X1966451Y356236D01*
X1966397Y356318D01*
X1966340Y356397D01*
X1966279Y356474D01*
X1966216Y356548D01*
X1966150Y356620D01*
X1966081Y356689D01*
X1966009Y356755D01*
X1965935Y356818D01*
X1965858Y356879D01*
X1965779Y356936D01*
X1965697Y356990D01*
X1965614Y357040D01*
X1965528Y357087D01*
X1965441Y357131D01*
X1965352Y357171D01*
X1965261Y357207D01*
X1965169Y357240D01*
X1965076Y357269D01*
X1964981Y357295D01*
X1964886Y357316D01*
X1964790Y357334D01*
X1964693Y357347D01*
X1964596Y357357D01*
X1964499Y357363D01*
X1964401Y357365D01*
X1964303Y357363D01*
X1964206Y357357D01*
X1964109Y357347D01*
X1964012Y357334D01*
X1963916Y357316D01*
X1963821Y357295D01*
X1963726Y357269D01*
X1963633Y357240D01*
X1963541Y357207D01*
X1963450Y357171D01*
X1963361Y357131D01*
X1963274Y357087D01*
X1963189Y357040D01*
X1963105Y356990D01*
X1963023Y356936D01*
X1962944Y356879D01*
X1962867Y356818D01*
X1962793Y356755D01*
X1962721Y356689D01*
X1962652Y356620D01*
X1962586Y356548D01*
X1962523Y356474D01*
X1962462Y356397D01*
X1962405Y356318D01*
X1962351Y356236D01*
X1962301Y356153D01*
X1962254Y356067D01*
X1962210Y355980D01*
X1962170Y355891D01*
X1962134Y355800D01*
X1962101Y355708D01*
X1962072Y355615D01*
X1962046Y355520D01*
X1962025Y355425D01*
X1962007Y355329D01*
X1961994Y355232D01*
X1961984Y355135D01*
X1961978Y355038D01*
X1961976Y354940D01*
X1961976Y351060D01*
X1961978Y350962D01*
X1961984Y350865D01*
X1961994Y350768D01*
X1962007Y350671D01*
X1962025Y350575D01*
X1962046Y350480D01*
X1962072Y350385D01*
X1962101Y350292D01*
X1962134Y350200D01*
X1962170Y350109D01*
X1962210Y350020D01*
X1962254Y349933D01*
X1962301Y349848D01*
X1962351Y349764D01*
X1962405Y349682D01*
X1962462Y349603D01*
X1962523Y349526D01*
X1962586Y349452D01*
X1962652Y349380D01*
X1962721Y349311D01*
X1962793Y349245D01*
X1962867Y349182D01*
X1962944Y349121D01*
X1963023Y349064D01*
X1963105Y349010D01*
X1963189Y348960D01*
X1963274Y348913D01*
X1963361Y348869D01*
X1963450Y348829D01*
X1963541Y348793D01*
X1963633Y348760D01*
X1963726Y348731D01*
X1963821Y348705D01*
X1963916Y348684D01*
X1964012Y348666D01*
X1964109Y348653D01*
X1964206Y348643D01*
X1964303Y348637D01*
X1964401Y348635D01*
X1964499Y348637D01*
X1964596Y348643D01*
X1964693Y348653D01*
X1964790Y348666D01*
X1964886Y348684D01*
X1964981Y348705D01*
X1965076Y348731D01*
X1965169Y348760D01*
X1965261Y348793D01*
X1965352Y348829D01*
X1965441Y348869D01*
X1965528Y348913D01*
X1965614Y348960D01*
X1965697Y349010D01*
X1965779Y349064D01*
X1965858Y349121D01*
X1965935Y349182D01*
X1966009Y349245D01*
X1966081Y349311D01*
X1966150Y349380D01*
X1966216Y349452D01*
X1966279Y349526D01*
X1966340Y349603D01*
X1966397Y349682D01*
X1966451Y349764D01*
X1966501Y349848D01*
X1966548Y349933D01*
X1966592Y350020D01*
X1966632Y350109D01*
X1966668Y350200D01*
X1966701Y350292D01*
X1966730Y350385D01*
X1966756Y350480D01*
X1966777Y350575D01*
X1966795Y350671D01*
X1966808Y350768D01*
X1966818Y350865D01*
X1966824Y350962D01*
X1966826Y351060D01*
X1957411Y348635D02*
X1957411Y357365D01*
X1954501Y352515D01*
X1951591Y357365D01*
X1951591Y348635D01*
X1946611Y348635D02*
X1946611Y357365D01*
X1943701Y352515D01*
X1940791Y357365D01*
X1940791Y348635D01*
X1936711Y348635D02*
X1933801Y357365D01*
X1930891Y348635D01*
X1931618Y350818D02*
X1935983Y350818D01*
X2165714Y348635D02*
X2165714Y357365D01*
X2163289Y357365D01*
X2163191Y357363D01*
X2163094Y357357D01*
X2162997Y357347D01*
X2162900Y357334D01*
X2162804Y357316D01*
X2162709Y357295D01*
X2162614Y357269D01*
X2162521Y357240D01*
X2162429Y357207D01*
X2162338Y357171D01*
X2162249Y357131D01*
X2162162Y357087D01*
X2162077Y357040D01*
X2161993Y356990D01*
X2161911Y356936D01*
X2161832Y356879D01*
X2161755Y356818D01*
X2161681Y356755D01*
X2161609Y356689D01*
X2161540Y356620D01*
X2161474Y356548D01*
X2161411Y356474D01*
X2161350Y356397D01*
X2161293Y356318D01*
X2161239Y356236D01*
X2161189Y356153D01*
X2161142Y356067D01*
X2161098Y355980D01*
X2161058Y355891D01*
X2161022Y355800D01*
X2160989Y355708D01*
X2160960Y355615D01*
X2160934Y355520D01*
X2160913Y355425D01*
X2160895Y355329D01*
X2160882Y355232D01*
X2160872Y355135D01*
X2160866Y355038D01*
X2160864Y354940D01*
X2160866Y354842D01*
X2160872Y354745D01*
X2160882Y354648D01*
X2160895Y354551D01*
X2160913Y354455D01*
X2160934Y354360D01*
X2160960Y354265D01*
X2160989Y354172D01*
X2161022Y354080D01*
X2161058Y353989D01*
X2161098Y353900D01*
X2161142Y353813D01*
X2161189Y353728D01*
X2161239Y353644D01*
X2161293Y353562D01*
X2161350Y353483D01*
X2161411Y353406D01*
X2161474Y353332D01*
X2161540Y353260D01*
X2161609Y353191D01*
X2161681Y353125D01*
X2161755Y353062D01*
X2161832Y353001D01*
X2161911Y352944D01*
X2161993Y352890D01*
X2162077Y352840D01*
X2162162Y352793D01*
X2162249Y352749D01*
X2162338Y352709D01*
X2162429Y352673D01*
X2162521Y352640D01*
X2162614Y352611D01*
X2162709Y352585D01*
X2162804Y352564D01*
X2162900Y352546D01*
X2162997Y352533D01*
X2163094Y352523D01*
X2163191Y352517D01*
X2163289Y352515D01*
X2165714Y352515D01*
X2156863Y348635D02*
X2152983Y348635D01*
X2156863Y348635D02*
X2156863Y357365D01*
X2152983Y357365D01*
X2153953Y353485D02*
X2156863Y353485D01*
X2149011Y357365D02*
X2149011Y348635D01*
X2149011Y357365D02*
X2146586Y357365D01*
X2146488Y357363D01*
X2146391Y357357D01*
X2146294Y357347D01*
X2146197Y357334D01*
X2146101Y357316D01*
X2146006Y357295D01*
X2145911Y357269D01*
X2145818Y357240D01*
X2145726Y357207D01*
X2145635Y357171D01*
X2145546Y357131D01*
X2145459Y357087D01*
X2145374Y357040D01*
X2145290Y356990D01*
X2145208Y356936D01*
X2145129Y356879D01*
X2145052Y356818D01*
X2144978Y356755D01*
X2144906Y356689D01*
X2144837Y356620D01*
X2144771Y356548D01*
X2144708Y356474D01*
X2144647Y356397D01*
X2144590Y356318D01*
X2144536Y356236D01*
X2144486Y356153D01*
X2144439Y356067D01*
X2144395Y355980D01*
X2144355Y355891D01*
X2144319Y355800D01*
X2144286Y355708D01*
X2144257Y355615D01*
X2144231Y355520D01*
X2144210Y355425D01*
X2144192Y355329D01*
X2144179Y355232D01*
X2144169Y355135D01*
X2144163Y355038D01*
X2144161Y354940D01*
X2144163Y354842D01*
X2144169Y354745D01*
X2144179Y354648D01*
X2144192Y354551D01*
X2144210Y354455D01*
X2144231Y354360D01*
X2144257Y354265D01*
X2144286Y354172D01*
X2144319Y354080D01*
X2144355Y353989D01*
X2144395Y353900D01*
X2144439Y353813D01*
X2144486Y353728D01*
X2144536Y353644D01*
X2144590Y353562D01*
X2144647Y353483D01*
X2144708Y353406D01*
X2144771Y353332D01*
X2144837Y353260D01*
X2144906Y353191D01*
X2144978Y353125D01*
X2145052Y353062D01*
X2145129Y353001D01*
X2145208Y352944D01*
X2145290Y352890D01*
X2145374Y352840D01*
X2145459Y352793D01*
X2145546Y352749D01*
X2145635Y352709D01*
X2145726Y352673D01*
X2145818Y352640D01*
X2145911Y352611D01*
X2146006Y352585D01*
X2146101Y352564D01*
X2146197Y352546D01*
X2146294Y352533D01*
X2146391Y352523D01*
X2146488Y352517D01*
X2146586Y352515D01*
X2149011Y352515D01*
X2146101Y352515D02*
X2144161Y348635D01*
X2139461Y348635D02*
X2139461Y357365D01*
X2140431Y348635D02*
X2138491Y348635D01*
X2138491Y357365D02*
X2140431Y357365D01*
X2134686Y354940D02*
X2134686Y351060D01*
X2134686Y354940D02*
X2134684Y355038D01*
X2134678Y355135D01*
X2134668Y355232D01*
X2134655Y355329D01*
X2134637Y355425D01*
X2134616Y355520D01*
X2134590Y355615D01*
X2134561Y355708D01*
X2134528Y355800D01*
X2134492Y355891D01*
X2134452Y355980D01*
X2134408Y356067D01*
X2134361Y356153D01*
X2134311Y356236D01*
X2134257Y356318D01*
X2134200Y356397D01*
X2134139Y356474D01*
X2134076Y356548D01*
X2134010Y356620D01*
X2133941Y356689D01*
X2133869Y356755D01*
X2133795Y356818D01*
X2133718Y356879D01*
X2133639Y356936D01*
X2133557Y356990D01*
X2133474Y357040D01*
X2133388Y357087D01*
X2133301Y357131D01*
X2133212Y357171D01*
X2133121Y357207D01*
X2133029Y357240D01*
X2132936Y357269D01*
X2132841Y357295D01*
X2132746Y357316D01*
X2132650Y357334D01*
X2132553Y357347D01*
X2132456Y357357D01*
X2132359Y357363D01*
X2132261Y357365D01*
X2132163Y357363D01*
X2132066Y357357D01*
X2131969Y357347D01*
X2131872Y357334D01*
X2131776Y357316D01*
X2131681Y357295D01*
X2131586Y357269D01*
X2131493Y357240D01*
X2131401Y357207D01*
X2131310Y357171D01*
X2131221Y357131D01*
X2131134Y357087D01*
X2131049Y357040D01*
X2130965Y356990D01*
X2130883Y356936D01*
X2130804Y356879D01*
X2130727Y356818D01*
X2130653Y356755D01*
X2130581Y356689D01*
X2130512Y356620D01*
X2130446Y356548D01*
X2130383Y356474D01*
X2130322Y356397D01*
X2130265Y356318D01*
X2130211Y356236D01*
X2130161Y356153D01*
X2130114Y356067D01*
X2130070Y355980D01*
X2130030Y355891D01*
X2129994Y355800D01*
X2129961Y355708D01*
X2129932Y355615D01*
X2129906Y355520D01*
X2129885Y355425D01*
X2129867Y355329D01*
X2129854Y355232D01*
X2129844Y355135D01*
X2129838Y355038D01*
X2129836Y354940D01*
X2129836Y351060D01*
X2129838Y350962D01*
X2129844Y350865D01*
X2129854Y350768D01*
X2129867Y350671D01*
X2129885Y350575D01*
X2129906Y350480D01*
X2129932Y350385D01*
X2129961Y350292D01*
X2129994Y350200D01*
X2130030Y350109D01*
X2130070Y350020D01*
X2130114Y349933D01*
X2130161Y349848D01*
X2130211Y349764D01*
X2130265Y349682D01*
X2130322Y349603D01*
X2130383Y349526D01*
X2130446Y349452D01*
X2130512Y349380D01*
X2130581Y349311D01*
X2130653Y349245D01*
X2130727Y349182D01*
X2130804Y349121D01*
X2130883Y349064D01*
X2130965Y349010D01*
X2131049Y348960D01*
X2131134Y348913D01*
X2131221Y348869D01*
X2131310Y348829D01*
X2131401Y348793D01*
X2131493Y348760D01*
X2131586Y348731D01*
X2131681Y348705D01*
X2131776Y348684D01*
X2131872Y348666D01*
X2131969Y348653D01*
X2132066Y348643D01*
X2132163Y348637D01*
X2132261Y348635D01*
X2132359Y348637D01*
X2132456Y348643D01*
X2132553Y348653D01*
X2132650Y348666D01*
X2132746Y348684D01*
X2132841Y348705D01*
X2132936Y348731D01*
X2133029Y348760D01*
X2133121Y348793D01*
X2133212Y348829D01*
X2133301Y348869D01*
X2133388Y348913D01*
X2133474Y348960D01*
X2133557Y349010D01*
X2133639Y349064D01*
X2133718Y349121D01*
X2133795Y349182D01*
X2133869Y349245D01*
X2133941Y349311D01*
X2134010Y349380D01*
X2134076Y349452D01*
X2134139Y349526D01*
X2134200Y349603D01*
X2134257Y349682D01*
X2134311Y349764D01*
X2134361Y349848D01*
X2134408Y349933D01*
X2134452Y350020D01*
X2134492Y350109D01*
X2134528Y350200D01*
X2134561Y350292D01*
X2134590Y350385D01*
X2134616Y350480D01*
X2134637Y350575D01*
X2134655Y350671D01*
X2134668Y350768D01*
X2134678Y350865D01*
X2134684Y350962D01*
X2134686Y351060D01*
X2125386Y348635D02*
X2125386Y357365D01*
X2122961Y357365D01*
X2122863Y357363D01*
X2122766Y357357D01*
X2122669Y357347D01*
X2122572Y357334D01*
X2122476Y357316D01*
X2122381Y357295D01*
X2122286Y357269D01*
X2122193Y357240D01*
X2122101Y357207D01*
X2122010Y357171D01*
X2121921Y357131D01*
X2121834Y357087D01*
X2121749Y357040D01*
X2121665Y356990D01*
X2121583Y356936D01*
X2121504Y356879D01*
X2121427Y356818D01*
X2121353Y356755D01*
X2121281Y356689D01*
X2121212Y356620D01*
X2121146Y356548D01*
X2121083Y356474D01*
X2121022Y356397D01*
X2120965Y356318D01*
X2120911Y356236D01*
X2120861Y356153D01*
X2120814Y356067D01*
X2120770Y355980D01*
X2120730Y355891D01*
X2120694Y355800D01*
X2120661Y355708D01*
X2120632Y355615D01*
X2120606Y355520D01*
X2120585Y355425D01*
X2120567Y355329D01*
X2120554Y355232D01*
X2120544Y355135D01*
X2120538Y355038D01*
X2120536Y354940D01*
X2120536Y351060D01*
X2120538Y350962D01*
X2120544Y350865D01*
X2120554Y350768D01*
X2120567Y350671D01*
X2120585Y350575D01*
X2120606Y350480D01*
X2120632Y350385D01*
X2120661Y350292D01*
X2120694Y350200D01*
X2120730Y350109D01*
X2120770Y350020D01*
X2120814Y349933D01*
X2120861Y349848D01*
X2120911Y349764D01*
X2120965Y349682D01*
X2121022Y349603D01*
X2121083Y349526D01*
X2121146Y349452D01*
X2121212Y349380D01*
X2121281Y349311D01*
X2121353Y349245D01*
X2121427Y349182D01*
X2121504Y349121D01*
X2121583Y349064D01*
X2121665Y349010D01*
X2121749Y348960D01*
X2121834Y348913D01*
X2121921Y348869D01*
X2122010Y348829D01*
X2122101Y348793D01*
X2122193Y348760D01*
X2122286Y348731D01*
X2122381Y348705D01*
X2122476Y348684D01*
X2122572Y348666D01*
X2122669Y348653D01*
X2122766Y348643D01*
X2122863Y348637D01*
X2122961Y348635D01*
X2125386Y348635D01*
X2331685Y358335D02*
X2335565Y347665D01*
X226791Y158135D02*
X224851Y158135D01*
X226791Y158135D02*
X226878Y158137D01*
X226965Y158143D01*
X227051Y158153D01*
X227137Y158166D01*
X227223Y158184D01*
X227307Y158205D01*
X227390Y158230D01*
X227473Y158259D01*
X227553Y158291D01*
X227633Y158327D01*
X227710Y158367D01*
X227786Y158410D01*
X227860Y158456D01*
X227931Y158506D01*
X228001Y158558D01*
X228067Y158614D01*
X228132Y158673D01*
X228193Y158734D01*
X228252Y158799D01*
X228308Y158865D01*
X228360Y158935D01*
X228410Y159006D01*
X228456Y159080D01*
X228499Y159156D01*
X228539Y159233D01*
X228575Y159313D01*
X228607Y159393D01*
X228636Y159476D01*
X228661Y159559D01*
X228682Y159643D01*
X228700Y159729D01*
X228713Y159815D01*
X228723Y159901D01*
X228729Y159988D01*
X228731Y160075D01*
X228731Y164925D01*
X228729Y165012D01*
X228723Y165099D01*
X228713Y165185D01*
X228700Y165271D01*
X228682Y165357D01*
X228661Y165441D01*
X228636Y165524D01*
X228607Y165607D01*
X228575Y165687D01*
X228539Y165767D01*
X228499Y165844D01*
X228456Y165920D01*
X228410Y165994D01*
X228360Y166065D01*
X228308Y166135D01*
X228252Y166201D01*
X228193Y166266D01*
X228132Y166327D01*
X228067Y166386D01*
X228001Y166442D01*
X227931Y166494D01*
X227860Y166544D01*
X227786Y166590D01*
X227710Y166633D01*
X227633Y166673D01*
X227553Y166709D01*
X227473Y166741D01*
X227390Y166770D01*
X227307Y166795D01*
X227223Y166816D01*
X227137Y166834D01*
X227051Y166847D01*
X226965Y166857D01*
X226878Y166863D01*
X226791Y166865D01*
X224851Y166865D01*
X219372Y166865D02*
X219372Y158135D01*
X221797Y166865D02*
X216947Y166865D01*
X213022Y166865D02*
X213022Y158135D01*
X213022Y166865D02*
X210597Y166865D01*
X210499Y166863D01*
X210402Y166857D01*
X210305Y166847D01*
X210208Y166834D01*
X210112Y166816D01*
X210017Y166795D01*
X209922Y166769D01*
X209829Y166740D01*
X209737Y166707D01*
X209646Y166671D01*
X209557Y166631D01*
X209470Y166587D01*
X209385Y166540D01*
X209301Y166490D01*
X209219Y166436D01*
X209140Y166379D01*
X209063Y166318D01*
X208989Y166255D01*
X208917Y166189D01*
X208848Y166120D01*
X208782Y166048D01*
X208719Y165974D01*
X208658Y165897D01*
X208601Y165818D01*
X208547Y165736D01*
X208497Y165653D01*
X208450Y165567D01*
X208406Y165480D01*
X208366Y165391D01*
X208330Y165300D01*
X208297Y165208D01*
X208268Y165115D01*
X208242Y165020D01*
X208221Y164925D01*
X208203Y164829D01*
X208190Y164732D01*
X208180Y164635D01*
X208174Y164538D01*
X208172Y164440D01*
X208174Y164342D01*
X208180Y164245D01*
X208190Y164148D01*
X208203Y164051D01*
X208221Y163955D01*
X208242Y163860D01*
X208268Y163765D01*
X208297Y163672D01*
X208330Y163580D01*
X208366Y163489D01*
X208406Y163400D01*
X208450Y163313D01*
X208497Y163228D01*
X208547Y163144D01*
X208601Y163062D01*
X208658Y162983D01*
X208719Y162906D01*
X208782Y162832D01*
X208848Y162760D01*
X208917Y162691D01*
X208989Y162625D01*
X209063Y162562D01*
X209140Y162501D01*
X209219Y162444D01*
X209301Y162390D01*
X209384Y162340D01*
X209470Y162293D01*
X209557Y162249D01*
X209646Y162209D01*
X209737Y162173D01*
X209829Y162140D01*
X209922Y162111D01*
X210017Y162085D01*
X210112Y162064D01*
X210208Y162046D01*
X210305Y162033D01*
X210402Y162023D01*
X210499Y162017D01*
X210597Y162015D01*
X213022Y162015D01*
X210112Y162015D02*
X208172Y158135D01*
X203774Y158135D02*
X203774Y166865D01*
X203774Y158135D02*
X199894Y158135D01*
X461600Y158135D02*
X463540Y166865D01*
X459660Y163955D02*
X461600Y158135D01*
X457720Y158135D02*
X459660Y163955D01*
X455780Y166865D02*
X457720Y158135D01*
X451260Y158135D02*
X451260Y166865D01*
X452230Y158135D02*
X450290Y158135D01*
X450290Y166865D02*
X452230Y166865D01*
X446185Y166865D02*
X446185Y158135D01*
X441335Y158135D02*
X446185Y166865D01*
X441335Y166865D02*
X441335Y158135D01*
X698420Y166865D02*
X701330Y158135D01*
X695510Y158135D02*
X698420Y166865D01*
X696238Y160318D02*
X700603Y160318D01*
X691522Y158135D02*
X691522Y166865D01*
X691522Y158135D02*
X687642Y158135D01*
X682220Y158135D02*
X682220Y166865D01*
X684645Y166865D02*
X679795Y166865D01*
X1775789Y166865D02*
X1775789Y158135D01*
X1771909Y158135D01*
X1767989Y158135D02*
X1764109Y158135D01*
X1767989Y158135D02*
X1767989Y166865D01*
X1764109Y166865D01*
X1765079Y162985D02*
X1767989Y162985D01*
X1760189Y166865D02*
X1760189Y158135D01*
X1760189Y166865D02*
X1756309Y166865D01*
X1756309Y162985D02*
X1760189Y162985D01*
X1750887Y166865D02*
X1750887Y158135D01*
X1753312Y166865D02*
X1748462Y166865D01*
X1959936Y166865D02*
X1959936Y160560D01*
X1959934Y160462D01*
X1959928Y160365D01*
X1959918Y160268D01*
X1959905Y160171D01*
X1959887Y160075D01*
X1959866Y159980D01*
X1959840Y159885D01*
X1959811Y159792D01*
X1959778Y159700D01*
X1959742Y159609D01*
X1959702Y159520D01*
X1959658Y159433D01*
X1959611Y159347D01*
X1959561Y159264D01*
X1959507Y159182D01*
X1959450Y159103D01*
X1959389Y159026D01*
X1959326Y158952D01*
X1959260Y158880D01*
X1959191Y158811D01*
X1959119Y158745D01*
X1959045Y158682D01*
X1958968Y158621D01*
X1958889Y158564D01*
X1958807Y158510D01*
X1958724Y158460D01*
X1958638Y158413D01*
X1958551Y158369D01*
X1958462Y158329D01*
X1958371Y158293D01*
X1958279Y158260D01*
X1958186Y158231D01*
X1958091Y158205D01*
X1957996Y158184D01*
X1957900Y158166D01*
X1957803Y158153D01*
X1957706Y158143D01*
X1957609Y158137D01*
X1957511Y158135D01*
X1957413Y158137D01*
X1957316Y158143D01*
X1957219Y158153D01*
X1957122Y158166D01*
X1957026Y158184D01*
X1956931Y158205D01*
X1956836Y158231D01*
X1956743Y158260D01*
X1956651Y158293D01*
X1956560Y158329D01*
X1956471Y158369D01*
X1956384Y158413D01*
X1956299Y158460D01*
X1956215Y158510D01*
X1956133Y158564D01*
X1956054Y158621D01*
X1955977Y158682D01*
X1955903Y158745D01*
X1955831Y158811D01*
X1955762Y158880D01*
X1955696Y158952D01*
X1955633Y159026D01*
X1955572Y159103D01*
X1955515Y159182D01*
X1955461Y159264D01*
X1955411Y159348D01*
X1955364Y159433D01*
X1955320Y159520D01*
X1955280Y159609D01*
X1955244Y159700D01*
X1955211Y159792D01*
X1955182Y159885D01*
X1955156Y159980D01*
X1955135Y160075D01*
X1955117Y160171D01*
X1955104Y160268D01*
X1955094Y160365D01*
X1955088Y160462D01*
X1955086Y160560D01*
X1955086Y166865D01*
X1950164Y166865D02*
X1950164Y158135D01*
X1950164Y166865D02*
X1947739Y166865D01*
X1947641Y166863D01*
X1947544Y166857D01*
X1947447Y166847D01*
X1947350Y166834D01*
X1947254Y166816D01*
X1947159Y166795D01*
X1947064Y166769D01*
X1946971Y166740D01*
X1946879Y166707D01*
X1946788Y166671D01*
X1946699Y166631D01*
X1946612Y166587D01*
X1946527Y166540D01*
X1946443Y166490D01*
X1946361Y166436D01*
X1946282Y166379D01*
X1946205Y166318D01*
X1946131Y166255D01*
X1946059Y166189D01*
X1945990Y166120D01*
X1945924Y166048D01*
X1945861Y165974D01*
X1945800Y165897D01*
X1945743Y165818D01*
X1945689Y165736D01*
X1945639Y165653D01*
X1945592Y165567D01*
X1945548Y165480D01*
X1945508Y165391D01*
X1945472Y165300D01*
X1945439Y165208D01*
X1945410Y165115D01*
X1945384Y165020D01*
X1945363Y164925D01*
X1945345Y164829D01*
X1945332Y164732D01*
X1945322Y164635D01*
X1945316Y164538D01*
X1945314Y164440D01*
X1945316Y164342D01*
X1945322Y164245D01*
X1945332Y164148D01*
X1945345Y164051D01*
X1945363Y163955D01*
X1945384Y163860D01*
X1945410Y163765D01*
X1945439Y163672D01*
X1945472Y163580D01*
X1945508Y163489D01*
X1945548Y163400D01*
X1945592Y163313D01*
X1945639Y163228D01*
X1945689Y163144D01*
X1945743Y163062D01*
X1945800Y162983D01*
X1945861Y162906D01*
X1945924Y162832D01*
X1945990Y162760D01*
X1946059Y162691D01*
X1946131Y162625D01*
X1946205Y162562D01*
X1946282Y162501D01*
X1946361Y162444D01*
X1946443Y162390D01*
X1946527Y162340D01*
X1946612Y162293D01*
X1946699Y162249D01*
X1946788Y162209D01*
X1946879Y162173D01*
X1946971Y162140D01*
X1947064Y162111D01*
X1947159Y162085D01*
X1947254Y162064D01*
X1947350Y162046D01*
X1947447Y162033D01*
X1947544Y162023D01*
X1947641Y162017D01*
X1947739Y162015D01*
X1950164Y162015D01*
X2160550Y158135D02*
X2160550Y166865D01*
X2158125Y166865D01*
X2158027Y166863D01*
X2157930Y166857D01*
X2157833Y166847D01*
X2157736Y166834D01*
X2157640Y166816D01*
X2157545Y166795D01*
X2157450Y166769D01*
X2157357Y166740D01*
X2157265Y166707D01*
X2157174Y166671D01*
X2157085Y166631D01*
X2156998Y166587D01*
X2156913Y166540D01*
X2156829Y166490D01*
X2156747Y166436D01*
X2156668Y166379D01*
X2156591Y166318D01*
X2156517Y166255D01*
X2156445Y166189D01*
X2156376Y166120D01*
X2156310Y166048D01*
X2156247Y165974D01*
X2156186Y165897D01*
X2156129Y165818D01*
X2156075Y165736D01*
X2156025Y165653D01*
X2155978Y165567D01*
X2155934Y165480D01*
X2155894Y165391D01*
X2155858Y165300D01*
X2155825Y165208D01*
X2155796Y165115D01*
X2155770Y165020D01*
X2155749Y164925D01*
X2155731Y164829D01*
X2155718Y164732D01*
X2155708Y164635D01*
X2155702Y164538D01*
X2155700Y164440D01*
X2155700Y160560D01*
X2155702Y160462D01*
X2155708Y160365D01*
X2155718Y160268D01*
X2155731Y160171D01*
X2155749Y160075D01*
X2155770Y159980D01*
X2155796Y159885D01*
X2155825Y159792D01*
X2155858Y159700D01*
X2155894Y159609D01*
X2155934Y159520D01*
X2155978Y159433D01*
X2156025Y159348D01*
X2156075Y159264D01*
X2156129Y159182D01*
X2156186Y159103D01*
X2156247Y159026D01*
X2156310Y158952D01*
X2156376Y158880D01*
X2156445Y158811D01*
X2156517Y158745D01*
X2156591Y158682D01*
X2156668Y158621D01*
X2156747Y158564D01*
X2156829Y158510D01*
X2156913Y158460D01*
X2156998Y158413D01*
X2157085Y158369D01*
X2157174Y158329D01*
X2157265Y158293D01*
X2157357Y158260D01*
X2157450Y158231D01*
X2157545Y158205D01*
X2157640Y158184D01*
X2157736Y158166D01*
X2157833Y158153D01*
X2157930Y158143D01*
X2158027Y158137D01*
X2158125Y158135D01*
X2160550Y158135D01*
X2151250Y160560D02*
X2151250Y164440D01*
X2151248Y164538D01*
X2151242Y164635D01*
X2151232Y164732D01*
X2151219Y164829D01*
X2151201Y164925D01*
X2151180Y165020D01*
X2151154Y165115D01*
X2151125Y165208D01*
X2151092Y165300D01*
X2151056Y165391D01*
X2151016Y165480D01*
X2150972Y165567D01*
X2150925Y165653D01*
X2150875Y165736D01*
X2150821Y165818D01*
X2150764Y165897D01*
X2150703Y165974D01*
X2150640Y166048D01*
X2150574Y166120D01*
X2150505Y166189D01*
X2150433Y166255D01*
X2150359Y166318D01*
X2150282Y166379D01*
X2150203Y166436D01*
X2150121Y166490D01*
X2150038Y166540D01*
X2149952Y166587D01*
X2149865Y166631D01*
X2149776Y166671D01*
X2149685Y166707D01*
X2149593Y166740D01*
X2149500Y166769D01*
X2149405Y166795D01*
X2149310Y166816D01*
X2149214Y166834D01*
X2149117Y166847D01*
X2149020Y166857D01*
X2148923Y166863D01*
X2148825Y166865D01*
X2148727Y166863D01*
X2148630Y166857D01*
X2148533Y166847D01*
X2148436Y166834D01*
X2148340Y166816D01*
X2148245Y166795D01*
X2148150Y166769D01*
X2148057Y166740D01*
X2147965Y166707D01*
X2147874Y166671D01*
X2147785Y166631D01*
X2147698Y166587D01*
X2147613Y166540D01*
X2147529Y166490D01*
X2147447Y166436D01*
X2147368Y166379D01*
X2147291Y166318D01*
X2147217Y166255D01*
X2147145Y166189D01*
X2147076Y166120D01*
X2147010Y166048D01*
X2146947Y165974D01*
X2146886Y165897D01*
X2146829Y165818D01*
X2146775Y165736D01*
X2146725Y165653D01*
X2146678Y165567D01*
X2146634Y165480D01*
X2146594Y165391D01*
X2146558Y165300D01*
X2146525Y165208D01*
X2146496Y165115D01*
X2146470Y165020D01*
X2146449Y164925D01*
X2146431Y164829D01*
X2146418Y164732D01*
X2146408Y164635D01*
X2146402Y164538D01*
X2146400Y164440D01*
X2146400Y160560D01*
X2146402Y160462D01*
X2146408Y160365D01*
X2146418Y160268D01*
X2146431Y160171D01*
X2146449Y160075D01*
X2146470Y159980D01*
X2146496Y159885D01*
X2146525Y159792D01*
X2146558Y159700D01*
X2146594Y159609D01*
X2146634Y159520D01*
X2146678Y159433D01*
X2146725Y159348D01*
X2146775Y159264D01*
X2146829Y159182D01*
X2146886Y159103D01*
X2146947Y159026D01*
X2147010Y158952D01*
X2147076Y158880D01*
X2147145Y158811D01*
X2147217Y158745D01*
X2147291Y158682D01*
X2147368Y158621D01*
X2147447Y158564D01*
X2147529Y158510D01*
X2147613Y158460D01*
X2147698Y158413D01*
X2147785Y158369D01*
X2147874Y158329D01*
X2147965Y158293D01*
X2148057Y158260D01*
X2148150Y158231D01*
X2148245Y158205D01*
X2148340Y158184D01*
X2148436Y158166D01*
X2148533Y158153D01*
X2148630Y158143D01*
X2148727Y158137D01*
X2148825Y158135D01*
X2148923Y158137D01*
X2149020Y158143D01*
X2149117Y158153D01*
X2149214Y158166D01*
X2149310Y158184D01*
X2149405Y158205D01*
X2149500Y158231D01*
X2149593Y158260D01*
X2149685Y158293D01*
X2149776Y158329D01*
X2149865Y158369D01*
X2149952Y158413D01*
X2150038Y158460D01*
X2150121Y158510D01*
X2150203Y158564D01*
X2150282Y158621D01*
X2150359Y158682D01*
X2150433Y158745D01*
X2150505Y158811D01*
X2150574Y158880D01*
X2150640Y158952D01*
X2150703Y159026D01*
X2150764Y159103D01*
X2150821Y159182D01*
X2150875Y159264D01*
X2150925Y159347D01*
X2150972Y159433D01*
X2151016Y159520D01*
X2151056Y159609D01*
X2151092Y159700D01*
X2151125Y159792D01*
X2151154Y159885D01*
X2151180Y159980D01*
X2151201Y160075D01*
X2151219Y160171D01*
X2151232Y160268D01*
X2151242Y160365D01*
X2151248Y160462D01*
X2151250Y160560D01*
X2142505Y166865D02*
X2140565Y158135D01*
X2138625Y163955D01*
X2136685Y158135D01*
X2134745Y166865D01*
X2130550Y166865D02*
X2130550Y158135D01*
X2125700Y158135D02*
X2130550Y166865D01*
X2125700Y166865D02*
X2125700Y158135D01*
X2352513Y158135D02*
X2352513Y166865D01*
X2350088Y166865D01*
X2349990Y166863D01*
X2349893Y166857D01*
X2349796Y166847D01*
X2349699Y166834D01*
X2349603Y166816D01*
X2349508Y166795D01*
X2349413Y166769D01*
X2349320Y166740D01*
X2349228Y166707D01*
X2349137Y166671D01*
X2349048Y166631D01*
X2348961Y166587D01*
X2348876Y166540D01*
X2348792Y166490D01*
X2348710Y166436D01*
X2348631Y166379D01*
X2348554Y166318D01*
X2348480Y166255D01*
X2348408Y166189D01*
X2348339Y166120D01*
X2348273Y166048D01*
X2348210Y165974D01*
X2348149Y165897D01*
X2348092Y165818D01*
X2348038Y165736D01*
X2347988Y165653D01*
X2347941Y165567D01*
X2347897Y165480D01*
X2347857Y165391D01*
X2347821Y165300D01*
X2347788Y165208D01*
X2347759Y165115D01*
X2347733Y165020D01*
X2347712Y164925D01*
X2347694Y164829D01*
X2347681Y164732D01*
X2347671Y164635D01*
X2347665Y164538D01*
X2347663Y164440D01*
X2347665Y164342D01*
X2347671Y164245D01*
X2347681Y164148D01*
X2347694Y164051D01*
X2347712Y163955D01*
X2347733Y163860D01*
X2347759Y163765D01*
X2347788Y163672D01*
X2347821Y163580D01*
X2347857Y163489D01*
X2347897Y163400D01*
X2347941Y163313D01*
X2347988Y163228D01*
X2348038Y163144D01*
X2348092Y163062D01*
X2348149Y162983D01*
X2348210Y162906D01*
X2348273Y162832D01*
X2348339Y162760D01*
X2348408Y162691D01*
X2348480Y162625D01*
X2348554Y162562D01*
X2348631Y162501D01*
X2348710Y162444D01*
X2348792Y162390D01*
X2348876Y162340D01*
X2348961Y162293D01*
X2349048Y162249D01*
X2349137Y162209D01*
X2349228Y162173D01*
X2349320Y162140D01*
X2349413Y162111D01*
X2349508Y162085D01*
X2349603Y162064D01*
X2349699Y162046D01*
X2349796Y162033D01*
X2349893Y162023D01*
X2349990Y162017D01*
X2350088Y162015D01*
X2352513Y162015D01*
X2349603Y162015D02*
X2347663Y158135D01*
X2342963Y158135D02*
X2342963Y166865D01*
X2343933Y158135D02*
X2341993Y158135D01*
X2341993Y166865D02*
X2343933Y166865D01*
X2334493Y162985D02*
X2333038Y162985D01*
X2333038Y158135D01*
X2335948Y158135D01*
X2336035Y158137D01*
X2336122Y158143D01*
X2336208Y158153D01*
X2336294Y158166D01*
X2336380Y158184D01*
X2336464Y158205D01*
X2336547Y158230D01*
X2336630Y158259D01*
X2336710Y158291D01*
X2336790Y158327D01*
X2336867Y158367D01*
X2336943Y158410D01*
X2337017Y158456D01*
X2337088Y158506D01*
X2337158Y158558D01*
X2337224Y158614D01*
X2337289Y158673D01*
X2337350Y158734D01*
X2337409Y158799D01*
X2337465Y158865D01*
X2337517Y158935D01*
X2337567Y159006D01*
X2337613Y159080D01*
X2337656Y159156D01*
X2337696Y159233D01*
X2337732Y159313D01*
X2337764Y159393D01*
X2337793Y159476D01*
X2337818Y159559D01*
X2337839Y159643D01*
X2337857Y159729D01*
X2337870Y159815D01*
X2337880Y159901D01*
X2337886Y159988D01*
X2337888Y160075D01*
X2337888Y164925D01*
X2337886Y165012D01*
X2337880Y165099D01*
X2337870Y165185D01*
X2337857Y165271D01*
X2337839Y165357D01*
X2337818Y165441D01*
X2337793Y165524D01*
X2337764Y165607D01*
X2337732Y165687D01*
X2337696Y165767D01*
X2337656Y165844D01*
X2337613Y165920D01*
X2337567Y165994D01*
X2337517Y166065D01*
X2337465Y166135D01*
X2337409Y166201D01*
X2337350Y166266D01*
X2337289Y166327D01*
X2337224Y166386D01*
X2337158Y166442D01*
X2337088Y166494D01*
X2337017Y166544D01*
X2336943Y166590D01*
X2336867Y166633D01*
X2336790Y166673D01*
X2336710Y166709D01*
X2336630Y166741D01*
X2336547Y166770D01*
X2336464Y166795D01*
X2336380Y166816D01*
X2336294Y166834D01*
X2336208Y166847D01*
X2336122Y166857D01*
X2336035Y166863D01*
X2335948Y166865D01*
X2333038Y166865D01*
X2328288Y166865D02*
X2328288Y158135D01*
X2328288Y162985D02*
X2323438Y162985D01*
X2323438Y166865D02*
X2323438Y158135D01*
X2317163Y158135D02*
X2317163Y166865D01*
X2319588Y166865D02*
X2314738Y166865D01*
X324528Y348635D02*
X324441Y348637D01*
X324354Y348643D01*
X324268Y348653D01*
X324182Y348666D01*
X324096Y348684D01*
X324012Y348705D01*
X323929Y348730D01*
X323846Y348759D01*
X323766Y348791D01*
X323686Y348827D01*
X323609Y348867D01*
X323533Y348910D01*
X323459Y348956D01*
X323388Y349006D01*
X323318Y349058D01*
X323252Y349114D01*
X323187Y349173D01*
X323126Y349234D01*
X323067Y349299D01*
X323011Y349365D01*
X322959Y349435D01*
X322909Y349506D01*
X322863Y349580D01*
X322820Y349656D01*
X322780Y349733D01*
X322744Y349813D01*
X322712Y349893D01*
X322683Y349976D01*
X322658Y350059D01*
X322637Y350143D01*
X322619Y350229D01*
X322606Y350315D01*
X322596Y350401D01*
X322590Y350488D01*
X322588Y350575D01*
X324528Y348635D02*
X324652Y348637D01*
X324777Y348643D01*
X324901Y348652D01*
X325025Y348665D01*
X325148Y348682D01*
X325271Y348703D01*
X325393Y348727D01*
X325514Y348755D01*
X325634Y348787D01*
X325753Y348823D01*
X325872Y348862D01*
X325989Y348904D01*
X326104Y348950D01*
X326218Y349000D01*
X326331Y349053D01*
X326442Y349109D01*
X326551Y349169D01*
X326658Y349232D01*
X326764Y349298D01*
X326867Y349368D01*
X326968Y349440D01*
X327067Y349516D01*
X327163Y349595D01*
X327257Y349676D01*
X327349Y349760D01*
X327438Y349847D01*
X327195Y355425D02*
X327193Y355512D01*
X327187Y355599D01*
X327177Y355685D01*
X327164Y355771D01*
X327146Y355857D01*
X327125Y355941D01*
X327100Y356024D01*
X327071Y356107D01*
X327039Y356187D01*
X327003Y356267D01*
X326963Y356344D01*
X326920Y356420D01*
X326874Y356494D01*
X326824Y356565D01*
X326772Y356635D01*
X326716Y356701D01*
X326657Y356766D01*
X326596Y356827D01*
X326531Y356886D01*
X326465Y356942D01*
X326395Y356994D01*
X326324Y357044D01*
X326250Y357090D01*
X326174Y357133D01*
X326097Y357173D01*
X326017Y357209D01*
X325937Y357241D01*
X325854Y357270D01*
X325771Y357295D01*
X325687Y357316D01*
X325601Y357334D01*
X325515Y357347D01*
X325429Y357357D01*
X325342Y357363D01*
X325255Y357365D01*
X325255Y357366D02*
X325138Y357364D01*
X325021Y357358D01*
X324904Y357349D01*
X324788Y357336D01*
X324672Y357319D01*
X324557Y357298D01*
X324443Y357274D01*
X324329Y357246D01*
X324216Y357215D01*
X324105Y357179D01*
X323994Y357141D01*
X323885Y357098D01*
X323777Y357052D01*
X323671Y357003D01*
X323567Y356950D01*
X323464Y356894D01*
X323363Y356835D01*
X323264Y356773D01*
X323167Y356707D01*
X323072Y356638D01*
X326225Y353728D02*
X326298Y353773D01*
X326368Y353821D01*
X326436Y353871D01*
X326502Y353925D01*
X326566Y353982D01*
X326627Y354041D01*
X326686Y354103D01*
X326742Y354168D01*
X326795Y354234D01*
X326845Y354303D01*
X326892Y354375D01*
X326935Y354448D01*
X326976Y354522D01*
X327014Y354599D01*
X327048Y354677D01*
X327078Y354757D01*
X327105Y354837D01*
X327129Y354919D01*
X327149Y355002D01*
X327166Y355086D01*
X327178Y355170D01*
X327188Y355255D01*
X327193Y355340D01*
X327195Y355425D01*
X323558Y352272D02*
X323485Y352227D01*
X323415Y352179D01*
X323347Y352129D01*
X323281Y352075D01*
X323217Y352018D01*
X323156Y351959D01*
X323097Y351897D01*
X323041Y351832D01*
X322988Y351766D01*
X322938Y351697D01*
X322891Y351625D01*
X322848Y351552D01*
X322807Y351478D01*
X322769Y351401D01*
X322735Y351323D01*
X322705Y351243D01*
X322678Y351163D01*
X322654Y351081D01*
X322634Y350998D01*
X322617Y350914D01*
X322605Y350830D01*
X322595Y350745D01*
X322590Y350660D01*
X322588Y350575D01*
X323558Y352273D02*
X326225Y353728D01*
X318438Y357365D02*
X318438Y348635D01*
X318438Y353485D02*
X313588Y353485D01*
X313588Y357365D02*
X313588Y348635D01*
X308513Y348635D02*
X308513Y357365D01*
X309483Y348635D02*
X307543Y348635D01*
X307543Y357365D02*
X309483Y357365D01*
X303415Y357365D02*
X303415Y348635D01*
X303415Y357365D02*
X299535Y357365D01*
X299535Y353485D02*
X303415Y353485D01*
X294113Y357365D02*
X294113Y348635D01*
X296538Y357365D02*
X291688Y357365D01*
X1228789Y160075D02*
X1228791Y159988D01*
X1228797Y159901D01*
X1228807Y159815D01*
X1228820Y159729D01*
X1228838Y159643D01*
X1228859Y159559D01*
X1228884Y159476D01*
X1228913Y159393D01*
X1228945Y159313D01*
X1228981Y159233D01*
X1229021Y159156D01*
X1229064Y159080D01*
X1229110Y159006D01*
X1229160Y158935D01*
X1229212Y158865D01*
X1229268Y158799D01*
X1229327Y158734D01*
X1229388Y158673D01*
X1229453Y158614D01*
X1229519Y158558D01*
X1229589Y158506D01*
X1229660Y158456D01*
X1229734Y158410D01*
X1229810Y158367D01*
X1229887Y158327D01*
X1229967Y158291D01*
X1230047Y158259D01*
X1230130Y158230D01*
X1230213Y158205D01*
X1230297Y158184D01*
X1230383Y158166D01*
X1230469Y158153D01*
X1230555Y158143D01*
X1230642Y158137D01*
X1230729Y158135D01*
X1230853Y158137D01*
X1230978Y158143D01*
X1231102Y158152D01*
X1231226Y158165D01*
X1231349Y158182D01*
X1231472Y158203D01*
X1231594Y158227D01*
X1231715Y158255D01*
X1231835Y158287D01*
X1231954Y158323D01*
X1232073Y158362D01*
X1232190Y158404D01*
X1232305Y158450D01*
X1232419Y158500D01*
X1232532Y158553D01*
X1232643Y158609D01*
X1232752Y158669D01*
X1232859Y158732D01*
X1232965Y158798D01*
X1233068Y158868D01*
X1233169Y158940D01*
X1233268Y159016D01*
X1233364Y159095D01*
X1233458Y159176D01*
X1233550Y159260D01*
X1233639Y159347D01*
X1233396Y164925D02*
X1233394Y165012D01*
X1233388Y165099D01*
X1233378Y165185D01*
X1233365Y165271D01*
X1233347Y165357D01*
X1233326Y165441D01*
X1233301Y165524D01*
X1233272Y165607D01*
X1233240Y165687D01*
X1233204Y165767D01*
X1233164Y165844D01*
X1233121Y165920D01*
X1233075Y165994D01*
X1233025Y166065D01*
X1232973Y166135D01*
X1232917Y166201D01*
X1232858Y166266D01*
X1232797Y166327D01*
X1232732Y166386D01*
X1232666Y166442D01*
X1232596Y166494D01*
X1232525Y166544D01*
X1232451Y166590D01*
X1232375Y166633D01*
X1232298Y166673D01*
X1232218Y166709D01*
X1232138Y166741D01*
X1232055Y166770D01*
X1231972Y166795D01*
X1231888Y166816D01*
X1231802Y166834D01*
X1231716Y166847D01*
X1231630Y166857D01*
X1231543Y166863D01*
X1231456Y166865D01*
X1231456Y166866D02*
X1231339Y166864D01*
X1231222Y166858D01*
X1231105Y166849D01*
X1230989Y166836D01*
X1230873Y166819D01*
X1230758Y166798D01*
X1230644Y166774D01*
X1230530Y166746D01*
X1230417Y166715D01*
X1230306Y166679D01*
X1230195Y166641D01*
X1230086Y166598D01*
X1229978Y166552D01*
X1229872Y166503D01*
X1229768Y166450D01*
X1229665Y166394D01*
X1229564Y166335D01*
X1229465Y166273D01*
X1229368Y166207D01*
X1229273Y166138D01*
X1232426Y163228D02*
X1232499Y163273D01*
X1232569Y163321D01*
X1232637Y163371D01*
X1232703Y163425D01*
X1232767Y163482D01*
X1232828Y163541D01*
X1232887Y163603D01*
X1232943Y163668D01*
X1232996Y163734D01*
X1233046Y163803D01*
X1233093Y163875D01*
X1233136Y163948D01*
X1233177Y164022D01*
X1233215Y164099D01*
X1233249Y164177D01*
X1233279Y164257D01*
X1233306Y164337D01*
X1233330Y164419D01*
X1233350Y164502D01*
X1233367Y164586D01*
X1233379Y164670D01*
X1233389Y164755D01*
X1233394Y164840D01*
X1233396Y164925D01*
X1229759Y161772D02*
X1229686Y161727D01*
X1229616Y161679D01*
X1229548Y161629D01*
X1229482Y161575D01*
X1229418Y161518D01*
X1229357Y161459D01*
X1229298Y161397D01*
X1229242Y161332D01*
X1229189Y161266D01*
X1229139Y161197D01*
X1229092Y161125D01*
X1229049Y161052D01*
X1229008Y160978D01*
X1228970Y160901D01*
X1228936Y160823D01*
X1228906Y160743D01*
X1228879Y160663D01*
X1228855Y160581D01*
X1228835Y160498D01*
X1228818Y160414D01*
X1228806Y160330D01*
X1228796Y160245D01*
X1228791Y160160D01*
X1228789Y160075D01*
X1229759Y161773D02*
X1232426Y163228D01*
X1224466Y166865D02*
X1224466Y158135D01*
X1224466Y166865D02*
X1222041Y166865D01*
X1221943Y166863D01*
X1221846Y166857D01*
X1221749Y166847D01*
X1221652Y166834D01*
X1221556Y166816D01*
X1221461Y166795D01*
X1221366Y166769D01*
X1221273Y166740D01*
X1221181Y166707D01*
X1221090Y166671D01*
X1221001Y166631D01*
X1220914Y166587D01*
X1220829Y166540D01*
X1220745Y166490D01*
X1220663Y166436D01*
X1220584Y166379D01*
X1220507Y166318D01*
X1220433Y166255D01*
X1220361Y166189D01*
X1220292Y166120D01*
X1220226Y166048D01*
X1220163Y165974D01*
X1220102Y165897D01*
X1220045Y165818D01*
X1219991Y165736D01*
X1219941Y165653D01*
X1219894Y165567D01*
X1219850Y165480D01*
X1219810Y165391D01*
X1219774Y165300D01*
X1219741Y165208D01*
X1219712Y165115D01*
X1219686Y165020D01*
X1219665Y164925D01*
X1219647Y164829D01*
X1219634Y164732D01*
X1219624Y164635D01*
X1219618Y164538D01*
X1219616Y164440D01*
X1219618Y164342D01*
X1219624Y164245D01*
X1219634Y164148D01*
X1219647Y164051D01*
X1219665Y163955D01*
X1219686Y163860D01*
X1219712Y163765D01*
X1219741Y163672D01*
X1219774Y163580D01*
X1219810Y163489D01*
X1219850Y163400D01*
X1219894Y163313D01*
X1219941Y163228D01*
X1219991Y163144D01*
X1220045Y163062D01*
X1220102Y162983D01*
X1220163Y162906D01*
X1220226Y162832D01*
X1220292Y162760D01*
X1220361Y162691D01*
X1220433Y162625D01*
X1220507Y162562D01*
X1220584Y162501D01*
X1220663Y162444D01*
X1220745Y162390D01*
X1220829Y162340D01*
X1220914Y162293D01*
X1221001Y162249D01*
X1221090Y162209D01*
X1221181Y162173D01*
X1221273Y162140D01*
X1221366Y162111D01*
X1221461Y162085D01*
X1221556Y162064D01*
X1221652Y162046D01*
X1221749Y162033D01*
X1221846Y162023D01*
X1221943Y162017D01*
X1222041Y162015D01*
X1224466Y162015D01*
X1216424Y158135D02*
X1213514Y166865D01*
X1210604Y158135D01*
X1211331Y160318D02*
X1215696Y160318D01*
X1205033Y158135D02*
X1203093Y158135D01*
X1205033Y158135D02*
X1205120Y158137D01*
X1205207Y158143D01*
X1205293Y158153D01*
X1205379Y158166D01*
X1205465Y158184D01*
X1205549Y158205D01*
X1205632Y158230D01*
X1205715Y158259D01*
X1205795Y158291D01*
X1205875Y158327D01*
X1205952Y158367D01*
X1206028Y158410D01*
X1206102Y158456D01*
X1206173Y158506D01*
X1206243Y158558D01*
X1206309Y158614D01*
X1206374Y158673D01*
X1206435Y158734D01*
X1206494Y158799D01*
X1206550Y158865D01*
X1206602Y158935D01*
X1206652Y159006D01*
X1206698Y159080D01*
X1206741Y159156D01*
X1206781Y159233D01*
X1206817Y159313D01*
X1206849Y159393D01*
X1206878Y159476D01*
X1206903Y159559D01*
X1206924Y159643D01*
X1206942Y159729D01*
X1206955Y159815D01*
X1206965Y159901D01*
X1206971Y159988D01*
X1206973Y160075D01*
X1206973Y164925D01*
X1206971Y165012D01*
X1206965Y165099D01*
X1206955Y165185D01*
X1206942Y165271D01*
X1206924Y165357D01*
X1206903Y165441D01*
X1206878Y165524D01*
X1206849Y165607D01*
X1206817Y165687D01*
X1206781Y165767D01*
X1206741Y165844D01*
X1206698Y165920D01*
X1206652Y165994D01*
X1206602Y166065D01*
X1206550Y166135D01*
X1206494Y166201D01*
X1206435Y166266D01*
X1206374Y166327D01*
X1206309Y166386D01*
X1206243Y166442D01*
X1206173Y166494D01*
X1206102Y166544D01*
X1206028Y166590D01*
X1205952Y166633D01*
X1205875Y166673D01*
X1205795Y166709D01*
X1205715Y166741D01*
X1205632Y166770D01*
X1205549Y166795D01*
X1205465Y166816D01*
X1205379Y166834D01*
X1205293Y166847D01*
X1205207Y166857D01*
X1205120Y166863D01*
X1205033Y166865D01*
X1203093Y166865D01*
X1199116Y158135D02*
X1195236Y158135D01*
X1199116Y158135D02*
X1199116Y166865D01*
X1195236Y166865D01*
X1196206Y162985D02*
X1199116Y162985D01*
X1577939Y166865D02*
X1577939Y158135D01*
X1577939Y166865D02*
X1574059Y166865D01*
X1574059Y162985D02*
X1577939Y162985D01*
X1570162Y166865D02*
X1570162Y158135D01*
X1565312Y158135D02*
X1570162Y166865D01*
X1565312Y166865D02*
X1565312Y158135D01*
X2770500Y924985D02*
X2772925Y924985D01*
X2770500Y924985D02*
X2770402Y924983D01*
X2770305Y924977D01*
X2770208Y924967D01*
X2770111Y924954D01*
X2770015Y924936D01*
X2769920Y924915D01*
X2769825Y924889D01*
X2769732Y924860D01*
X2769640Y924827D01*
X2769549Y924791D01*
X2769460Y924751D01*
X2769373Y924707D01*
X2769288Y924660D01*
X2769204Y924610D01*
X2769122Y924556D01*
X2769043Y924499D01*
X2768966Y924438D01*
X2768892Y924375D01*
X2768820Y924309D01*
X2768751Y924240D01*
X2768685Y924168D01*
X2768622Y924094D01*
X2768561Y924017D01*
X2768504Y923938D01*
X2768450Y923856D01*
X2768400Y923773D01*
X2768353Y923687D01*
X2768309Y923600D01*
X2768269Y923511D01*
X2768233Y923420D01*
X2768200Y923328D01*
X2768171Y923235D01*
X2768145Y923140D01*
X2768124Y923045D01*
X2768106Y922949D01*
X2768093Y922852D01*
X2768083Y922755D01*
X2768077Y922658D01*
X2768075Y922560D01*
X2768077Y922462D01*
X2768083Y922365D01*
X2768093Y922268D01*
X2768106Y922171D01*
X2768124Y922075D01*
X2768145Y921980D01*
X2768171Y921885D01*
X2768200Y921792D01*
X2768233Y921700D01*
X2768269Y921609D01*
X2768309Y921520D01*
X2768353Y921433D01*
X2768400Y921348D01*
X2768450Y921264D01*
X2768504Y921182D01*
X2768561Y921103D01*
X2768622Y921026D01*
X2768685Y920952D01*
X2768751Y920880D01*
X2768820Y920811D01*
X2768892Y920745D01*
X2768966Y920682D01*
X2769043Y920621D01*
X2769122Y920564D01*
X2769204Y920510D01*
X2769288Y920460D01*
X2769373Y920413D01*
X2769460Y920369D01*
X2769549Y920329D01*
X2769640Y920293D01*
X2769732Y920260D01*
X2769825Y920231D01*
X2769920Y920205D01*
X2770015Y920184D01*
X2770111Y920166D01*
X2770208Y920153D01*
X2770305Y920143D01*
X2770402Y920137D01*
X2770500Y920135D01*
X2772925Y920135D01*
X2772925Y928865D01*
X2770500Y928865D01*
X2770413Y928863D01*
X2770326Y928857D01*
X2770240Y928847D01*
X2770154Y928834D01*
X2770068Y928816D01*
X2769984Y928795D01*
X2769901Y928770D01*
X2769818Y928741D01*
X2769738Y928709D01*
X2769658Y928673D01*
X2769581Y928633D01*
X2769505Y928590D01*
X2769431Y928544D01*
X2769360Y928494D01*
X2769290Y928442D01*
X2769224Y928386D01*
X2769159Y928327D01*
X2769098Y928266D01*
X2769039Y928201D01*
X2768983Y928135D01*
X2768931Y928065D01*
X2768881Y927994D01*
X2768835Y927920D01*
X2768792Y927844D01*
X2768752Y927767D01*
X2768716Y927687D01*
X2768684Y927607D01*
X2768655Y927524D01*
X2768630Y927441D01*
X2768609Y927357D01*
X2768591Y927271D01*
X2768578Y927185D01*
X2768568Y927099D01*
X2768562Y927012D01*
X2768560Y926925D01*
X2768562Y926838D01*
X2768568Y926751D01*
X2768578Y926665D01*
X2768591Y926579D01*
X2768609Y926493D01*
X2768630Y926409D01*
X2768655Y926326D01*
X2768684Y926243D01*
X2768716Y926163D01*
X2768752Y926083D01*
X2768792Y926006D01*
X2768835Y925930D01*
X2768881Y925856D01*
X2768931Y925785D01*
X2768983Y925715D01*
X2769039Y925649D01*
X2769098Y925584D01*
X2769159Y925523D01*
X2769224Y925464D01*
X2769290Y925408D01*
X2769360Y925356D01*
X2769431Y925306D01*
X2769505Y925260D01*
X2769581Y925217D01*
X2769658Y925177D01*
X2769738Y925141D01*
X2769818Y925109D01*
X2769901Y925080D01*
X2769984Y925055D01*
X2770068Y925034D01*
X2770154Y925016D01*
X2770240Y925003D01*
X2770326Y924993D01*
X2770413Y924987D01*
X2770500Y924985D01*
X2762491Y920135D02*
X2760551Y920135D01*
X2762491Y920135D02*
X2762578Y920137D01*
X2762665Y920143D01*
X2762751Y920153D01*
X2762837Y920166D01*
X2762923Y920184D01*
X2763007Y920205D01*
X2763090Y920230D01*
X2763173Y920259D01*
X2763253Y920291D01*
X2763333Y920327D01*
X2763410Y920367D01*
X2763486Y920410D01*
X2763560Y920456D01*
X2763631Y920506D01*
X2763701Y920558D01*
X2763767Y920614D01*
X2763832Y920673D01*
X2763893Y920734D01*
X2763952Y920799D01*
X2764008Y920865D01*
X2764060Y920935D01*
X2764110Y921006D01*
X2764156Y921080D01*
X2764199Y921156D01*
X2764239Y921233D01*
X2764275Y921313D01*
X2764307Y921393D01*
X2764336Y921476D01*
X2764361Y921559D01*
X2764382Y921643D01*
X2764400Y921729D01*
X2764413Y921815D01*
X2764423Y921901D01*
X2764429Y921988D01*
X2764431Y922075D01*
X2764431Y926925D01*
X2764429Y927012D01*
X2764423Y927099D01*
X2764413Y927185D01*
X2764400Y927271D01*
X2764382Y927357D01*
X2764361Y927441D01*
X2764336Y927524D01*
X2764307Y927607D01*
X2764275Y927687D01*
X2764239Y927767D01*
X2764199Y927844D01*
X2764156Y927920D01*
X2764110Y927994D01*
X2764060Y928065D01*
X2764008Y928135D01*
X2763952Y928201D01*
X2763893Y928266D01*
X2763832Y928327D01*
X2763767Y928386D01*
X2763701Y928442D01*
X2763631Y928494D01*
X2763560Y928544D01*
X2763486Y928590D01*
X2763410Y928633D01*
X2763333Y928673D01*
X2763253Y928709D01*
X2763173Y928741D01*
X2763090Y928770D01*
X2763007Y928795D01*
X2762923Y928816D01*
X2762837Y928834D01*
X2762751Y928847D01*
X2762665Y928857D01*
X2762578Y928863D01*
X2762491Y928865D01*
X2760551Y928865D01*
X2756425Y928865D02*
X2756425Y920135D01*
X2756425Y923530D02*
X2751575Y928865D01*
X2754485Y925470D02*
X2751575Y920135D01*
X2479410Y922075D02*
X2473590Y922075D01*
X2473590Y924985D02*
X2479410Y924985D01*
X2753509Y539135D02*
X2757389Y539135D01*
X2757389Y547865D01*
X2753509Y547865D01*
X2754479Y543985D02*
X2757389Y543985D01*
X2749612Y547865D02*
X2749612Y539135D01*
X2744762Y539135D02*
X2749612Y547865D01*
X2744762Y547865D02*
X2744762Y539135D01*
X2738487Y539135D02*
X2738487Y547865D01*
X2740912Y547865D02*
X2736062Y547865D01*
X2732189Y539135D02*
X2728309Y539135D01*
X2732189Y539135D02*
X2732189Y547865D01*
X2728309Y547865D01*
X2729279Y543985D02*
X2732189Y543985D01*
X2724337Y547865D02*
X2724337Y539135D01*
X2724337Y547865D02*
X2721912Y547865D01*
X2721814Y547863D01*
X2721717Y547857D01*
X2721620Y547847D01*
X2721523Y547834D01*
X2721427Y547816D01*
X2721332Y547795D01*
X2721237Y547769D01*
X2721144Y547740D01*
X2721052Y547707D01*
X2720961Y547671D01*
X2720872Y547631D01*
X2720785Y547587D01*
X2720700Y547540D01*
X2720616Y547490D01*
X2720534Y547436D01*
X2720455Y547379D01*
X2720378Y547318D01*
X2720304Y547255D01*
X2720232Y547189D01*
X2720163Y547120D01*
X2720097Y547048D01*
X2720034Y546974D01*
X2719973Y546897D01*
X2719916Y546818D01*
X2719862Y546736D01*
X2719812Y546653D01*
X2719765Y546567D01*
X2719721Y546480D01*
X2719681Y546391D01*
X2719645Y546300D01*
X2719612Y546208D01*
X2719583Y546115D01*
X2719557Y546020D01*
X2719536Y545925D01*
X2719518Y545829D01*
X2719505Y545732D01*
X2719495Y545635D01*
X2719489Y545538D01*
X2719487Y545440D01*
X2719489Y545342D01*
X2719495Y545245D01*
X2719505Y545148D01*
X2719518Y545051D01*
X2719536Y544955D01*
X2719557Y544860D01*
X2719583Y544765D01*
X2719612Y544672D01*
X2719645Y544580D01*
X2719681Y544489D01*
X2719721Y544400D01*
X2719765Y544313D01*
X2719812Y544228D01*
X2719862Y544144D01*
X2719916Y544062D01*
X2719973Y543983D01*
X2720034Y543906D01*
X2720097Y543832D01*
X2720163Y543760D01*
X2720232Y543691D01*
X2720304Y543625D01*
X2720378Y543562D01*
X2720455Y543501D01*
X2720534Y543444D01*
X2720616Y543390D01*
X2720700Y543340D01*
X2720785Y543293D01*
X2720872Y543249D01*
X2720961Y543209D01*
X2721052Y543173D01*
X2721144Y543140D01*
X2721237Y543111D01*
X2721332Y543085D01*
X2721427Y543064D01*
X2721523Y543046D01*
X2721620Y543033D01*
X2721717Y543023D01*
X2721814Y543017D01*
X2721912Y543015D01*
X2724337Y543015D01*
X2721427Y543015D02*
X2719487Y539135D01*
X2560141Y357365D02*
X2557231Y348635D01*
X2554321Y357365D01*
X2550356Y357365D02*
X2550356Y351060D01*
X2550354Y350962D01*
X2550348Y350865D01*
X2550338Y350768D01*
X2550325Y350671D01*
X2550307Y350575D01*
X2550286Y350480D01*
X2550260Y350385D01*
X2550231Y350292D01*
X2550198Y350200D01*
X2550162Y350109D01*
X2550122Y350020D01*
X2550078Y349933D01*
X2550031Y349848D01*
X2549981Y349764D01*
X2549927Y349682D01*
X2549870Y349603D01*
X2549809Y349526D01*
X2549746Y349452D01*
X2549680Y349380D01*
X2549611Y349311D01*
X2549539Y349245D01*
X2549465Y349182D01*
X2549388Y349121D01*
X2549309Y349064D01*
X2549227Y349010D01*
X2549144Y348960D01*
X2549058Y348913D01*
X2548971Y348869D01*
X2548882Y348829D01*
X2548791Y348793D01*
X2548699Y348760D01*
X2548606Y348731D01*
X2548511Y348705D01*
X2548416Y348684D01*
X2548320Y348666D01*
X2548223Y348653D01*
X2548126Y348643D01*
X2548029Y348637D01*
X2547931Y348635D01*
X2547833Y348637D01*
X2547736Y348643D01*
X2547639Y348653D01*
X2547542Y348666D01*
X2547446Y348684D01*
X2547351Y348705D01*
X2547256Y348731D01*
X2547163Y348760D01*
X2547071Y348793D01*
X2546980Y348829D01*
X2546891Y348869D01*
X2546804Y348913D01*
X2546719Y348960D01*
X2546635Y349010D01*
X2546553Y349064D01*
X2546474Y349121D01*
X2546397Y349182D01*
X2546323Y349245D01*
X2546251Y349311D01*
X2546182Y349380D01*
X2546116Y349452D01*
X2546053Y349526D01*
X2545992Y349603D01*
X2545935Y349682D01*
X2545881Y349764D01*
X2545831Y349848D01*
X2545784Y349933D01*
X2545740Y350020D01*
X2545700Y350109D01*
X2545664Y350200D01*
X2545631Y350292D01*
X2545602Y350385D01*
X2545576Y350480D01*
X2545555Y350575D01*
X2545537Y350671D01*
X2545524Y350768D01*
X2545514Y350865D01*
X2545508Y350962D01*
X2545506Y351060D01*
X2545506Y357365D01*
X2540584Y357365D02*
X2540584Y348635D01*
X2540584Y357365D02*
X2538159Y357365D01*
X2538061Y357363D01*
X2537964Y357357D01*
X2537867Y357347D01*
X2537770Y357334D01*
X2537674Y357316D01*
X2537579Y357295D01*
X2537484Y357269D01*
X2537391Y357240D01*
X2537299Y357207D01*
X2537208Y357171D01*
X2537119Y357131D01*
X2537032Y357087D01*
X2536947Y357040D01*
X2536863Y356990D01*
X2536781Y356936D01*
X2536702Y356879D01*
X2536625Y356818D01*
X2536551Y356755D01*
X2536479Y356689D01*
X2536410Y356620D01*
X2536344Y356548D01*
X2536281Y356474D01*
X2536220Y356397D01*
X2536163Y356318D01*
X2536109Y356236D01*
X2536059Y356153D01*
X2536012Y356067D01*
X2535968Y355980D01*
X2535928Y355891D01*
X2535892Y355800D01*
X2535859Y355708D01*
X2535830Y355615D01*
X2535804Y355520D01*
X2535783Y355425D01*
X2535765Y355329D01*
X2535752Y355232D01*
X2535742Y355135D01*
X2535736Y355038D01*
X2535734Y354940D01*
X2535736Y354842D01*
X2535742Y354745D01*
X2535752Y354648D01*
X2535765Y354551D01*
X2535783Y354455D01*
X2535804Y354360D01*
X2535830Y354265D01*
X2535859Y354172D01*
X2535892Y354080D01*
X2535928Y353989D01*
X2535968Y353900D01*
X2536012Y353813D01*
X2536059Y353728D01*
X2536109Y353644D01*
X2536163Y353562D01*
X2536220Y353483D01*
X2536281Y353406D01*
X2536344Y353332D01*
X2536410Y353260D01*
X2536479Y353191D01*
X2536551Y353125D01*
X2536625Y353062D01*
X2536702Y353001D01*
X2536781Y352944D01*
X2536863Y352890D01*
X2536947Y352840D01*
X2537032Y352793D01*
X2537119Y352749D01*
X2537208Y352709D01*
X2537299Y352673D01*
X2537391Y352640D01*
X2537484Y352611D01*
X2537579Y352585D01*
X2537674Y352564D01*
X2537770Y352546D01*
X2537867Y352533D01*
X2537964Y352523D01*
X2538061Y352517D01*
X2538159Y352515D01*
X2540584Y352515D01*
X2570255Y166865D02*
X2567345Y158135D01*
X2564435Y166865D01*
X2560470Y166865D02*
X2560470Y158135D01*
X2560470Y166865D02*
X2558045Y166865D01*
X2557947Y166863D01*
X2557850Y166857D01*
X2557753Y166847D01*
X2557656Y166834D01*
X2557560Y166816D01*
X2557465Y166795D01*
X2557370Y166769D01*
X2557277Y166740D01*
X2557185Y166707D01*
X2557094Y166671D01*
X2557005Y166631D01*
X2556918Y166587D01*
X2556833Y166540D01*
X2556749Y166490D01*
X2556667Y166436D01*
X2556588Y166379D01*
X2556511Y166318D01*
X2556437Y166255D01*
X2556365Y166189D01*
X2556296Y166120D01*
X2556230Y166048D01*
X2556167Y165974D01*
X2556106Y165897D01*
X2556049Y165818D01*
X2555995Y165736D01*
X2555945Y165653D01*
X2555898Y165567D01*
X2555854Y165480D01*
X2555814Y165391D01*
X2555778Y165300D01*
X2555745Y165208D01*
X2555716Y165115D01*
X2555690Y165020D01*
X2555669Y164925D01*
X2555651Y164829D01*
X2555638Y164732D01*
X2555628Y164635D01*
X2555622Y164538D01*
X2555620Y164440D01*
X2555620Y160560D01*
X2555622Y160462D01*
X2555628Y160365D01*
X2555638Y160268D01*
X2555651Y160171D01*
X2555669Y160075D01*
X2555690Y159980D01*
X2555716Y159885D01*
X2555745Y159792D01*
X2555778Y159700D01*
X2555814Y159609D01*
X2555854Y159520D01*
X2555898Y159433D01*
X2555945Y159348D01*
X2555995Y159264D01*
X2556049Y159182D01*
X2556106Y159103D01*
X2556167Y159026D01*
X2556230Y158952D01*
X2556296Y158880D01*
X2556365Y158811D01*
X2556437Y158745D01*
X2556511Y158682D01*
X2556588Y158621D01*
X2556667Y158564D01*
X2556749Y158510D01*
X2556833Y158460D01*
X2556918Y158413D01*
X2557005Y158369D01*
X2557094Y158329D01*
X2557185Y158293D01*
X2557277Y158260D01*
X2557370Y158231D01*
X2557465Y158205D01*
X2557560Y158184D01*
X2557656Y158166D01*
X2557753Y158153D01*
X2557850Y158143D01*
X2557947Y158137D01*
X2558045Y158135D01*
X2560470Y158135D01*
X2551170Y160560D02*
X2551170Y164440D01*
X2551168Y164538D01*
X2551162Y164635D01*
X2551152Y164732D01*
X2551139Y164829D01*
X2551121Y164925D01*
X2551100Y165020D01*
X2551074Y165115D01*
X2551045Y165208D01*
X2551012Y165300D01*
X2550976Y165391D01*
X2550936Y165480D01*
X2550892Y165567D01*
X2550845Y165653D01*
X2550795Y165736D01*
X2550741Y165818D01*
X2550684Y165897D01*
X2550623Y165974D01*
X2550560Y166048D01*
X2550494Y166120D01*
X2550425Y166189D01*
X2550353Y166255D01*
X2550279Y166318D01*
X2550202Y166379D01*
X2550123Y166436D01*
X2550041Y166490D01*
X2549958Y166540D01*
X2549872Y166587D01*
X2549785Y166631D01*
X2549696Y166671D01*
X2549605Y166707D01*
X2549513Y166740D01*
X2549420Y166769D01*
X2549325Y166795D01*
X2549230Y166816D01*
X2549134Y166834D01*
X2549037Y166847D01*
X2548940Y166857D01*
X2548843Y166863D01*
X2548745Y166865D01*
X2548647Y166863D01*
X2548550Y166857D01*
X2548453Y166847D01*
X2548356Y166834D01*
X2548260Y166816D01*
X2548165Y166795D01*
X2548070Y166769D01*
X2547977Y166740D01*
X2547885Y166707D01*
X2547794Y166671D01*
X2547705Y166631D01*
X2547618Y166587D01*
X2547533Y166540D01*
X2547449Y166490D01*
X2547367Y166436D01*
X2547288Y166379D01*
X2547211Y166318D01*
X2547137Y166255D01*
X2547065Y166189D01*
X2546996Y166120D01*
X2546930Y166048D01*
X2546867Y165974D01*
X2546806Y165897D01*
X2546749Y165818D01*
X2546695Y165736D01*
X2546645Y165653D01*
X2546598Y165567D01*
X2546554Y165480D01*
X2546514Y165391D01*
X2546478Y165300D01*
X2546445Y165208D01*
X2546416Y165115D01*
X2546390Y165020D01*
X2546369Y164925D01*
X2546351Y164829D01*
X2546338Y164732D01*
X2546328Y164635D01*
X2546322Y164538D01*
X2546320Y164440D01*
X2546320Y160560D01*
X2546322Y160462D01*
X2546328Y160365D01*
X2546338Y160268D01*
X2546351Y160171D01*
X2546369Y160075D01*
X2546390Y159980D01*
X2546416Y159885D01*
X2546445Y159792D01*
X2546478Y159700D01*
X2546514Y159609D01*
X2546554Y159520D01*
X2546598Y159433D01*
X2546645Y159348D01*
X2546695Y159264D01*
X2546749Y159182D01*
X2546806Y159103D01*
X2546867Y159026D01*
X2546930Y158952D01*
X2546996Y158880D01*
X2547065Y158811D01*
X2547137Y158745D01*
X2547211Y158682D01*
X2547288Y158621D01*
X2547367Y158564D01*
X2547449Y158510D01*
X2547533Y158460D01*
X2547618Y158413D01*
X2547705Y158369D01*
X2547794Y158329D01*
X2547885Y158293D01*
X2547977Y158260D01*
X2548070Y158231D01*
X2548165Y158205D01*
X2548260Y158184D01*
X2548356Y158166D01*
X2548453Y158153D01*
X2548550Y158143D01*
X2548647Y158137D01*
X2548745Y158135D01*
X2548843Y158137D01*
X2548940Y158143D01*
X2549037Y158153D01*
X2549134Y158166D01*
X2549230Y158184D01*
X2549325Y158205D01*
X2549420Y158231D01*
X2549513Y158260D01*
X2549605Y158293D01*
X2549696Y158329D01*
X2549785Y158369D01*
X2549872Y158413D01*
X2549958Y158460D01*
X2550041Y158510D01*
X2550123Y158564D01*
X2550202Y158621D01*
X2550279Y158682D01*
X2550353Y158745D01*
X2550425Y158811D01*
X2550494Y158880D01*
X2550560Y158952D01*
X2550623Y159026D01*
X2550684Y159103D01*
X2550741Y159182D01*
X2550795Y159264D01*
X2550845Y159347D01*
X2550892Y159433D01*
X2550936Y159520D01*
X2550976Y159609D01*
X2551012Y159700D01*
X2551045Y159792D01*
X2551074Y159885D01*
X2551100Y159980D01*
X2551121Y160075D01*
X2551139Y160171D01*
X2551152Y160268D01*
X2551162Y160365D01*
X2551168Y160462D01*
X2551170Y160560D01*
X2542425Y166865D02*
X2540485Y158135D01*
X2538545Y163955D01*
X2536605Y158135D01*
X2534665Y166865D01*
X2530470Y166865D02*
X2530470Y158135D01*
X2525620Y158135D02*
X2530470Y166865D01*
X2525620Y166865D02*
X2525620Y158135D01*
M02*
