G04 EAGLE Gerber RS-274X export*
G75*
%MOMM*%
%FSLAX34Y34*%
%LPD*%
%INSoldermask Bottom*%
%IPPOS*%
%AMOC8*
5,1,8,0,0,1.08239X$1,22.5*%
G01*
%ADD10C,2.203200*%
%ADD11C,4.203200*%
%ADD12C,1.903200*%
%ADD13C,2.743200*%
%ADD14C,3.253200*%
%ADD15R,2.203200X2.203200*%
%ADD16C,3.519200*%
%ADD17C,1.631200*%
%ADD18C,0.959600*%


D10*
X1524116Y691132D03*
X1549516Y691132D03*
X1574916Y691132D03*
X1600316Y691132D03*
X1625716Y691132D03*
X1651116Y691132D03*
X1676516Y691132D03*
X1701916Y691132D03*
X1727316Y691132D03*
X1752716Y691132D03*
X1778116Y691132D03*
X1803516Y691132D03*
X1524116Y842332D03*
X1549516Y842332D03*
X1574916Y842332D03*
X1600316Y842332D03*
X1625716Y842332D03*
X1651116Y842332D03*
X1676516Y842332D03*
X1701916Y842332D03*
X1727316Y842332D03*
X1752716Y842332D03*
X1778116Y842332D03*
X1803516Y842332D03*
X1762516Y729132D03*
X1557116Y724152D03*
X1557116Y810512D03*
D11*
X190500Y952500D03*
D12*
X139700Y952500D03*
X241300Y952500D03*
D13*
X152400Y977900D03*
X215900Y1003300D03*
D11*
X381000Y952500D03*
D12*
X330200Y952500D03*
X431800Y952500D03*
D13*
X342900Y977900D03*
X406400Y1003300D03*
D11*
X571500Y952500D03*
D12*
X520700Y952500D03*
X622300Y952500D03*
D13*
X533400Y977900D03*
X596900Y1003300D03*
D11*
X762000Y952500D03*
D12*
X711200Y952500D03*
X812800Y952500D03*
D13*
X723900Y977900D03*
X787400Y1003300D03*
D11*
X952500Y952500D03*
D12*
X901700Y952500D03*
X1003300Y952500D03*
D13*
X914400Y977900D03*
X977900Y1003300D03*
D11*
X1143000Y952500D03*
D12*
X1092200Y952500D03*
X1193800Y952500D03*
D13*
X1104900Y977900D03*
X1168400Y1003300D03*
D11*
X1333500Y952500D03*
D12*
X1282700Y952500D03*
X1384300Y952500D03*
D13*
X1295400Y977900D03*
X1358900Y1003300D03*
D11*
X1524000Y952500D03*
D12*
X1473200Y952500D03*
X1574800Y952500D03*
D13*
X1485900Y977900D03*
X1549400Y1003300D03*
D11*
X1714500Y952500D03*
D12*
X1663700Y952500D03*
X1765300Y952500D03*
D13*
X1676400Y977900D03*
X1739900Y1003300D03*
D11*
X1905000Y952500D03*
D12*
X1854200Y952500D03*
X1955800Y952500D03*
D13*
X1866900Y977900D03*
X1930400Y1003300D03*
D11*
X2095500Y952500D03*
D12*
X2044700Y952500D03*
X2146300Y952500D03*
D13*
X2057400Y977900D03*
X2120900Y1003300D03*
D11*
X2286000Y952500D03*
D12*
X2235200Y952500D03*
X2336800Y952500D03*
D13*
X2247900Y977900D03*
X2311400Y1003300D03*
D11*
X238125Y762000D03*
D12*
X187325Y762000D03*
X288925Y762000D03*
D13*
X200025Y787400D03*
X263525Y812800D03*
D11*
X476250Y762000D03*
D12*
X425450Y762000D03*
X527050Y762000D03*
D13*
X438150Y787400D03*
X501650Y812800D03*
D11*
X666750Y762000D03*
D12*
X615950Y762000D03*
X717550Y762000D03*
D13*
X628650Y787400D03*
X692150Y812800D03*
D11*
X857250Y762000D03*
D12*
X806450Y762000D03*
X908050Y762000D03*
D13*
X819150Y787400D03*
X882650Y812800D03*
D11*
X1047750Y762000D03*
D12*
X996950Y762000D03*
X1098550Y762000D03*
D13*
X1009650Y787400D03*
X1073150Y812800D03*
D11*
X1238250Y762000D03*
D12*
X1187450Y762000D03*
X1289050Y762000D03*
D13*
X1200150Y787400D03*
X1263650Y812800D03*
D11*
X1428750Y762000D03*
D12*
X1377950Y762000D03*
X1479550Y762000D03*
D13*
X1390650Y787400D03*
X1454150Y812800D03*
D11*
X1619250Y762000D03*
D12*
X1568450Y762000D03*
X1670050Y762000D03*
D13*
X1581150Y787400D03*
X1644650Y812800D03*
D11*
X1809750Y762000D03*
D12*
X1758950Y762000D03*
X1860550Y762000D03*
D13*
X1771650Y787400D03*
X1835150Y812800D03*
D11*
X2000250Y762000D03*
D12*
X1949450Y762000D03*
X2051050Y762000D03*
D13*
X1962150Y787400D03*
X2025650Y812800D03*
D11*
X2190750Y762000D03*
D12*
X2139950Y762000D03*
X2241550Y762000D03*
D13*
X2152650Y787400D03*
X2216150Y812800D03*
D11*
X2381250Y762000D03*
D12*
X2330450Y762000D03*
X2432050Y762000D03*
D13*
X2343150Y787400D03*
X2406650Y812800D03*
D11*
X2571750Y762000D03*
D12*
X2520950Y762000D03*
X2622550Y762000D03*
D13*
X2533650Y787400D03*
X2597150Y812800D03*
D11*
X261938Y571500D03*
D12*
X211138Y571500D03*
X312738Y571500D03*
D13*
X223838Y596900D03*
X287338Y622300D03*
D11*
X523875Y571500D03*
D12*
X473075Y571500D03*
X574675Y571500D03*
D13*
X485775Y596900D03*
X549275Y622300D03*
D11*
X714375Y571500D03*
D12*
X663575Y571500D03*
X765175Y571500D03*
D13*
X676275Y596900D03*
X739775Y622300D03*
D11*
X904875Y571500D03*
D12*
X854075Y571500D03*
X955675Y571500D03*
D13*
X866775Y596900D03*
X930275Y622300D03*
D11*
X1095375Y571500D03*
D12*
X1044575Y571500D03*
X1146175Y571500D03*
D13*
X1057275Y596900D03*
X1120775Y622300D03*
D11*
X1285875Y571500D03*
D12*
X1235075Y571500D03*
X1336675Y571500D03*
D13*
X1247775Y596900D03*
X1311275Y622300D03*
D11*
X1476375Y571500D03*
D12*
X1425575Y571500D03*
X1527175Y571500D03*
D13*
X1438275Y596900D03*
X1501775Y622300D03*
D11*
X1666875Y571500D03*
D12*
X1616075Y571500D03*
X1717675Y571500D03*
D13*
X1628775Y596900D03*
X1692275Y622300D03*
D11*
X1857375Y571500D03*
D12*
X1806575Y571500D03*
X1908175Y571500D03*
D13*
X1819275Y596900D03*
X1882775Y622300D03*
D11*
X2047875Y571500D03*
D12*
X1997075Y571500D03*
X2098675Y571500D03*
D13*
X2009775Y596900D03*
X2073275Y622300D03*
D11*
X2238375Y571500D03*
D12*
X2187575Y571500D03*
X2289175Y571500D03*
D13*
X2200275Y596900D03*
X2263775Y622300D03*
D11*
X2428875Y571500D03*
D12*
X2378075Y571500D03*
X2479675Y571500D03*
D13*
X2390775Y596900D03*
X2454275Y622300D03*
D11*
X619125Y381000D03*
D12*
X568325Y381000D03*
X669925Y381000D03*
D13*
X581025Y406400D03*
X644525Y431800D03*
D11*
X809625Y381000D03*
D12*
X758825Y381000D03*
X860425Y381000D03*
D13*
X771525Y406400D03*
X835025Y431800D03*
D11*
X1000125Y381000D03*
D12*
X949325Y381000D03*
X1050925Y381000D03*
D13*
X962025Y406400D03*
X1025525Y431800D03*
D11*
X1190625Y381000D03*
D12*
X1139825Y381000D03*
X1241425Y381000D03*
D13*
X1152525Y406400D03*
X1216025Y431800D03*
D11*
X1381125Y381000D03*
D12*
X1330325Y381000D03*
X1431925Y381000D03*
D13*
X1343025Y406400D03*
X1406525Y431800D03*
D11*
X1571625Y381000D03*
D12*
X1520825Y381000D03*
X1622425Y381000D03*
D13*
X1533525Y406400D03*
X1597025Y431800D03*
D11*
X1762125Y381000D03*
D12*
X1711325Y381000D03*
X1812925Y381000D03*
D13*
X1724025Y406400D03*
X1787525Y431800D03*
D11*
X1952625Y381000D03*
D12*
X1901825Y381000D03*
X2003425Y381000D03*
D13*
X1914525Y406400D03*
X1978025Y431800D03*
D11*
X2143125Y381000D03*
D12*
X2092325Y381000D03*
X2193925Y381000D03*
D13*
X2105025Y406400D03*
X2168525Y431800D03*
D11*
X2333625Y381000D03*
D12*
X2282825Y381000D03*
X2384425Y381000D03*
D13*
X2295525Y406400D03*
X2359025Y431800D03*
D11*
X2809875Y762000D03*
D12*
X2759075Y762000D03*
X2860675Y762000D03*
D13*
X2771775Y787400D03*
X2835275Y812800D03*
D11*
X214313Y190500D03*
D12*
X163513Y190500D03*
X265113Y190500D03*
D13*
X176213Y215900D03*
X239713Y241300D03*
D11*
X452438Y190500D03*
D12*
X401638Y190500D03*
X503238Y190500D03*
D13*
X414338Y215900D03*
X477838Y241300D03*
D11*
X690563Y190500D03*
D12*
X639763Y190500D03*
X741363Y190500D03*
D13*
X652463Y215900D03*
X715963Y241300D03*
D11*
X1762125Y190500D03*
D12*
X1711325Y190500D03*
X1812925Y190500D03*
D13*
X1724025Y215900D03*
X1787525Y241300D03*
D11*
X1952625Y190500D03*
D12*
X1901825Y190500D03*
X2003425Y190500D03*
D13*
X1914525Y215900D03*
X1978025Y241300D03*
D11*
X2143125Y190500D03*
D12*
X2092325Y190500D03*
X2193925Y190500D03*
D13*
X2105025Y215900D03*
X2168525Y241300D03*
D11*
X2333625Y190500D03*
D12*
X2282825Y190500D03*
X2384425Y190500D03*
D13*
X2295525Y215900D03*
X2359025Y241300D03*
D11*
X309563Y381000D03*
D12*
X258763Y381000D03*
X360363Y381000D03*
D14*
X190563Y311000D03*
X428563Y311000D03*
D11*
X190563Y463400D03*
X428563Y463400D03*
D13*
X271463Y406400D03*
X334963Y431800D03*
D11*
X1214438Y190500D03*
D12*
X1163638Y190500D03*
X1265238Y190500D03*
D14*
X1095438Y120500D03*
X1333438Y120500D03*
D11*
X1095438Y272900D03*
X1333438Y272900D03*
D13*
X1176338Y215900D03*
X1239838Y241300D03*
D11*
X1571625Y190500D03*
D12*
X1520825Y190500D03*
X1622425Y190500D03*
D13*
X1533525Y215900D03*
X1597025Y241300D03*
D15*
X285750Y1000700D03*
D10*
X285750Y904300D03*
D15*
X476250Y1000700D03*
D10*
X476250Y904300D03*
D15*
X666750Y1000700D03*
D10*
X666750Y904300D03*
D15*
X857250Y1000700D03*
D10*
X857250Y904300D03*
D15*
X1047750Y1000700D03*
D10*
X1047750Y904300D03*
D15*
X1238250Y1000700D03*
D10*
X1238250Y904300D03*
D15*
X1428750Y1000700D03*
D10*
X1428750Y904300D03*
D15*
X1619250Y1000700D03*
D10*
X1619250Y904300D03*
D15*
X1809750Y1000700D03*
D10*
X1809750Y904300D03*
D15*
X2000250Y1000700D03*
D10*
X2000250Y904300D03*
D15*
X2190750Y1000700D03*
D10*
X2190750Y904300D03*
D15*
X2381250Y1000700D03*
D10*
X2381250Y904300D03*
D15*
X2571750Y1000700D03*
D10*
X2571750Y904300D03*
D15*
X333375Y810200D03*
D10*
X333375Y713800D03*
D15*
X571500Y810200D03*
D10*
X571500Y713800D03*
D15*
X762000Y810200D03*
D10*
X762000Y713800D03*
D15*
X952500Y810200D03*
D10*
X952500Y713800D03*
D15*
X1143000Y810200D03*
D10*
X1143000Y713800D03*
D15*
X1333500Y810200D03*
D10*
X1333500Y713800D03*
D15*
X1524000Y810200D03*
D10*
X1524000Y713800D03*
D15*
X1714500Y810200D03*
D10*
X1714500Y713800D03*
D15*
X1905000Y810200D03*
D10*
X1905000Y713800D03*
D15*
X2095500Y810200D03*
D10*
X2095500Y713800D03*
D15*
X2286000Y810200D03*
D10*
X2286000Y713800D03*
D15*
X2476500Y810200D03*
D10*
X2476500Y713800D03*
D15*
X2667000Y810200D03*
D10*
X2667000Y713800D03*
D15*
X381000Y619700D03*
D10*
X381000Y523300D03*
D15*
X619125Y619700D03*
D10*
X619125Y523300D03*
D15*
X809625Y619700D03*
D10*
X809625Y523300D03*
D15*
X1000125Y619700D03*
D10*
X1000125Y523300D03*
D15*
X1190625Y619700D03*
D10*
X1190625Y523300D03*
D15*
X1381125Y619700D03*
D10*
X1381125Y523300D03*
D15*
X1571625Y619700D03*
D10*
X1571625Y523300D03*
D15*
X1762125Y619700D03*
D10*
X1762125Y523300D03*
D15*
X1952625Y619700D03*
D10*
X1952625Y523300D03*
D15*
X2143125Y619700D03*
D10*
X2143125Y523300D03*
D15*
X2333625Y619700D03*
D10*
X2333625Y523300D03*
D15*
X2524125Y619700D03*
D10*
X2524125Y523300D03*
D15*
X2547938Y619700D03*
D10*
X2547938Y523300D03*
D15*
X500063Y429200D03*
D10*
X500063Y332800D03*
D15*
X714375Y429200D03*
D10*
X714375Y332800D03*
D15*
X904875Y429200D03*
D10*
X904875Y332800D03*
D15*
X1095375Y429200D03*
D10*
X1095375Y332800D03*
D15*
X1285875Y429200D03*
D10*
X1285875Y332800D03*
D15*
X1476375Y429200D03*
D10*
X1476375Y332800D03*
D15*
X1666875Y429200D03*
D10*
X1666875Y332800D03*
D15*
X1857375Y429200D03*
D10*
X1857375Y332800D03*
D15*
X2047875Y429200D03*
D10*
X2047875Y332800D03*
D15*
X2238375Y429200D03*
D10*
X2238375Y332800D03*
D15*
X2428875Y429200D03*
D10*
X2428875Y332800D03*
D15*
X2714625Y810200D03*
D10*
X2714625Y713800D03*
D15*
X309563Y238700D03*
D10*
X309563Y142300D03*
D15*
X547688Y238700D03*
D10*
X547688Y142300D03*
D15*
X785813Y238700D03*
D10*
X785813Y142300D03*
D15*
X1023938Y238700D03*
D10*
X1023938Y142300D03*
D15*
X1666875Y238700D03*
D10*
X1666875Y142300D03*
D15*
X1857375Y238700D03*
D10*
X1857375Y142300D03*
D15*
X2047875Y238700D03*
D10*
X2047875Y142300D03*
D15*
X2238375Y238700D03*
D10*
X2238375Y142300D03*
D15*
X2428875Y238700D03*
D10*
X2428875Y142300D03*
D11*
X2762250Y952500D03*
D12*
X2711450Y952500D03*
X2813050Y952500D03*
D14*
X2643250Y1022500D03*
X2881250Y1022500D03*
D11*
X2643250Y870100D03*
X2881250Y870100D03*
D13*
X2724150Y977900D03*
X2787650Y1003300D03*
D15*
X2595563Y1000700D03*
D10*
X2595563Y904300D03*
D11*
X2476500Y952500D03*
D12*
X2425700Y952500D03*
X2527300Y952500D03*
D13*
X2438400Y977900D03*
X2501900Y1003300D03*
D11*
X2738438Y571500D03*
D12*
X2687638Y571500D03*
X2789238Y571500D03*
D14*
X2619438Y641500D03*
X2857438Y641500D03*
D11*
X2619438Y489100D03*
X2857438Y489100D03*
D13*
X2700338Y596900D03*
X2763838Y622300D03*
D16*
X1589700Y1086388D03*
X1458300Y1086388D03*
D17*
X1514000Y1059288D03*
X1534000Y1059288D03*
X1489000Y1059288D03*
X1559000Y1059288D03*
D11*
X2547938Y381000D03*
D12*
X2497138Y381000D03*
X2598738Y381000D03*
D13*
X2509838Y406400D03*
X2573338Y431800D03*
D11*
X2547938Y190500D03*
D12*
X2497138Y190500D03*
X2598738Y190500D03*
D13*
X2509838Y215900D03*
X2573338Y241300D03*
D15*
X2452688Y429200D03*
D10*
X2452688Y332800D03*
D15*
X2452688Y238700D03*
D10*
X2452688Y142300D03*
D18*
X1794000Y864000D03*
X1550000Y492000D03*
X1488000Y670000D03*
X1542000Y648000D03*
X1624000Y294000D03*
M02*
